<?xml version="1.0" encoding="UTF-8"?>
<svg width="292px" height="286px" viewBox="0 0 292 286" version="1.1" xmlns="http://www.w3.org/2000/svg" xmlns:xlink="http://www.w3.org/1999/xlink">
    <!-- Generator: sketchtool 53.2 (72643) - https://sketchapp.com -->
    <title>3B8ADE59-A52C-456C-8A70-8561755B4168</title>
    <desc>Created with sketchtool.</desc>
    <defs>
        <circle id="path-1" cx="121.706191" cy="120.903785" r="120.4875"></circle>
        <polygon id="path-3" points="0.200594609 0.244810157 102.051835 0.244810157 102.051835 5.6927584 0.200594609 5.6927584"></polygon>
        <polygon id="path-5" points="0 0.0472694802 58.7657655 0.0472694802 58.7657655 97.495267 0 97.495267"></polygon>
    </defs>
    <g id="Lot-1" stroke="none" stroke-width="1" fill="none" fill-rule="evenodd">
        <g id="TrouverPharmacie-v2" transform="translate(-921.000000, -220.000000)">
            <g id="01-USER" transform="translate(0.000000, 155.000000)">
                <g id="02-TROUVERPHARMA" transform="translate(145.000000, 56.000000)">
                    <g id="illustration/FindPharmacy" transform="translate(770.000000, 0.000000)">
                        <g id="color/LightOverlay40" transform="translate(34.425000, 53.550000)">
                            <mask id="mask-2" fill="white">
                                <use xlink:href="#path-1"></use>
                            </mask>
                            <g id="Mask" fill-rule="nonzero"></g>
                            <g mask="url(#mask-2)" fill="#FFFFFF" fill-rule="nonzero" id="Rectangle" opacity="0.4">
                                <g transform="translate(-34.425000, -53.550000)">
                                    <rect x="0" y="0" width="306" height="306"></rect>
                                </g>
                            </g>
                            <g id="Group-3" mask="url(#mask-2)">
                                <g transform="translate(2.202090, 52.632964)">
                                    <path d="M216.227134,156.726874 C216.227134,159.960677 214.294867,162.584045 211.911402,162.584045 L19.760526,162.584045 C17.3770612,162.584045 15.4447941,159.960677 15.4447941,156.726874 L15.4447941,6.40831486 C15.4447941,3.1740571 17.3770612,0.551599814 19.760526,0.551599814 L211.911402,0.551599814 C214.294867,0.551599814 216.227134,3.1740571 216.227134,6.40831486 L216.227134,156.726874 Z" id="Fill-3" fill="#FFFFFF" fill-rule="evenodd"></path>
                                    <rect id="Rectangle" fill="#E8E8E8" fill-rule="nonzero" x="0" y="158.309146" width="231.671917" height="11.0319961" rx="2.01892744"></rect>
                                </g>
                            </g>
                            <g id="Group-31" mask="url(#mask-2)">
                                <g transform="translate(34.056980, 99.932648)">
                                    <path d="M159.108089,18.3406947 L156.187434,18.3406947 L140.917385,18.3406947 L125.266994,18.3406947 L99.7558705,18.3406947 L73.5288265,18.3406947 C71.3053095,18.3406947 69.5015781,20.1585631 69.5015781,22.4016214 L69.5015781,51.9537411 L69.5015781,73.1624162 C69.5015781,75.0146912 70.7324479,76.5740366 72.413155,77.0623579 C72.7678283,77.165262 73.1415971,77.2239742 73.5288265,77.2239742 L159.108089,77.2239742 C161.332232,77.2239742 163.13565,75.4051589 163.13565,73.1624162 L163.13565,22.4016214 C163.13565,20.1585631 161.332232,18.3406947 159.108089,18.3406947" id="Fill-1" fill="#3498DB"></path>
                                    <path d="M99.8764641,18.3406947 L69.5015781,51.493702 L69.5015781,72.4121082 C69.5015781,74.2390324 70.7373542,75.7770361 72.4244463,76.258674 L125.488961,18.3406947 L99.8764641,18.3406947 Z" id="Fill-3" fill="#66B1E3"></path>
                                    <path d="M101.870392,61.0243117 C99.7545598,63.3333511 99.9294324,66.905249 102.260856,69.0010501 C104.591965,71.0974765 108.197686,70.9245721 110.313518,68.6145947 L156.378553,18.3406947 L140.980612,18.3406947 L101.870392,61.0243117 Z" id="Fill-5" fill="#66B1E3"></path>
                                    <g id="Group-11" stroke-width="1" fill="none" transform="translate(64.675081, 72.397475)">
                                        <mask id="mask-4" fill="white">
                                            <use xlink:href="#path-3"></use>
                                        </mask>
                                        <g id="Clip-10"></g>
                                    </g>
                                    <g id="Group-14" stroke-width="1" fill="none">
                                        <mask id="mask-6" fill="white">
                                            <use xlink:href="#path-5"></use>
                                        </mask>
                                        <g id="Clip-13"></g>
                                        <path d="M54.7363318,0.0472694802 L4.02968359,0.0472694802 C1.80402086,0.0472694802 -6.26417887e-05,1.89055904 -6.26417887e-05,4.16471478 L-6.26417887e-05,93.3779165 C-6.26417887e-05,95.6517577 1.80402086,97.4953618 4.02968359,97.4953618 L54.7363318,97.4953618 C56.9616814,97.4953618 58.7657649,95.6517577 58.7657649,93.3779165 L58.7657649,4.16471478 C58.7657649,1.89055904 56.9616814,0.0472694802 54.7363318,0.0472694802" id="Fill-12" fill="#E8E8E8" mask="url(#mask-6)"></path>
                                    </g>
                                    <path d="M50.2146434,5.79179802 L46.4209185,5.79179802 L37.1482652,5.79179802 L25.0210076,5.79179802 L8.66863791,5.79179802 C6.54646095,5.79179802 4.82649828,7.51897243 4.82649828,9.64935155 L4.82649828,28.8816552 L4.82649828,42.7473478 L4.82649828,53.0957492 C4.82649828,55.2255052 6.54646095,56.9526796 8.66863791,56.9526796 L50.2146434,56.9526796 C52.33651,56.9526796 54.0567831,55.2255052 54.0567831,53.0957492 L54.0567831,16.7016948 L54.0567831,9.64935155 C54.0567831,7.51897243 52.33651,5.79179802 50.2146434,5.79179802" id="Fill-15" fill="#3498DB"></path>
                                    <polygon id="Fill-17" fill="#66B1E3" points="25.3324195 5.79179802 4.82649828 28.7103596 4.82649828 42.4731875 37.6466869 5.79179802"></polygon>
                                    <path d="M50.1530456,5.79179802 L46.2984982,5.79179802 L19.9183084,35.603886 C17.6053908,38.2189485 17.8661655,42.1986499 20.5000853,44.4932836 L20.8154115,44.7683392 C23.4502772,47.0639116 27.4602804,46.8057536 29.7735134,44.1913169 L54.056784,16.7480243 L54.056784,9.6657329 C54.056784,7.52630699 52.3089309,5.79179802 50.1530456,5.79179802" id="Fill-19" fill="#66B1E3"></path>
                                </g>
                            </g>
                        </g>
                        <g id="Group-31" transform="translate(43.384186, 76.258676)">
                            <g id="Group-30">
                                <rect id="Rectangle" fill="#F39C12" fill-rule="nonzero" x="8.68769726" y="39.3014869" width="200.78234" height="20.960794"></rect>
                                <rect id="Rectangle" fill="#E8E8E8" fill-rule="nonzero" transform="translate(109.078867, 61.917080) scale(1, -1) translate(-109.078867, -61.917080) " x="8.68769726" y="60.2622808" width="200.78234" height="3.309599"></rect>
                                <rect id="Rectangle" fill="#FFFFFF" fill-rule="nonzero" x="105.769266" y="39.3014869" width="11.0319961" height="20.960794"></rect>
                                <g id="Group" transform="translate(21.926092, 39.301487)" fill="#FFFFFF" fill-rule="nonzero">
                                    <rect id="Rectangle" x="0" y="0" width="13.238396" height="20.960794"></rect>
                                    <rect id="Rectangle" x="134.590349" y="0" width="13.238396" height="20.960794"></rect>
                                    <rect id="Rectangle" x="52.953584" y="0" width="13.238396" height="20.960794"></rect>
                                    <rect id="Rectangle" x="107.010366" y="0" width="13.238396" height="20.960794"></rect>
                                    <rect id="Rectangle" x="26.476792" y="0" width="13.238396" height="20.960794"></rect>
                                    <rect id="Rectangle" x="161.067148" y="0" width="13.238396" height="20.960794"></rect>
                                    <rect id="Rectangle" x="80.5335742" y="0" width="13.238396" height="20.960794"></rect>
                                </g>
                                <g id="Group-2">
                                    <rect id="Rectangle" fill="#27AE61" fill-rule="nonzero" x="0" y="0" width="216.227129" height="44.4037838" rx="2.01892744"></rect>
                                    <g id="icons-pharma" transform="translate(11.583596, 8.687697)">
                                        <path d="M13.238396,26.476792 C5.92703178,26.476792 1.22568622e-13,20.5497602 1.22568622e-13,13.238396 C1.22568622e-13,5.92703178 5.92703178,1.22568622e-13 13.238396,1.22568622e-13 C20.5497602,1.22568622e-13 26.476792,5.92703178 26.476792,13.238396 C26.476792,20.5497602 20.5497602,26.476792 13.238396,26.476792 Z M17.9046393,11.1467899 L15.8819627,11.1467899 L15.8819627,9.12394674 C15.8819627,7.81583407 14.8210873,6.75709777 13.5141955,6.75709777 C12.2061906,6.75709777 11.1475415,7.81583407 11.1475415,9.12394674 L11.1475415,11.1467899 L9.12375178,11.1467899 C7.81574686,11.1467899 6.75709777,12.2055262 6.75709777,13.5136389 C6.75709777,14.8217516 7.81574686,15.8816012 9.12375178,15.8816012 L11.1475415,15.8816012 L11.1475415,17.9044443 C11.1475415,19.212557 12.2061906,20.2712933 13.5141955,20.2712933 C14.8210873,20.2712933 15.8819627,19.212557 15.8819627,17.9044443 L15.8819627,15.8816012 L17.9046393,15.8816012 C19.2126442,15.8816012 20.2712933,14.8217516 20.2712933,13.5136389 C20.2712933,12.2055262 19.2126442,11.1467899 17.9046393,11.1467899 Z" id="Combined-Shape" fill="#F8F8F9" fill-rule="nonzero"></path>
                                        <text id="PHARMACIE" font-family="Roboto-Black, Roboto" font-size="9.0851735" font-weight="700" letter-spacing="2.27129338" fill="#FFFFFF">
                                            <tspan x="41.5078868" y="15.9621452">PHARMACIE</tspan>
                                        </text>
                                    </g>
                                </g>
                            </g>
                        </g>
                        <g id="decoration" transform="translate(6.702800, 9.652997)" fill-rule="nonzero">
                            <path d="M282.364094,58.7194415 L280.727327,62.8173318 C280.417791,63.5923004 279.802187,64.2051956 279.025861,64.5113108 L274.947259,66.119555 C274.687936,66.2218095 274.560606,66.5149266 274.662861,66.7742502 C274.713816,66.9034755 274.815776,67.0059884 274.944724,67.0576413 L279.037475,68.6970809 C279.806855,69.0052727 280.416304,69.6153276 280.72373,70.3850143 L282.364094,74.4919117 C282.467492,74.7507818 282.761167,74.8768176 283.020038,74.7734204 C283.148481,74.7221181 283.250244,74.6203548 283.301546,74.4919117 L284.941911,70.3850143 C285.249337,69.6153276 285.858785,69.0052727 286.628166,68.6970809 L290.720917,67.0576413 C290.979684,66.9539865 291.105427,66.6601855 291.001772,66.4014184 C290.95012,66.2724704 290.847607,66.1705101 290.718381,66.119555 L286.639779,64.5113108 C285.863453,64.2051956 285.247849,63.5923004 284.938314,62.8173318 L283.301546,58.7194415 C283.198149,58.4605713 282.904473,58.3345355 282.645603,58.4379327 C282.51716,58.4892351 282.415397,58.5909983 282.364094,58.7194415 Z" id="Path-6" fill="#F39C12"></path>
                            <path d="M4.35780509,93.4502917 L3.54286255,95.4896065 C3.23319464,96.2645204 2.6174875,96.8773092 1.84111107,97.1832919 L-0.182557638,97.9808531 C-0.441898627,98.0830636 -0.569278012,98.3761591 -0.467067458,98.6355001 C-0.416112278,98.7647897 -0.31410458,98.8673501 -0.185092137,98.9190031 L1.85272024,99.7348867 C2.62215372,100.042947 3.23170668,100.652897 3.53926472,101.422531 L4.35780509,103.470849 C4.46124664,103.729702 4.75494396,103.855687 5.01379641,103.752246 C5.14217495,103.700944 5.24389064,103.599228 5.29519274,103.470849 L6.11373311,101.422531 C6.42129115,100.652897 7.03084411,100.042947 7.8002776,99.7348867 L9.83808997,98.9190031 C10.0968749,98.8153928 10.2226688,98.5216134 10.1190585,98.2628284 C10.0674055,98.133816 9.96484512,98.0318083 9.83555547,97.9808531 L7.81188677,97.1832919 C7.03551033,96.8773092 6.41980319,96.2645204 6.11013529,95.4896065 L5.29519274,93.4502917 C5.1917512,93.1914392 4.89805388,93.0654538 4.63920143,93.1688954 C4.51082289,93.2201975 4.40910719,93.3219132 4.35780509,93.4502917 Z" id="Path-6" fill="#FFFFFF"></path>
                            <path d="M124.537563,-0.101161368 L121.401805,7.75240085 C121.092361,8.52740754 120.47683,9.14037692 119.700539,9.44658452 L111.874131,12.5337075 C111.61482,12.6359928 111.487525,12.9291249 111.58981,13.1884364 C111.640765,13.3176168 111.742692,13.4200966 111.871595,13.4717494 L119.712156,16.6135455 C120.481499,16.9218295 121.090874,17.5319571 121.398208,18.3016802 L124.537563,26.1642522 C124.640929,26.4231348 124.93459,26.5492057 125.193472,26.4458395 C125.32196,26.3945369 125.423757,26.2927405 125.475059,26.1642522 L128.614415,18.3016802 C128.921749,17.5319571 129.531123,16.9218295 130.300466,16.6135455 L138.141027,13.4717494 C138.399782,13.3680636 138.52549,13.0742475 138.421804,12.8154928 C138.370151,12.6865899 138.267672,12.5846626 138.138491,12.5337075 L130.312084,9.44658452 C129.535793,9.14037692 128.920261,8.52740754 128.610817,7.75240085 L125.475059,-0.101161368 C125.371693,-0.360043913 125.078033,-0.486114809 124.81915,-0.382748596 C124.690662,-0.331446012 124.588865,-0.229649614 124.537563,-0.101161368 Z" id="Path-6" fill="#27AE61"></path>
                            <path d="M235.064338,5.03578933 L234.914628,5.41091126 C234.605304,6.18596728 233.989866,6.79903289 233.213621,7.10536048 L232.85228,7.24795539 C232.592985,7.35028061 232.465735,7.64343235 232.56806,7.90272811 C232.619015,8.03185009 232.720899,8.13428689 232.849744,8.18593954 L233.225242,8.33647364 C233.994537,8.6448772 234.603816,9.25509918 234.911031,10.0248695 L235.064338,10.4090048 C235.167664,10.6679034 235.461306,10.7940199 235.720204,10.6906938 C235.848751,10.639391 235.95059,10.5375516 236.001893,10.4090048 L236.155201,10.0248695 C236.462415,9.25509918 237.071695,8.6448772 237.840989,8.33647364 L238.216488,8.18593954 C238.475226,8.08221348 238.600889,7.78837784 238.497163,7.52963927 C238.44551,7.40079476 238.343073,7.29891046 238.213951,7.24795539 L237.852611,7.10536048 C237.076366,6.79903289 236.460927,6.18596728 236.151604,5.41091126 L236.001893,5.03578933 C235.898567,4.77689075 235.604926,4.65077426 235.346027,4.75410029 C235.217481,4.8054031 235.115641,4.90724256 235.064338,5.03578933 Z" id="Path-6" fill="#FFFFFF"></path>
                            <circle id="Oval" fill="#F39C12" cx="56.9526818" cy="13.5141955" r="8.68769726"></circle>
                            <circle id="Oval" fill="#3498DB" cx="281.867498" cy="125.48896" r="8.68769726"></circle>
                            <circle id="Oval" fill="#3498DB" cx="17.3753941" cy="138.037857" r="3.86119853"></circle>
                        </g>
                    </g>
                </g>
            </g>
        </g>
    </g>
</svg>