<svg width="109" height="151" viewBox="0 0 109 151" fill="none" xmlns="http://www.w3.org/2000/svg">
<path d="M59.9018 109H49.0832C40.064 109 32.7545 101.69 32.7545 92.669V81.6025C32.7545 78.6455 30.3578 76.241 27.3937 76.241H16.3287C7.30947 76.241 0 68.9305 0 59.91V49.09C0 40.0695 7.30947 32.759 16.3287 32.759H22.675C25.0045 32.759 26.8935 34.6482 26.8935 36.978C26.8935 39.3078 25.0045 41.197 22.675 41.197H16.3287C11.9684 41.197 8.4294 44.7365 8.4294 49.0974V59.9175C8.4294 64.2784 11.9684 67.8179 16.3287 67.8179H27.3937C35.0093 67.8179 41.1914 73.9934 41.1914 81.6175V92.684C41.1914 97.0449 44.7304 100.584 49.0907 100.584H59.9093C64.2696 100.584 67.8086 97.0449 67.8086 92.684V84.4998C67.8086 77.5926 65.1208 71.096 60.2378 66.2124L42.8116 48.7763C36.3383 42.2947 32.7695 33.6849 32.7695 24.5226V16.331C32.7695 7.31048 40.0789 0 49.0982 0H59.9168C68.936 0 76.2455 7.31048 76.2455 16.331V27.3975C76.2455 30.3545 78.6422 32.759 81.6063 32.759H92.6713C101.691 32.759 109 40.0695 109 49.09V59.91C109 68.9305 101.691 76.241 92.6713 76.241H86.3324C84.003 76.241 82.114 74.3518 82.114 72.022C82.114 69.6922 84.003 67.803 86.3324 67.803H92.6713C97.0316 67.803 100.571 64.2635 100.571 59.9026V49.0825C100.571 44.7216 97.0316 41.1821 92.6713 41.1821H81.5914C73.9758 41.1821 67.8012 35.0066 67.8012 27.39V16.331C67.8012 11.9701 64.2621 8.43057 59.9018 8.43057H49.0832C44.7229 8.43057 41.1839 11.9626 41.1839 16.331V24.5151C41.1839 31.4223 43.8718 37.9189 48.7547 42.8025L66.181 60.2311C72.6617 66.7053 76.2231 75.3225 76.2231 84.4849V92.669C76.2306 101.682 68.9211 109 59.9018 109Z" fill="#00916E"/>
<path d="M11.1313 145V127.025H14.5722L22.2242 139.71H20.4011L27.9248 127.025H31.34L31.3913 145H27.4882L27.4626 133.008H28.1816L22.1729 143.1H20.2984L14.1613 133.008H15.0344V145H11.1313ZM42.2295 145.205C40.6546 145.205 39.268 144.897 38.0696 144.281C36.8884 143.665 35.9726 142.826 35.3221 141.765C34.6716 140.686 34.3463 139.462 34.3463 138.093C34.3463 136.706 34.663 135.482 35.2964 134.421C35.9469 133.342 36.8285 132.503 37.9413 131.904C39.054 131.288 40.3122 130.98 41.7159 130.98C43.0683 130.98 44.2837 131.271 45.3622 131.853C46.4578 132.418 47.3223 133.239 47.9557 134.318C48.5891 135.379 48.9058 136.655 48.9058 138.144C48.9058 138.298 48.8973 138.478 48.8801 138.683C48.863 138.871 48.8459 139.051 48.8288 139.222H37.6074V136.886H46.7232L45.1825 137.579C45.1825 136.86 45.037 136.235 44.746 135.705C44.4549 135.174 44.0526 134.763 43.5391 134.472C43.0255 134.164 42.4264 134.01 41.7416 134.01C41.0569 134.01 40.4491 134.164 39.9185 134.472C39.4049 134.763 39.0026 135.182 38.7116 135.73C38.4206 136.261 38.2751 136.894 38.2751 137.63V138.247C38.2751 139 38.4377 139.668 38.763 140.25C39.1053 140.814 39.5761 141.251 40.1752 141.559C40.7915 141.85 41.5105 141.996 42.3322 141.996C43.0683 141.996 43.7103 141.884 44.2581 141.662C44.823 141.439 45.3366 141.105 45.7988 140.66L47.93 142.971C47.2966 143.69 46.5006 144.247 45.542 144.641C44.5833 145.017 43.4792 145.205 42.2295 145.205ZM57.5044 145.205C56.2033 145.205 55.0307 144.914 53.9865 144.332C52.9422 143.733 52.112 142.903 51.4957 141.842C50.8965 140.78 50.597 139.531 50.597 138.093C50.597 136.637 50.8965 135.379 51.4957 134.318C52.112 133.257 52.9422 132.435 53.9865 131.853C55.0307 131.271 56.2033 130.98 57.5044 130.98C58.6684 130.98 59.687 131.237 60.5601 131.75C61.4331 132.264 62.1093 133.043 62.5886 134.087C63.068 135.131 63.3076 136.466 63.3076 138.093C63.3076 139.702 63.0765 141.037 62.6143 142.098C62.1521 143.143 61.4845 143.922 60.6114 144.435C59.7555 144.949 58.7198 145.205 57.5044 145.205ZM58.1977 141.919C58.8482 141.919 59.4388 141.765 59.9695 141.456C60.5002 141.148 60.9196 140.712 61.2277 140.147C61.553 139.565 61.7156 138.88 61.7156 138.093C61.7156 137.288 61.553 136.603 61.2277 136.038C60.9196 135.473 60.5002 135.037 59.9695 134.729C59.4388 134.421 58.8482 134.267 58.1977 134.267C57.53 134.267 56.9309 134.421 56.4002 134.729C55.8695 135.037 55.4416 135.473 55.1163 136.038C54.8082 136.603 54.6541 137.288 54.6541 138.093C54.6541 138.88 54.8082 139.565 55.1163 140.147C55.4416 140.712 55.8695 141.148 56.4002 141.456C56.9309 141.765 57.53 141.919 58.1977 141.919ZM61.8183 145V142.175L61.8953 138.067L61.6385 133.984V125.947H65.6443V145H61.8183ZM69.3518 145V131.185H73.3576V145H69.3518ZM71.3547 129.259C70.6186 129.259 70.0194 129.045 69.5572 128.617C69.095 128.189 68.8639 127.659 68.8639 127.025C68.8639 126.392 69.095 125.861 69.5572 125.433C70.0194 125.005 70.6186 124.791 71.3547 124.791C72.0908 124.791 72.69 124.997 73.1522 125.408C73.6144 125.801 73.8455 126.315 73.8455 126.948C73.8455 127.616 73.6144 128.172 73.1522 128.617C72.7071 129.045 72.1079 129.259 71.3547 129.259ZM83.7516 145.205C82.2623 145.205 80.9356 144.906 79.7715 144.307C78.6074 143.69 77.6916 142.843 77.024 141.765C76.3734 140.686 76.0482 139.462 76.0482 138.093C76.0482 136.706 76.3734 135.482 77.024 134.421C77.6916 133.342 78.6074 132.503 79.7715 131.904C80.9356 131.288 82.2623 130.98 83.7516 130.98C85.2067 130.98 86.4735 131.288 87.552 131.904C88.6305 132.503 89.4265 133.368 89.9401 134.498L86.833 136.167C86.4735 135.516 86.0199 135.037 85.4721 134.729C84.9414 134.421 84.3593 134.267 83.7259 134.267C83.0412 134.267 82.4249 134.421 81.8771 134.729C81.3293 135.037 80.8928 135.473 80.5675 136.038C80.2594 136.603 80.1053 137.288 80.1053 138.093C80.1053 138.897 80.2594 139.582 80.5675 140.147C80.8928 140.712 81.3293 141.148 81.8771 141.456C82.4249 141.765 83.0412 141.919 83.7259 141.919C84.3593 141.919 84.9414 141.773 85.4721 141.482C86.0199 141.174 86.4735 140.686 86.833 140.018L89.9401 141.713C89.4265 142.826 88.6305 143.69 87.552 144.307C86.4735 144.906 85.2067 145.205 83.7516 145.205ZM96.8942 145.205C95.713 145.205 94.5746 145.068 93.479 144.795C92.4005 144.504 91.5446 144.144 90.9112 143.716L92.2465 140.84C92.8799 141.234 93.6245 141.559 94.4805 141.816C95.3535 142.056 96.2095 142.175 97.0483 142.175C97.9727 142.175 98.6232 142.064 98.9998 141.842C99.3935 141.619 99.5904 141.311 99.5904 140.917C99.5904 140.592 99.4363 140.352 99.1282 140.198C98.8372 140.027 98.4435 139.899 97.947 139.813C97.4506 139.727 96.9028 139.642 96.3036 139.556C95.7216 139.471 95.131 139.359 94.5318 139.222C93.9327 139.068 93.3849 138.846 92.8884 138.555C92.392 138.264 91.9897 137.87 91.6816 137.374C91.3905 136.877 91.245 136.235 91.245 135.448C91.245 134.575 91.4932 133.804 91.9897 133.137C92.5033 132.469 93.2394 131.947 94.198 131.57C95.1567 131.177 96.3036 130.98 97.6389 130.98C98.5804 130.98 99.5391 131.082 100.515 131.288C101.491 131.493 102.304 131.793 102.954 132.187L101.619 135.037C100.951 134.643 100.275 134.378 99.5904 134.241C98.9228 134.087 98.2723 134.01 97.6389 134.01C96.7487 134.01 96.0982 134.13 95.6873 134.369C95.2765 134.609 95.0711 134.917 95.0711 135.294C95.0711 135.636 95.2166 135.893 95.5076 136.064C95.8157 136.235 96.218 136.372 96.7145 136.475C97.2109 136.578 97.7501 136.672 98.3322 136.757C98.9313 136.826 99.5305 136.937 100.13 137.091C100.729 137.245 101.268 137.468 101.747 137.759C102.244 138.033 102.646 138.418 102.954 138.914C103.262 139.394 103.416 140.027 103.416 140.814C103.416 141.67 103.16 142.432 102.646 143.1C102.133 143.75 101.388 144.264 100.412 144.641C99.4535 145.017 98.2808 145.205 96.8942 145.205Z" fill="#00916E"/>
</svg>
