<svg width="36" height="36" viewBox="0 0 36 36" fill="none" xmlns="http://www.w3.org/2000/svg">
<path d="M3.5 33C2.675 33 1.9685 32.706 1.3805 32.118C0.792502 31.53 0.499003 30.824 0.500003 30V9C0.500003 8.175 0.794003 7.4685 1.382 6.8805C1.97 6.2925 2.676 5.999 3.5 6H24.5C25.325 6 26.0315 6.294 26.6195 6.882C27.2075 7.47 27.501 8.176 27.5 9V17.5125C26.8 17.1625 26.0685 16.906 25.3055 16.743C24.5425 16.58 23.774 16.499 23 16.5C22.275 16.5 21.5875 16.569 20.9375 16.707C20.2875 16.845 19.65 17.0385 19.025 17.2875C19.1 17.0375 19.1565 16.7875 19.1945 16.5375C19.2325 16.2875 19.251 16.025 19.25 15.75C19.25 14.3 18.7375 13.0625 17.7125 12.0375C16.6875 11.0125 15.45 10.5 14 10.5C12.55 10.5 11.3125 11.0125 10.2875 12.0375C9.2625 13.0625 8.75 14.3 8.75 15.75C8.75 17.2 9.2625 18.4375 10.2875 19.4625C11.3125 20.4875 12.55 21 14 21H14.375C14.05 21.45 13.769 21.9315 13.532 22.4445C13.295 22.9575 13.0885 23.4885 12.9125 24.0375C11.0625 24.1625 9.3435 24.6 7.7555 25.35C6.1675 26.1 4.749 27.075 3.5 28.275V30H12.95C13.125 30.55 13.325 31.075 13.55 31.575C13.775 32.075 14.05 32.55 14.375 33H3.5ZM21.5 34.5L21.05 32.25C20.75 32.125 20.4685 31.9935 20.2055 31.8555C19.9425 31.7175 19.674 31.549 19.4 31.35L17.225 32.025L15.725 29.475L17.45 27.975C17.4 27.625 17.375 27.3 17.375 27C17.375 26.7 17.4 26.375 17.45 26.025L15.725 24.525L17.225 21.975L19.4 22.65C19.675 22.45 19.944 22.2815 20.207 22.1445C20.47 22.0075 20.751 21.876 21.05 21.75L21.5 19.5H24.5L24.95 21.75C25.25 21.875 25.5315 22.0125 25.7945 22.1625C26.0575 22.3125 26.326 22.5 26.6 22.725L28.775 21.975L30.275 24.6L28.55 26.1C28.6 26.4 28.625 26.7125 28.625 27.0375C28.625 27.3625 28.6 27.675 28.55 27.975L30.275 29.475L28.775 32.025L26.6 31.35C26.325 31.55 26.0565 31.719 25.7945 31.857C25.5325 31.995 25.251 32.126 24.95 32.25L24.5 34.5H21.5ZM23 30C23.825 30 24.5315 29.706 25.1195 29.118C25.7075 28.53 26.001 27.824 26 27C26 26.175 25.706 25.4685 25.118 24.8805C24.53 24.2925 23.824 23.999 23 24C22.175 24 21.4685 24.294 20.8805 24.882C20.2925 25.47 19.999 26.176 20 27C20 27.825 20.294 28.5315 20.882 29.1195C21.47 29.7075 22.176 30.001 23 30Z" fill="#00916E"/>
</svg>
