<svg width="30" height="29" viewBox="0 0 30 29" fill="none" xmlns="http://www.w3.org/2000/svg">
<g clip-path="url(#clip0_306_5540)">
<path d="M10.3692 21.6097H19.3052M22.2839 27.5671H7.39047C5.81048 27.5671 4.2952 26.9394 3.17798 25.8222C2.06075 24.705 1.43311 23.1897 1.43311 21.6097V12.2388C1.43308 11.2144 1.69719 10.2074 2.19992 9.31486C2.70265 8.42237 3.42702 7.67458 4.30307 7.14371L11.7498 2.63101C12.6808 2.06684 13.7486 1.76855 14.8372 1.76855C15.9258 1.76855 16.9936 2.06684 17.9246 2.63101L25.3713 7.14371C26.2471 7.67445 26.9714 8.422 27.4741 9.31421C27.9768 10.2064 28.241 11.2132 28.2413 12.2373V21.6097C28.2413 23.1897 27.6136 24.705 26.4964 25.8222C25.3792 26.9394 23.8639 27.5671 22.2839 27.5671Z" stroke="#282828" stroke-width="3" stroke-linecap="round" stroke-linejoin="round"/>
</g>
<defs>
<clipPath id="clip0_306_5540">
<rect width="29.6744" height="29" fill="white"/>
</clipPath>
</defs>
</svg>
