<svg width="30" height="30" viewBox="0 0 30 30" fill="none" xmlns="http://www.w3.org/2000/svg">
<path fill-rule="evenodd" clip-rule="evenodd" d="M29.1524 6.94444C29.1524 8.65362 28.4735 10.2928 27.2649 11.5014C26.0563 12.7099 24.4172 13.3889 22.708 13.3889C20.9988 13.3889 19.3597 12.7099 18.1511 11.5014C16.9425 10.2928 16.2635 8.65362 16.2635 6.94444C16.2635 5.23527 16.9425 3.5961 18.1511 2.38753C19.3597 1.17897 20.9988 0.5 22.708 0.5C24.4172 0.5 26.0563 1.17897 27.2649 2.38753C28.4735 3.5961 29.1524 5.23527 29.1524 6.94444V6.94444ZM26.1574 7.73792C26.1094 7.94594 25.9808 8.12642 25.7999 8.23971C25.6189 8.35299 25.4004 8.38981 25.1923 8.34208L19.8628 7.11764C19.6545 7.06978 19.4737 6.94114 19.3603 6.76C19.2468 6.57887 19.2099 6.36008 19.2578 6.15178C19.3057 5.94347 19.4343 5.76271 19.6154 5.64925C19.7966 5.5358 20.0154 5.49895 20.2237 5.54681L25.5532 6.77206C25.6563 6.7958 25.7537 6.83962 25.8399 6.90101C25.926 6.9624 25.9992 7.04016 26.0553 7.12985C26.1114 7.21954 26.1493 7.3194 26.1668 7.42374C26.1844 7.52807 26.1811 7.63483 26.1574 7.73792V7.73792Z" fill="#282828"/>
<path d="M8.83472 3.11435C8.31353 1.88024 6.56869 1.75619 5.86866 2.90249L0.387662 11.8707C-0.244699 12.9051 0.461774 14.2262 1.69508 14.314L11.2538 14.9955C12.4863 15.0841 13.3837 13.8774 12.9133 12.7641L8.83472 3.11435Z" fill="#282828"/>
<path fill-rule="evenodd" clip-rule="evenodd" d="M23.8237 24.9569C24.9856 24.4152 25.8848 23.4342 26.3233 22.2295C26.7619 21.0249 26.704 19.6954 26.1623 18.5334C25.894 17.9581 25.5151 17.4413 25.0471 17.0124C24.5792 16.5835 24.0313 16.251 23.4348 16.0338C22.2302 15.5953 20.9007 15.6532 19.7388 16.1949L10.9775 20.2807C10.4023 20.5489 9.88546 20.9278 9.45662 21.3958C9.02779 21.8637 8.69532 22.4116 8.4782 23.008C8.26109 23.6044 8.16358 24.2378 8.19124 24.8719C8.2189 25.506 8.37119 26.1285 8.63941 26.7038C8.90763 27.2791 9.28654 27.7959 9.75449 28.2247C10.2224 28.6535 10.7703 28.986 11.3667 29.2031C11.9632 29.4202 12.5965 29.5177 13.2306 29.4901C13.8648 29.4624 14.4872 29.3101 15.0625 29.0419L23.8237 24.9561V24.9569ZM19.4399 25.2228L23.143 23.4965C23.9089 23.13 24.4992 22.476 24.7856 21.6768C25.0719 20.8775 25.0313 19.9975 24.6725 19.228C24.3136 18.4586 23.6656 17.8618 22.8692 17.5675C22.0728 17.2731 21.1925 17.305 20.4195 17.6562L16.7163 19.3825L19.4391 25.2228H19.4399Z" fill="#282828"/>
</svg>
