<svg width="35" height="35" viewBox="0 0 35 35" fill="none" xmlns="http://www.w3.org/2000/svg">
<path d="M20.6646 19.9938L22.7063 16.4647C22.8375 16.2459 22.7792 15.9688 22.5896 15.8084L20.4313 14.1167C20.475 13.7959 20.5042 13.4605 20.5042 13.1251C20.5042 12.7897 20.475 12.4542 20.4313 12.1188L22.5896 10.4272C22.7792 10.2667 22.8375 9.98966 22.7063 9.77091L20.6646 6.24175C20.5334 6.023 20.2709 5.9355 20.0375 6.023L17.5 7.04383C16.975 6.6355 16.4063 6.30008 15.7792 6.03758L15.4 3.33966C15.3756 3.22172 15.3117 3.1156 15.2189 3.03875C15.1262 2.96189 15.01 2.91887 14.8896 2.91675H10.8063C10.5584 2.91675 10.3396 3.10633 10.2959 3.35425L9.91669 6.05217C9.30419 6.31466 8.72086 6.65008 8.19586 7.05841L5.65836 6.03758C5.42503 5.95008 5.16253 6.03758 5.03128 6.25633L2.98961 9.7855C2.85836 10.0042 2.91669 10.2813 3.10628 10.4417L5.26461 12.1334C5.22086 12.4542 5.19169 12.7897 5.19169 13.1251C5.19169 13.4605 5.22086 13.7959 5.26461 14.1313L3.10628 15.823C2.91669 15.9834 2.85836 16.2605 2.98961 16.4792L5.03128 20.0084C5.16253 20.2272 5.42503 20.3147 5.65836 20.2272L8.19586 19.2063C8.72086 19.6147 9.28961 19.9501 9.91669 20.2126L10.2959 22.9105C10.3396 23.1438 10.5584 23.3334 10.8063 23.3334H14.8896C15.1375 23.3334 15.3563 23.1438 15.4 22.8959L15.7792 20.198C16.3917 19.9355 16.975 19.6001 17.5 19.1917L20.0375 20.2126C20.2709 20.3001 20.5334 20.2126 20.6646 19.9938ZM12.8479 16.0417C11.2438 16.0417 9.93128 14.7292 9.93128 13.1251C9.93128 11.5209 11.2438 10.2084 12.8479 10.2084C14.4521 10.2084 15.7646 11.5209 15.7646 13.1251C15.7646 14.7292 14.4521 16.0417 12.8479 16.0417ZM31.9667 27.2272L30.5667 26.148C30.5959 25.9438 30.625 25.7251 30.625 25.5063C30.625 25.2876 30.6104 25.0688 30.5667 24.8647L31.9521 23.7855C32.0688 23.6834 32.1125 23.5084 32.025 23.3626L30.7125 21.1022C30.6396 20.9563 30.4646 20.9126 30.3042 20.9563L28.6854 21.6126C28.35 21.3501 27.9854 21.1313 27.5771 20.9709L27.3292 19.2501C27.3234 19.1721 27.2889 19.0991 27.2323 19.0452C27.1757 18.9913 27.1011 18.9604 27.0229 18.9584H24.4125C24.2521 18.9584 24.1063 19.0751 24.0917 19.2355L23.8438 20.9563C23.45 21.1313 23.0709 21.3355 22.7354 21.598L21.1167 20.9417C21.0424 20.9138 20.9606 20.9131 20.8858 20.9398C20.811 20.9665 20.7482 21.0189 20.7084 21.0876L19.3959 23.348C19.3229 23.4938 19.3375 23.6688 19.4688 23.7709L20.8542 24.8501C20.7941 25.2757 20.7941 25.7078 20.8542 26.1334L19.4688 27.2126C19.3521 27.3147 19.3084 27.4897 19.3959 27.6355L20.7084 29.8959C20.7813 30.0417 20.9563 30.0855 21.1167 30.0417L22.7354 29.3855C23.0709 29.648 23.4354 29.8667 23.8438 30.0272L24.0917 31.748C24.1209 31.9084 24.2521 32.0251 24.4125 32.0251H27.0229C27.1834 32.0251 27.3292 31.9084 27.3438 31.748L27.5917 30.0272C27.9854 29.8522 28.3646 29.648 28.6854 29.3855L30.3188 30.0417C30.4646 30.1001 30.6396 30.0417 30.7271 29.8959L32.0396 27.6355C32.1271 27.5042 32.0834 27.3292 31.9667 27.2272ZM25.7104 27.4605C25.1881 27.4603 24.6872 27.2526 24.318 26.8831C23.9488 26.5136 23.7415 26.0126 23.7417 25.4903C23.7419 24.968 23.9496 24.4671 24.3191 24.0979C24.6885 23.7287 25.1896 23.5213 25.7119 23.5215C26.2342 23.5217 26.7351 23.7294 27.1043 24.0989C27.4735 24.4684 27.6808 24.9694 27.6807 25.4917C27.6805 26.0141 27.4728 26.515 27.1033 26.8842C26.7338 27.2534 26.2328 27.4607 25.7104 27.4605Z" fill="#00916E"/>
</svg>
