<svg width="25" height="24" viewBox="0 0 25 24" fill="none" xmlns="http://www.w3.org/2000/svg">
<g clip-path="url(#clip0_497_5933)">
<path d="M8.92083 21H4.3071C4.19817 20.9997 4.09378 20.9566 4.01676 20.8799C3.93973 20.8033 3.89634 20.6994 3.89608 20.591V3.409C3.89634 3.30061 3.93973 3.19673 4.01676 3.12009C4.09378 3.04344 4.19817 3.00026 4.3071 3H8.92083C9.32062 3 9.70404 2.84196 9.98674 2.56066C10.2694 2.27936 10.4283 1.89782 10.4283 1.5C10.4283 1.10218 10.2694 0.720644 9.98674 0.43934C9.70404 0.158035 9.32062 0 8.92083 0L4.3071 0C3.39883 0.00105862 2.52806 0.36056 1.88582 0.999642C1.24357 1.63872 0.882289 2.5052 0.881226 3.409L0.881226 20.591C0.882289 21.4948 1.24357 22.3613 1.88582 23.0004C2.52806 23.6394 3.39883 23.9989 4.3071 24H8.92083C9.32062 24 9.70404 23.842 9.98674 23.5607C10.2694 23.2794 10.4283 22.8978 10.4283 22.5C10.4283 22.1022 10.2694 21.7206 9.98674 21.4393C9.70404 21.158 9.32062 21 8.92083 21Z" fill="#FD5A55"/>
<path d="M23.6757 8.81727L19.7744 4.93827C19.6344 4.79901 19.4682 4.68855 19.2853 4.6132C19.1024 4.53785 18.9063 4.4991 18.7083 4.49915C18.5104 4.49919 18.3143 4.53804 18.1314 4.61347C17.9486 4.6889 17.7824 4.79944 17.6424 4.93877C17.5025 5.0781 17.3915 5.2435 17.3158 5.42553C17.24 5.60755 17.2011 5.80263 17.2011 5.99963C17.2012 6.39748 17.3602 6.77901 17.6429 7.06027L21.0718 10.4713L7.41355 10.4993C7.01376 10.4993 6.63034 10.6573 6.34764 10.9386C6.06495 11.2199 5.90613 11.6014 5.90613 11.9993C5.90613 12.3971 6.06495 12.7786 6.34764 13.0599C6.63034 13.3412 7.01376 13.4993 7.41355 13.4993L21.1271 13.4743L17.6429 16.9413C17.3768 17.2257 17.232 17.6019 17.2391 17.9905C17.2462 18.3791 17.4045 18.7498 17.6809 19.0245C17.9572 19.2992 18.3299 19.4564 18.7204 19.4631C19.1109 19.4698 19.4888 19.3254 19.7744 19.0603L23.6726 15.1813C24.0926 14.7634 24.4257 14.2673 24.653 13.7214C24.8802 13.1754 24.9972 12.5902 24.9972 11.9993C24.9972 11.4083 24.8802 10.8232 24.653 10.2772C24.4257 9.73122 24.0926 9.23514 23.6726 8.81727H23.6757Z" fill="#FD5A55"/>
</g>
<defs>
<clipPath id="clip0_497_5933">
<rect width="24.1188" height="24" fill="white" transform="translate(0.881226)"/>
</clipPath>
</defs>
</svg>
