<svg width="27" height="30" viewBox="0 0 27 30" fill="none" xmlns="http://www.w3.org/2000/svg">
<path d="M1.71387 28.0502V26.4189C1.71387 23.3905 2.91691 20.4861 5.05834 18.3447C7.19977 16.2032 10.1042 15.0002 13.1326 15.0002V15.0002C16.1611 15.0002 19.0655 16.2032 21.2069 18.3447C23.3483 20.4861 24.5514 23.3905 24.5514 26.4189V28.0502M13.1326 15.0002C14.8631 15.0002 16.5228 14.3127 17.7465 13.0891C18.9702 11.8654 19.6576 10.2057 19.6576 8.47519C19.6576 6.74466 18.9702 5.085 17.7465 3.86132C16.5228 2.63765 14.8631 1.9502 13.1326 1.9502C11.4021 1.9502 9.74242 2.63765 8.51874 3.86132C7.29507 5.085 6.60761 6.74466 6.60761 8.47519C6.60761 10.2057 7.29507 11.8654 8.51874 13.0891C9.74242 14.3127 11.4021 15.0002 13.1326 15.0002V15.0002Z" stroke="#282828" stroke-width="3" stroke-linecap="round" stroke-linejoin="round"/>
</svg>
