<svg width="214" height="193" viewBox="0 0 214 193" fill="none" xmlns="http://www.w3.org/2000/svg">
<path d="M112.187 129.668H99.3306C88.6121 129.668 79.9255 120.971 79.9255 110.24V97.0756C79.9255 93.5578 77.0773 90.6975 73.5548 90.6975H60.4051C49.6866 90.6975 41 82.0008 41 71.2699V58.3981C41 47.6672 49.6866 38.9706 60.4051 38.9706H67.9471C70.7154 38.9706 72.9603 41.218 72.9603 43.9896C72.9603 46.7612 70.7154 49.0086 67.9471 49.0086H60.4051C55.2233 49.0086 51.0175 53.2192 51.0175 58.407V71.2788C51.0175 76.4666 55.2233 80.6772 60.4051 80.6772H73.5548C82.6051 80.6772 89.9519 88.0236 89.9519 97.0934V110.258C89.9519 115.446 94.1577 119.657 99.3395 119.657H112.196C117.378 119.657 121.584 115.446 121.584 110.258V100.522C121.584 92.3053 118.39 84.5769 112.587 78.7673L91.8774 58.0251C84.1846 50.3144 79.9433 40.0721 79.9433 29.1724V19.4276C79.9433 8.69665 88.6299 0 99.3484 0H112.205C122.924 0 131.61 8.69665 131.61 19.4276V32.5925C131.61 36.1102 134.459 38.9706 137.981 38.9706H151.131C161.849 38.9706 170.536 47.6672 170.536 58.3981V71.2699C170.536 82.0008 161.849 90.6975 151.131 90.6975H143.598C140.829 90.6975 138.584 88.45 138.584 85.6784C138.584 82.9069 140.829 80.6594 143.598 80.6594H151.131C156.313 80.6594 160.518 76.4488 160.518 71.261V58.3893C160.518 53.2015 156.313 48.9908 151.131 48.9908H137.963C128.913 48.9908 121.575 41.6444 121.575 32.5836V19.4276C121.575 14.2398 117.369 10.0291 112.187 10.0291H99.3306C94.1488 10.0291 89.9431 14.2309 89.9431 19.4276V29.1635C89.9431 37.3805 93.1373 45.1089 98.9402 50.9185L119.65 71.6519C127.351 79.3536 131.584 89.6048 131.584 100.505V110.24C131.593 120.963 122.906 129.668 112.187 129.668Z" fill="#00916E"/>
<path d="M0.691529 180V144.92H7.40687L22.341 169.676H18.7829L33.4664 144.92H40.1316L40.2318 180H32.6144L32.5643 156.597H33.9675L22.2407 176.292H18.5824L6.60504 156.597H8.30893V180H0.691529ZM61.3841 180.401C58.3104 180.401 55.6042 179.8 53.2655 178.597C50.9603 177.394 49.1728 175.757 47.9033 173.686C46.6337 171.581 45.9989 169.192 45.9989 166.519C45.9989 163.813 46.617 161.424 47.8532 159.353C49.1227 157.248 50.8433 155.611 53.0149 154.442C55.1866 153.239 57.6422 152.638 60.3818 152.638C63.0211 152.638 65.3932 153.205 67.498 154.341C69.6362 155.444 71.3234 157.048 72.5596 159.152C73.7957 161.224 74.4138 163.713 74.4138 166.619C74.4138 166.92 74.3971 167.271 74.3637 167.672C74.3303 168.039 74.2969 168.39 74.2635 168.724H52.3635V164.164H70.1541L67.1472 165.517C67.1472 164.114 66.8632 162.894 66.2953 161.859C65.7273 160.823 64.9422 160.021 63.9399 159.453C62.9376 158.852 61.7683 158.551 60.4319 158.551C59.0955 158.551 57.9095 158.852 56.8738 159.453C55.8715 160.021 55.0863 160.84 54.5184 161.909C53.9504 162.944 53.6664 164.181 53.6664 165.617V166.82C53.6664 168.29 53.9838 169.593 54.6186 170.729C55.2868 171.831 56.2056 172.683 57.3749 173.285C58.5776 173.853 59.9809 174.137 61.5845 174.137C63.0211 174.137 64.274 173.919 65.3431 173.485C66.4456 173.051 67.4479 172.399 68.35 171.531L72.5095 176.041C71.2733 177.444 69.7198 178.53 67.8488 179.298C65.9779 180.033 63.823 180.401 61.3841 180.401ZM91.1951 180.401C88.656 180.401 86.3674 179.833 84.3294 178.697C82.2915 177.528 80.6711 175.907 79.4683 173.836C78.299 171.765 77.7143 169.326 77.7143 166.519C77.7143 163.679 78.299 161.224 79.4683 159.152C80.6711 157.081 82.2915 155.477 84.3294 154.341C86.3674 153.205 88.656 152.638 91.1951 152.638C93.467 152.638 95.4549 153.139 97.1587 154.141C98.8626 155.143 100.182 156.663 101.118 158.701C102.053 160.739 102.521 163.345 102.521 166.519C102.521 169.66 102.07 172.266 101.168 174.337C100.266 176.375 98.9629 177.895 97.259 178.897C95.5885 179.9 93.5672 180.401 91.1951 180.401ZM92.5482 173.986C93.8178 173.986 94.9704 173.686 96.0061 173.084C97.0418 172.483 97.8603 171.631 98.4617 170.528C99.0965 169.392 99.4139 168.056 99.4139 166.519C99.4139 164.949 99.0965 163.613 98.4617 162.51C97.8603 161.408 97.0418 160.556 96.0061 159.954C94.9704 159.353 93.8178 159.052 92.5482 159.052C91.2452 159.052 90.0759 159.353 89.0402 159.954C88.0045 160.556 87.1693 161.408 86.5345 162.51C85.9331 163.613 85.6324 164.949 85.6324 166.519C85.6324 168.056 85.9331 169.392 86.5345 170.528C87.1693 171.631 88.0045 172.483 89.0402 173.084C90.0759 173.686 91.2452 173.986 92.5482 173.986ZM99.6144 180V174.487L99.7647 166.469L99.2635 158.501V142.815H107.081V180H99.6144ZM114.317 180V153.038H122.135V180H114.317ZM118.226 149.28C116.789 149.28 115.62 148.862 114.718 148.027C113.816 147.192 113.365 146.156 113.365 144.92C113.365 143.684 113.816 142.648 114.718 141.813C115.62 140.978 116.789 140.56 118.226 140.56C119.663 140.56 120.832 140.961 121.734 141.763C122.636 142.531 123.087 143.533 123.087 144.77C123.087 146.073 122.636 147.158 121.734 148.027C120.865 148.862 119.696 149.28 118.226 149.28ZM142.42 180.401C139.514 180.401 136.924 179.816 134.653 178.647C132.381 177.444 130.593 175.79 129.29 173.686C128.021 171.581 127.386 169.192 127.386 166.519C127.386 163.813 128.021 161.424 129.29 159.353C130.593 157.248 132.381 155.611 134.653 154.442C136.924 153.239 139.514 152.638 142.42 152.638C145.26 152.638 147.732 153.239 149.837 154.442C151.942 155.611 153.496 157.298 154.498 159.503L148.434 162.761C147.732 161.491 146.847 160.556 145.778 159.954C144.742 159.353 143.606 159.052 142.37 159.052C141.034 159.052 139.831 159.353 138.762 159.954C137.693 160.556 136.841 161.408 136.206 162.51C135.605 163.613 135.304 164.949 135.304 166.519C135.304 168.089 135.605 169.426 136.206 170.528C136.841 171.631 137.693 172.483 138.762 173.084C139.831 173.686 141.034 173.986 142.37 173.986C143.606 173.986 144.742 173.702 145.778 173.134C146.847 172.533 147.732 171.581 148.434 170.278L154.498 173.585C153.496 175.757 151.942 177.444 149.837 178.647C147.732 179.816 145.26 180.401 142.42 180.401ZM175.537 180V174.738L175.036 173.585V164.164C175.036 162.493 174.518 161.19 173.482 160.255C172.48 159.319 170.926 158.852 168.822 158.852C167.385 158.852 165.965 159.086 164.562 159.553C163.192 159.988 162.023 160.589 161.054 161.357L158.247 155.895C159.718 154.859 161.488 154.057 163.56 153.489C165.631 152.921 167.736 152.638 169.874 152.638C173.983 152.638 177.174 153.606 179.446 155.544C181.718 157.482 182.854 160.505 182.854 164.615V180H175.537ZM167.318 180.401C165.213 180.401 163.409 180.05 161.906 179.349C160.402 178.613 159.25 177.628 158.448 176.392C157.646 175.156 157.245 173.769 157.245 172.232C157.245 170.629 157.629 169.225 158.398 168.023C159.2 166.82 160.453 165.884 162.156 165.216C163.86 164.515 166.082 164.164 168.822 164.164H175.988V168.724H169.674C167.836 168.724 166.566 169.025 165.865 169.626C165.197 170.228 164.863 170.979 164.863 171.881C164.863 172.884 165.247 173.686 166.015 174.287C166.817 174.855 167.903 175.139 169.273 175.139C170.576 175.139 171.745 174.838 172.781 174.237C173.816 173.602 174.568 172.683 175.036 171.481L176.239 175.089C175.671 176.826 174.635 178.146 173.131 179.048C171.628 179.95 169.69 180.401 167.318 180.401ZM189.929 180V142.815H197.747V180H189.929ZM205.003 180V153.038H212.821V180H205.003ZM208.912 149.28C207.475 149.28 206.306 148.862 205.404 148.027C204.502 147.192 204.051 146.156 204.051 144.92C204.051 143.684 204.502 142.648 205.404 141.813C206.306 140.978 207.475 140.56 208.912 140.56C210.348 140.56 211.518 140.961 212.42 141.763C213.322 142.531 213.773 143.533 213.773 144.77C213.773 146.073 213.322 147.158 212.42 148.027C211.551 148.862 210.382 149.28 208.912 149.28Z" fill="#00916E"/>
</svg>

