<svg width="130" height="130" viewBox="0 0 130 130" fill="none" xmlns="http://www.w3.org/2000/svg">
<path d="M71.1875 129.668H58.3306C47.6121 129.668 38.9255 120.971 38.9255 110.24V97.0756C38.9255 93.5578 36.0773 90.6975 32.5548 90.6975H19.4051C8.68659 90.6975 0 82.0008 0 71.2699V58.3981C0 47.6672 8.68659 38.9706 19.4051 38.9706H26.9471C29.7154 38.9706 31.9603 41.218 31.9603 43.9896C31.9603 46.7612 29.7154 49.0086 26.9471 49.0086H19.4051C14.2233 49.0086 10.0175 53.2192 10.0175 58.407V71.2788C10.0175 76.4666 14.2233 80.6772 19.4051 80.6772H32.5548C41.6051 80.6772 48.9519 88.0236 48.9519 97.0934V110.258C48.9519 115.446 53.1577 119.657 58.3395 119.657H71.1963C76.3781 119.657 80.5839 115.446 80.5839 110.258V100.522C80.5839 92.3053 77.3896 84.5769 71.5868 78.7673L50.8774 58.0251C43.1846 50.3144 38.9433 40.0721 38.9433 29.1724V19.4276C38.9433 8.69665 47.6299 0 58.3484 0H71.2052C81.9237 0 90.6103 8.69665 90.6103 19.4276V32.5925C90.6103 36.1102 93.4585 38.9706 96.9811 38.9706H110.131C120.849 38.9706 129.536 47.6672 129.536 58.3981V71.2699C129.536 82.0008 120.849 90.6975 110.131 90.6975H102.598C99.8293 90.6975 97.5844 88.45 97.5844 85.6784C97.5844 82.9069 99.8293 80.6594 102.598 80.6594H110.131C115.313 80.6594 119.518 76.4488 119.518 71.261V58.3893C119.518 53.2015 115.313 48.9908 110.131 48.9908H96.9633C87.913 48.9908 80.575 41.6444 80.575 32.5836V19.4276C80.575 14.2398 76.3692 10.0291 71.1875 10.0291H58.3306C53.1488 10.0291 48.9431 14.2309 48.9431 19.4276V29.1635C48.9431 37.3805 52.1373 45.1089 57.9402 50.9185L78.6496 71.6519C86.3513 79.3536 90.5837 89.6048 90.5837 100.505V110.24C90.5926 120.963 81.906 129.668 71.1875 129.668Z" fill="#00916E"/>
</svg>