<?xml version="1.0" encoding="UTF-8"?>
<svg version="1.1" xmlns="http://www.w3.org/2000/svg" width="1024" height="1024">
<path d="M0 0 C4.26295429 3.41036343 6.29860568 5.26848503 7.1875 10.75 C8.1775 11.245 8.1775 11.245 9.1875 11.75 C9.21458567 13.35407328 9.23393483 14.9582785 9.25 16.5625 C9.26160156 17.45582031 9.27320313 18.34914063 9.28515625 19.26953125 C9.1875 21.75 9.1875 21.75 8.1875 24.75 C8.98929688 24.77578125 9.79109375 24.8015625 10.6171875 24.828125 C33.10127221 25.94978002 54.5224368 33.00943679 74.1875 43.75 C75.23421875 44.31589844 76.2809375 44.88179688 77.359375 45.46484375 C89.30607121 52.18090974 99.96148367 60.14778925 109.859375 69.59765625 C111.98850516 71.76666666 111.98850516 71.76666666 114.1875 72.75 C114.1875 73.41 114.1875 74.07 114.1875 74.75 C115.1775 75.08 116.1675 75.41 117.1875 75.75 C119.76788237 78.17944078 121.93412358 81.01971851 124.1875 83.75 C124.85628174 84.54446533 124.85628174 84.54446533 125.53857422 85.35498047 C132.27390871 93.37194645 138.16012772 101.50543976 143.34765625 110.60546875 C145.00988669 113.62210139 145.00988669 113.62210139 146.69140625 115.625 C149.06656584 118.99859482 150.49133678 122.76163815 152.0625 126.5625 C152.41473633 127.41199219 152.76697266 128.26148438 153.12988281 129.13671875 C160.1796523 146.35082132 166.51165675 165.41071419 166.25 184.25 C166.24097656 185.1059375 166.23195313 185.961875 166.22265625 186.84375 C166.20525391 187.78734375 166.20525391 187.78734375 166.1875 188.75 C163.14200136 190.27274932 159.97423099 189.88700352 156.63342285 189.87698364 C155.84499953 189.87854363 155.0565762 189.88010362 154.24426126 189.88171089 C151.58795234 189.88571692 148.93170003 189.88253276 146.27539062 189.87939453 C144.37688666 189.88074875 142.47838296 189.88252879 140.57987976 189.88470459 C135.41266681 189.8892765 130.24547374 189.88749035 125.07826042 189.8843255 C119.68063171 189.88180066 114.28300475 189.88413979 108.88537598 189.88571167 C99.81957695 189.887533 90.75378607 189.88512801 81.68798828 189.88037109 C71.19405989 189.87492855 60.70015093 189.87669123 50.20622301 189.8821975 C41.21004587 189.88672967 32.21387458 189.88737867 23.21769667 189.88475883 C17.83867544 189.88319663 12.45966335 189.88300074 7.0806427 189.88629532 C2.02462157 189.88917553 -3.03137441 189.88719555 -8.08739281 189.88140106 C-9.94744513 189.88007427 -11.80749955 189.88046621 -13.66755104 189.88266373 C-16.1978706 189.88537839 -18.72810855 189.88199017 -21.25842285 189.87698364 C-22.00218595 189.87921436 -22.74594905 189.88144509 -23.51225042 189.88374341 C-28.58419985 189.86415007 -28.58419985 189.86415007 -30.8125 188.75 C-31.1425 189.41 -31.4725 190.07 -31.8125 190.75 C-32.62125485 190.50601219 -32.62125485 190.50601219 -33.44634819 190.25709534 C-36.24723738 189.65683045 -38.80489101 189.63036016 -41.67092896 189.63647461 C-42.86834717 189.6365451 -44.06576538 189.6366156 -45.29946899 189.63668823 C-46.60975067 189.64185455 -47.92003235 189.64702087 -49.27001953 189.65234375 C-50.66636095 189.65426329 -52.06270306 189.65572692 -53.45904541 189.6567688 C-56.46341351 189.65992809 -59.46775346 189.66619397 -62.47211075 189.67483521 C-67.21967611 189.68835251 -71.9672321 189.69425043 -76.71481323 189.69897461 C-86.78905466 189.71007457 -96.86327372 189.72961893 -106.9375 189.75 C-117.81977202 189.77200486 -128.70203495 189.79258092 -139.58432472 189.80341816 C-144.30715073 189.80841083 -149.02993417 189.81828535 -153.75274301 189.83184814 C-156.68531232 189.83928772 -159.6178757 189.84261933 -162.55045319 189.8448143 C-164.56583902 189.84759023 -166.58121596 189.85538982 -168.59658813 189.86331177 C-169.7883667 189.86338226 -170.98014526 189.86345276 -172.20803833 189.86352539 C-173.76821528 189.86685631 -173.76821528 189.86685631 -175.35991096 189.87025452 C-177.8125 189.75 -177.8125 189.75 -179.8125 188.75 C-176.77436312 163.66436981 -171.65839177 140.94503889 -159.74121094 118.50585938 C-158.91601285 116.94570568 -158.11628073 115.37214197 -157.3203125 113.796875 C-151.65084454 102.8423098 -144.28509968 92.9751068 -135.8828125 83.97265625 C-134.01624044 81.96873266 -132.25633926 79.91247085 -130.5 77.8125 C-118.00667378 63.57525411 -102.44538605 52.60451028 -85.8125 43.75 C-84.18634766 42.85861328 -84.18634766 42.85861328 -82.52734375 41.94921875 C-64.19114092 32.27713983 -44.17389075 27.09225853 -23.8125 23.75 C-23.78671875 22.73679687 -23.7609375 21.72359375 -23.734375 20.6796875 C-23.67805819 19.32808403 -23.62071167 17.97652319 -23.5625 16.625 C-23.54832031 15.95984375 -23.53414062 15.2946875 -23.51953125 14.609375 C-23.27277001 9.57544578 -21.92284765 6.66565342 -18.8125 2.75 C-13.51426238 -1.906027 -6.44906281 -2.86625014 0 0 Z M-59.8125 58.75 C-59.4825 59.41 -59.1525 60.07 -58.8125 60.75 C-58.4825 60.09 -58.1525 59.43 -57.8125 58.75 C-58.4725 58.75 -59.1325 58.75 -59.8125 58.75 Z M-64.8125 60.75 C-64.4825 61.41 -64.1525 62.07 -63.8125 62.75 C-62.4925 62.09 -61.1725 61.43 -59.8125 60.75 C-61.4625 60.75 -63.1125 60.75 -64.8125 60.75 Z M-66.8125 61.75 C-67.4725 62.41 -68.1325 63.07 -68.8125 63.75 C-67.4925 64.08 -66.1725 64.41 -64.8125 64.75 C-64.4825 64.09 -64.1525 63.43 -63.8125 62.75 C-64.8025 62.42 -65.7925 62.09 -66.8125 61.75 Z M-72.8125 65.75 C-70.3375 66.245 -70.3375 66.245 -67.8125 66.75 C-68.1425 65.76 -68.4725 64.77 -68.8125 63.75 C-70.27475016 63.65754997 -70.27475016 63.65754997 -72.8125 65.75 Z M-98.96679688 81.74438477 C-100.58918097 83.07122364 -102.20238105 84.40832176 -103.8125 85.75 C-104.60785156 86.40226562 -105.40320313 87.05453125 -106.22265625 87.7265625 C-110.91121392 91.68337995 -114.89264587 96.04119218 -118.8125 100.75 C-119.5240625 101.57371094 -120.235625 102.39742187 -120.96875 103.24609375 C-132.72743653 117.11892768 -149.8125 142.52244493 -149.8125 161.75 C-143.2125 161.75 -136.6125 161.75 -129.8125 161.75 C-129.1525 159.5225 -128.4925 157.295 -127.8125 155 C-118.72485526 125.62880597 -103.76936002 99.3829732 -81.17578125 78.23828125 C-79.58734611 76.84058422 -79.58734611 76.84058422 -79.8125 74.75 C-79.07 74.523125 -78.3275 74.29625 -77.5625 74.0625 C-74.30110409 72.50592468 -72.88355025 70.66481146 -70.8125 67.75 C-80.09969441 64.63697394 -92.00233845 76.13975405 -98.96679688 81.74438477 Z " fill="#F8F6F3" transform="translate(518.8125,244.25)"/>
<path d="M0 0 C0.74747538 -0.00205263 1.49495076 -0.00410527 2.26507691 -0.0062201 C4.765716 -0.0118673 7.26629961 -0.01043569 9.76694393 -0.00901413 C11.57949716 -0.01159904 13.39204983 -0.01461256 15.20460171 -0.01801753 C20.18249634 -0.02607537 25.16037655 -0.02787642 30.13827693 -0.028615 C35.50778424 -0.03046757 40.87728409 -0.03801572 46.24678707 -0.04475021 C57.98400338 -0.05832339 69.72121626 -0.0643561 81.45843911 -0.06876087 C88.78489679 -0.07152388 96.11135315 -0.07576123 103.43780994 -0.08026505 C123.71818013 -0.09245424 143.99854926 -0.10275564 164.27892303 -0.10614014 C165.57644916 -0.1063597 166.87397528 -0.10657927 168.21082037 -0.10680549 C169.51145308 -0.10702377 170.81208579 -0.10724204 172.15213162 -0.10746694 C174.78772803 -0.1079104 177.42332445 -0.10835697 180.05892086 -0.10880661 C182.01994213 -0.10913875 182.01994213 -0.10913875 184.02057999 -0.10947761 C205.22307093 -0.11342901 226.42552758 -0.13089502 247.62800527 -0.15416613 C269.39003603 -0.177859 291.15204956 -0.19034097 312.91409343 -0.19150805 C325.13540322 -0.19242575 337.35666826 -0.19820217 349.57796574 -0.21632767 C359.97983423 -0.23170048 370.38164415 -0.23686565 380.78352184 -0.22858956 C386.09258153 -0.22467364 391.40152314 -0.22565868 396.71056843 -0.23964691 C401.56803254 -0.2523287 406.42528915 -0.25123893 411.28275274 -0.2390562 C413.04239832 -0.23708929 414.80205832 -0.24022316 416.5616836 -0.24890056 C418.94958941 -0.25993326 421.33675512 -0.25254775 423.72463989 -0.24050903 C424.75445684 -0.25190182 424.75445684 -0.25190182 425.80507818 -0.26352477 C430.34122968 -0.21399836 433.43745442 0.76995287 437.29939938 3.13142776 C440.28297433 7.38497923 440.15411993 12.16336452 439.29939938 17.13142776 C432.64339105 33.93784878 419.62123392 46.91012977 403.48689938 54.63142776 C393.45509096 58.87106108 384.14579734 59.8550314 373.29939938 60.13142776 C371.92872311 60.1817012 371.92872311 60.1817012 370.53035641 60.23299026 C353.4772395 60.73581294 353.4772395 60.73581294 348.65877438 57.18611526 C346.91610394 54.58839625 345.63898161 51.95509528 344.29939938 49.13142776 C338.57415703 41.65836193 330.04792058 31.79026704 320.29939938 30.13142776 C320.62939938 29.80142776 320.95939938 29.47142776 321.29939938 29.13142776 C319.65971188 28.66736526 319.65971188 28.66736526 317.98689938 28.19392776 C314.23490178 27.11284371 311.55306684 26.3005394 308.29939938 24.13142776 C305.08826398 24.10779804 305.08826398 24.10779804 301.61189938 24.50642776 C300.43240719 24.61728714 299.252915 24.72814651 298.03768063 24.84236526 C296.68223141 24.9854512 296.68223141 24.9854512 295.29939938 25.13142776 C294.96939938 24.14142776 294.63939938 23.15142776 294.29939938 22.13142776 C271.72179119 21.1294629 252.83135492 24.83095197 235.10408688 39.74861526 C233.29939938 41.13142776 233.29939938 41.13142776 230.29939938 42.13142776 C229.96939938 43.12142776 229.63939938 44.11142776 229.29939938 45.13142776 C228.15480813 46.27601901 227.0055669 47.41642598 225.83064938 48.52986526 C223.26323345 51.21517274 221.139181 54.24629631 218.94783688 57.24080276 C217.29939938 59.13142776 217.29939938 59.13142776 214.29939938 60.13142776 C212.09363507 60.22986979 209.88496192 60.26645765 207.67700863 60.27186966 C207.00080906 60.27484078 206.32460949 60.2778119 205.62791902 60.28087306 C203.35718581 60.2895596 201.08650532 60.29106827 198.8157568 60.29256058 C197.18960107 60.29718879 195.56344643 60.30221345 193.93729305 60.30760574 C189.51572166 60.32073151 185.09416545 60.32717505 180.67257762 60.3316164 C177.91044488 60.33454685 175.1483163 60.3386516 172.38618565 60.34312057 C163.7449639 60.35679599 155.10375164 60.36646242 146.46251982 60.37032247 C136.48591081 60.37480344 126.50943878 60.39235297 116.53287143 60.42132306 C108.82237472 60.44293607 101.11191657 60.45302654 93.4013899 60.45436358 C88.79574209 60.45541189 84.19022305 60.46132509 79.58460712 60.4791832 C75.25160456 60.49565728 70.91882765 60.49782263 66.58580494 60.48904419 C64.99672243 60.48827346 63.40762783 60.49262132 61.81857586 60.50250244 C59.64636253 60.51521611 57.47494912 60.50934901 55.30274105 60.49892044 C54.08802718 60.500387 52.87331331 60.50185356 51.62178993 60.50336456 C47.90321731 60.08707576 45.4807328 59.07314302 42.29939938 57.13142776 C40.75353062 54.03969025 41.00580416 51.53713224 41.29939938 48.13142776 C43.51802967 45.22425704 44.81884866 44.29161134 48.29939938 43.13142776 C49.87874898 43.03873933 51.46171877 43.00246941 53.04378414 43.00012589 C54.01961452 42.99611771 54.99544491 42.99210953 56.00084591 42.98797989 C57.07003262 42.98850861 58.13921932 42.98903732 59.24080563 42.98958206 C60.93135571 42.98437042 60.93135571 42.98437042 62.65605831 42.9790535 C65.10657411 42.97169443 67.55709659 42.96634985 70.00762081 42.96276283 C73.88170983 42.95560994 77.75567128 42.93995353 81.62972164 42.92142105 C92.64557246 42.86888549 103.66135478 42.82050255 114.67732906 42.80550003 C121.41120285 42.79623507 128.14470924 42.76618968 134.87847042 42.72418022 C137.44934826 42.71183118 140.0202714 42.70675603 142.59117794 42.70897865 C146.18046821 42.71131879 149.76882814 42.68926314 153.35799313 42.66145706 C154.42717983 42.66805847 155.49636654 42.67465988 156.59795284 42.68146133 C158.06169842 42.66275986 158.06169842 42.66275986 159.55501461 42.64368057 C160.40377666 42.64129222 161.25253872 42.63890387 162.12702084 42.63644314 C164.49349717 42.30755387 164.49349717 42.30755387 166.09592342 40.09941196 C166.69164402 39.12525979 166.69164402 39.12525979 167.29939938 38.13142776 C166.96939938 37.47142776 166.63939938 36.81142776 166.29939938 36.13142776 C166.29939938 35.14142776 166.29939938 34.15142776 166.29939938 33.13142776 C165.96939938 32.14142776 165.63939938 31.15142776 165.29939938 30.13142776 C161.87883221 28.42114418 157.95556381 28.95017003 154.18978024 28.9261055 C153.23931914 28.91620307 152.28885805 28.90630064 151.30959511 28.89609814 C148.12783692 28.86425413 144.94606547 28.8395575 141.76424313 28.81502151 C139.52069942 28.79442889 137.27715898 28.7734769 135.03362179 28.75218582 C129.01286523 28.69647461 122.99207063 28.64732148 116.97124767 28.59940338 C112.01277088 28.55893778 107.05433885 28.51396047 102.09589958 28.46916866 C79.39037045 28.26569682 56.68565096 28.08400319 33.97908688 28.13924026 C33.20417212 28.14087488 32.42925735 28.1425095 31.63086033 28.14419365 C25.28607447 28.15803788 18.94133901 28.17321166 12.59673214 28.22490311 C8.93121729 28.25453201 5.26576695 28.27350872 1.60018063 28.29158401 C0.56767178 28.30508896 -0.46483707 28.3185939 -1.52863407 28.33250809 C-16.06439553 28.38318628 -16.06439553 28.38318628 -21.70060062 23.56892776 C-24.1618844 19.33859627 -25.12569128 16.0199703 -24.70060062 11.13142776 C-23.44106158 7.09623788 -21.43474335 4.62085625 -17.88810062 2.25642776 C-12.0424343 0.19325142 -6.14740538 -0.01589828 0 0 Z M299.29939938 22.13142776 C299.29939938 22.46142776 299.29939938 22.79142776 299.29939938 23.13142776 C300.94939938 23.13142776 302.59939938 23.13142776 304.29939938 23.13142776 C304.29939938 22.80142776 304.29939938 22.47142776 304.29939938 22.13142776 C302.64939938 22.13142776 300.99939938 22.13142776 299.29939938 22.13142776 Z " fill="#F8F6F2" transform="translate(303.7006006240845,444.8685722351074)"/>
<path d="M0 0 C13.65114574 11.45179448 20.64780178 25.72818417 22.40234375 43.421875 C23.13466106 63.22373508 14.33675665 83.13797726 1.125 97.625 C-18.56528273 116.3532168 -41.35219866 121.03864363 -67.79296875 120.80786133 C-69.30941996 120.80232634 -70.82587456 120.7976639 -72.34233093 120.79379272 C-76.40593428 120.78061038 -80.46934736 120.75434561 -84.5328598 120.72465348 C-87.94027413 120.70091641 -91.34770984 120.68359545 -94.75516129 120.66615504 C-102.79209366 120.62484183 -110.82890363 120.57263112 -118.86572266 120.51342773 C-127.13648525 120.45269316 -135.40719766 120.41055044 -143.67811298 120.37740308 C-150.80979241 120.34816924 -157.94134421 120.3074785 -165.07290936 120.25763911 C-169.31955339 120.22807209 -173.56611017 120.20276297 -177.81283569 120.18851662 C-181.7989339 120.17464618 -185.78468085 120.14641347 -189.7706089 120.10731125 C-191.22820601 120.09537012 -192.68585412 120.088401 -194.14349937 120.08690834 C-210.92776528 120.06291411 -210.92776528 120.06291411 -216.8125 114.9375 C-219.24247215 109.6487371 -219.54882793 105.18396318 -217.5625 99.75 C-215.39663528 96.45314323 -214.20933534 95.70301663 -210.30853271 94.79277039 C-208.8560598 94.633542 -207.40086363 94.49803213 -205.94433594 94.3815918 C-205.15175762 94.30688754 -204.35917931 94.23218328 -203.54258347 94.15521526 C-194.06522387 93.34287624 -184.58264455 93.35501875 -175.078125 93.39453125 C-173.14524364 93.39572746 -171.21236169 93.39617528 -169.27947998 93.3959198 C-165.26928969 93.39746819 -161.25919077 93.40563667 -157.24902344 93.41918945 C-152.1181562 93.43631559 -146.9873874 93.4399989 -141.8564949 93.43924427 C-137.88278267 93.43951622 -133.90909179 93.44499918 -129.93538666 93.45224571 C-128.04240835 93.4554162 -126.14942765 93.45739598 -124.25644684 93.45813942 C-121.62046679 93.46031244 -118.98459047 93.46907343 -116.34863281 93.47973633 C-115.57561829 93.47928314 -114.80260376 93.47882996 -114.00616455 93.47836304 C-109.85920445 93.50283681 -105.94366475 93.81646911 -101.875 94.625 C-102.35710937 93.490625 -102.83921875 92.35625 -103.3359375 91.1875 C-103.97425902 89.66679285 -104.61226291 88.14595234 -105.25 86.625 C-105.56710937 85.88121094 -105.88421875 85.13742187 -106.2109375 84.37109375 C-112.78744267 68.61488344 -113.59529069 50.27450954 -107.41796875 34.19921875 C-98.30431788 13.08785028 -84.17171593 -1.69230721 -62.875 -10.375 C-41.46618284 -17.91521233 -18.01255832 -13.33115332 0 0 Z M-63.875 35.625 C-69.41279295 42.56921656 -71.80823391 50.75927785 -70.875 59.625 C-68.90489505 67.3183845 -65.4611561 72.19548717 -58.875 76.625 C-52.88715595 79.75500939 -45.13599377 79.43034247 -38.6015625 78.1953125 C-30.24589446 75.52017767 -24.75327002 69.31132549 -20.78515625 61.73828125 C-17.82608658 54.86765166 -17.94109278 47.46044814 -20.375 40.4375 C-23.15265408 34.18285339 -27.63118414 30.32063102 -33.625 27.1875 C-45.55560717 25.12258722 -55.46733245 26.56112425 -63.875 35.625 Z " fill="#F8F4EF" transform="translate(629.875,490.375)"/>
<path d="M0 0 C1.33090834 -0.00298657 1.33090834 -0.00298657 2.68870372 -0.00603348 C3.66437511 -0.00312064 4.6400465 -0.0002078 5.6452837 0.00279331 C6.68098572 0.00193889 7.71668774 0.00108446 8.78377467 0.00020415 C12.27081621 -0.00144924 15.75781015 0.00406845 19.2448473 0.00952244 C21.73786893 0.00980437 24.23089065 0.00964647 26.72391224 0.00907993 C32.09975458 0.00885186 37.47558196 0.01169706 42.8514204 0.01731777 C50.62401284 0.02543913 58.39659941 0.02804865 66.16919563 0.02930576 C78.77921435 0.03149528 91.38922661 0.03815265 103.99924183 0.04760838 C116.24989254 0.05678508 128.5005415 0.06386465 140.75119495 0.06811619 C141.50611666 0.06837891 142.26103838 0.06864164 143.0388365 0.06891232 C146.82599461 0.07021734 150.61315274 0.07148105 154.40031087 0.07272422 C185.82676587 0.08309371 217.25321283 0.10078356 248.67966175 0.12304783 C248.20317834 1.56182078 247.72589098 3.0003275 247.24826527 4.43872166 C246.98256229 5.23981861 246.71685932 6.04091557 246.44310474 6.86628819 C245.85255013 8.61198476 245.2248205 10.34513018 244.5820055 12.07226658 C239.05631948 27.75447671 238.17952827 45.8863175 241.67966175 62.12304783 C242.33966175 62.45304783 242.99966175 62.78304783 243.67966175 63.12304783 C243.34966175 65.10304783 243.01966175 67.08304783 242.67966175 69.12304783 C242.01966175 69.12304783 241.35966175 69.12304783 240.67966175 69.12304783 C240.67966175 68.46304783 240.67966175 67.80304783 240.67966175 67.12304783 C239.94213326 67.12396962 239.20460478 67.12489141 238.44472694 67.12584114 C220.50079294 67.14792344 202.55686164 67.16447261 184.61291695 67.17486 C175.93537184 67.18001675 167.2578358 67.18704764 158.58029652 67.19848728 C151.01714754 67.20845306 143.45400513 67.21490578 135.89084977 67.21713632 C131.88606655 67.2184402 127.88130212 67.22150571 123.87652493 67.22877789 C120.10667896 67.23556795 116.33685952 67.23765869 112.56700802 67.23615551 C111.18392003 67.23643049 109.80083115 67.2384179 108.41774845 67.2422533 C106.52774924 67.24723711 104.63773579 67.24543455 102.74773121 67.24330235 C101.69043466 67.24422414 100.6331381 67.24514593 99.54380226 67.24609566 C96.79470819 67.1279904 94.33540009 66.84018576 91.67966175 66.12304783 C89.09414199 62.61290511 88.67123833 58.62845316 88.74216175 54.37304783 C89.77162909 50.80422772 90.79291143 49.39745717 93.67966175 47.12304783 C101.68901472 43.11837134 113.82135715 45.00064564 122.68709469 45.04788303 C125.14844722 45.06085686 127.6097447 45.06721468 130.07112598 45.07202244 C135.29482955 45.08334773 140.51848702 45.1025869 145.74216175 45.12304783 C151.80725207 45.14678704 157.87231564 45.16713074 163.93744183 45.17898655 C166.34293089 45.18538975 168.74833591 45.1978923 171.1537981 45.21069431 C185.19446716 46.10305052 185.19446716 46.10305052 197.86716175 41.87304783 C199.83502501 38.88732427 200.24537907 37.61163797 199.67966175 34.12304783 C199.34966175 33.46304783 199.01966175 32.80304783 198.67966175 32.12304783 C197.68966175 31.79304783 196.69966175 31.46304783 195.67966175 31.12304783 C196.00966175 29.80304783 196.33966175 28.48304783 196.67966175 27.12304783 C192.55797486 25.49354371 189.97265818 24.86040182 185.67966175 26.12304783 C185.67966175 25.46304783 185.67966175 24.80304783 185.67966175 24.12304783 C178.74966175 24.12304783 171.81966175 24.12304783 164.67966175 24.12304783 C164.67966175 24.78304783 164.67966175 25.44304783 164.67966175 26.12304783 C164.01966175 25.79304783 163.35966175 25.46304783 162.67966175 25.12304783 C160.48872339 25.02514327 158.29472139 24.99398907 156.10159779 24.99174595 C155.07632941 24.98857238 155.07632941 24.98857238 154.03034854 24.98533469 C151.72886674 24.97932004 149.42743954 24.98033589 147.12595081 24.98120213 C145.4802386 24.97817156 143.83452722 24.97465039 142.18881702 24.97067356 C138.63876978 24.96277566 135.08873264 24.95763627 131.53867817 24.9543829 C125.92481367 24.94848005 120.31101281 24.93194617 114.69717884 24.91304111 C112.776269 24.90670343 110.85535912 24.90037781 108.9344492 24.89406395 C107.49126859 24.88931523 107.49126859 24.88931523 106.01893282 24.88447058 C92.94589287 24.84237475 79.87288213 24.80942107 66.79977894 24.79712009 C57.98657026 24.78874211 49.17351863 24.76625987 40.36038852 24.72776443 C35.69547113 24.70799241 31.03078858 24.69560292 26.36582661 24.70059872 C21.97609404 24.70524232 17.58680645 24.69145565 13.19716358 24.66358662 C11.58713968 24.65666958 9.97706982 24.65655381 8.36704731 24.66378689 C6.16605614 24.67267518 3.96653243 24.65698442 1.76566029 24.63530064 C0.53489891 24.63291228 -0.69586246 24.63052393 -1.96391964 24.6280632 C-5.99887657 24.02095321 -8.15388757 22.6529974 -11.32033825 20.12304783 C-14.18338575 16.05936751 -14.85458806 12.82744 -14.035182 8.02148533 C-12.71861726 4.5250347 -10.39631486 3.15319239 -7.32033825 1.12304783 C-4.53190687 0.1935707 -2.87780968 -0.00142395 0 0 Z " fill="#F8F4ED" transform="translate(268.32033824920654,509.8769521713257)"/>
<path d="M0 0 C1.81514335 -0.00302322 3.63028543 -0.00691355 5.44542527 -0.01159257 C10.41656107 -0.02185868 15.38762463 -0.01969431 20.35876632 -0.01541197 C25.72617985 -0.01294236 31.0935761 -0.02196165 36.46098328 -0.02944946 C46.96800986 -0.0421902 57.47501088 -0.04399107 67.98204389 -0.0416492 C76.51961022 -0.03986581 85.05716879 -0.04161611 93.59473419 -0.04587364 C94.81003054 -0.04646883 96.02532689 -0.04706402 97.2774504 -0.04767724 C99.74628367 -0.04888899 102.21511694 -0.05010312 104.68395022 -0.05131962 C127.82732138 -0.06219196 150.97067796 -0.06003363 174.11404994 -0.05393478 C195.29695307 -0.04876129 216.47981028 -0.06003301 237.66270432 -0.07903299 C259.41127289 -0.09839102 281.15981971 -0.10667127 302.90839696 -0.10290974 C315.11959804 -0.1009952 327.33075998 -0.10351029 339.54195404 -0.11762428 C349.93277481 -0.12951283 360.32353235 -0.13097112 370.71435395 -0.11883412 C376.01735567 -0.11292874 381.32024156 -0.11189184 386.6232357 -0.12383652 C391.47503403 -0.13463823 396.326619 -0.13166045 401.1784071 -0.11757483 C402.9359421 -0.11491218 404.69349351 -0.11734326 406.45101246 -0.1253107 C408.83603845 -0.13537468 411.22031672 -0.1270313 413.60531235 -0.1140337 C414.29099944 -0.12134304 414.97668653 -0.12865239 415.68315202 -0.13618323 C420.21469394 -0.08483408 423.27598183 0.98444213 427.17169189 3.26069641 C426.84169189 3.92069641 426.51169189 4.58069641 426.17169189 5.26069641 C425.18169189 4.60069641 424.19169189 3.94069641 423.17169189 3.26069641 C420.68955627 3.06502809 418.31962713 2.98618048 415.83720112 2.99898338 C414.70248682 2.99298929 414.70248682 2.99298929 413.54484901 2.9868741 C410.98951553 2.97583482 408.43439625 2.97911021 405.87904358 2.98222351 C404.03679094 2.97722433 402.19454051 2.97134966 400.35229319 2.96467078 C395.27395818 2.94881101 390.1956784 2.94543682 385.11732161 2.94402218 C379.64695944 2.94033852 374.17662794 2.92518828 368.70628357 2.91140747 C359.22323233 2.88909819 349.74019196 2.874107 340.25712013 2.86404037 C326.54607406 2.84947509 312.83506581 2.82394437 299.12404188 2.79570909 C276.88057698 2.75020191 254.63710488 2.71358628 232.39361572 2.68257141 C210.78195236 2.6524164 189.17030226 2.61808204 167.55865479 2.57807922 C166.55972325 2.57623272 166.55972325 2.57623272 165.54061128 2.57434891 C158.18934793 2.56075516 150.83808481 2.54704685 143.48682177 2.53329158 C88.04846371 2.42966501 32.61008904 2.34048118 -22.82830811 2.26069641 C-22.82830811 2.92069641 -22.82830811 3.58069641 -22.82830811 4.26069641 C-24.80830811 4.26069641 -26.78830811 4.26069641 -28.82830811 4.26069641 C-27.82830811 2.26069641 -27.82830811 2.26069641 -26.16992831 1.63704902 C-17.50016468 -0.19946684 -8.81324844 -0.02081562 0 0 Z " fill="#F9E1BC" transform="translate(313.82830810546875,444.7393035888672)"/>
<path d="M0 0 C0.33 0 0.66 0 1 0 C2.29901921 8.04927976 3.33853295 15.83759432 3 24 C-0.04549864 25.52274932 -3.21326901 25.13700352 -6.55407715 25.12698364 C-7.34250047 25.12854363 -8.1309238 25.13010362 -8.94323874 25.13171089 C-11.59954766 25.13571692 -14.25579997 25.13253276 -16.91210938 25.12939453 C-18.81061334 25.13074875 -20.70911704 25.13252879 -22.60762024 25.13470459 C-27.77483319 25.1392765 -32.94202626 25.13749035 -38.10923958 25.1343255 C-43.50686829 25.13180066 -48.90449525 25.13413979 -54.30212402 25.13571167 C-63.36792305 25.137533 -72.43371393 25.13512801 -81.49951172 25.13037109 C-91.99344011 25.12492855 -102.48734907 25.12669123 -112.98127699 25.1321975 C-121.97745413 25.13672967 -130.97362542 25.13737867 -139.96980333 25.13475883 C-145.34882456 25.13319663 -150.72783665 25.13300074 -156.1068573 25.13629532 C-161.16287843 25.13917553 -166.21887441 25.13719555 -171.27489281 25.13140106 C-173.13494513 25.13007427 -174.99499955 25.13046621 -176.85505104 25.13266373 C-179.3853706 25.13537839 -181.91560855 25.13199017 -184.44592285 25.12698364 C-185.18968595 25.12921436 -185.93344905 25.13144509 -186.69975042 25.13374341 C-191.77169985 25.11415007 -191.77169985 25.11415007 -194 24 C-194.33 24.66 -194.66 25.32 -195 26 C-195.5391699 25.83734146 -196.07833981 25.67468292 -196.63384819 25.50709534 C-199.43473738 24.90683045 -201.99239101 24.88036016 -204.85842896 24.88647461 C-206.05584717 24.8865451 -207.25326538 24.8866156 -208.48696899 24.88668823 C-209.79725067 24.89185455 -211.10753235 24.89702087 -212.45751953 24.90234375 C-213.85386095 24.90426329 -215.25020306 24.90572692 -216.64654541 24.9067688 C-219.65091351 24.90992809 -222.65525346 24.91619397 -225.65961075 24.92483521 C-230.40717611 24.93835251 -235.1547321 24.94425043 -239.90231323 24.94897461 C-249.97655466 24.96007457 -260.05077372 24.97961893 -270.125 25 C-281.00727202 25.02200486 -291.88953495 25.04258092 -302.77182472 25.05341816 C-307.49465073 25.05841083 -312.21743417 25.06828535 -316.94024301 25.08184814 C-319.87281232 25.08928772 -322.8053757 25.09261933 -325.73795319 25.0948143 C-327.75333902 25.09759023 -329.76871596 25.10538982 -331.78408813 25.11331177 C-332.9758667 25.11338226 -334.16764526 25.11345276 -335.39553833 25.11352539 C-336.95571528 25.11685631 -336.95571528 25.11685631 -338.54741096 25.12025452 C-341 25 -341 25 -343 24 C-342.67 20.7 -342.34 17.4 -342 14 C-341.67 14 -341.34 14 -341 14 C-341 16.97 -341 19.94 -341 23 C-227.81 23 -114.62 23 2 23 C1.17488149 15.78053946 1.17488149 15.78053946 -1 9 C-0.91348369 7.45386986 -0.75997364 5.91090613 -0.5625 4.375 C-0.46066406 3.55773437 -0.35882812 2.74046875 -0.25390625 1.8984375 C-0.17011719 1.27195312 -0.08632813 0.64546875 0 0 Z " fill="#F9D193" transform="translate(682,409)"/>
<path d="M0 0 C1.47024879 -0.002062 1.47024879 -0.002062 2.97019958 -0.00416565 C4.58104935 0.00122726 4.58104935 0.00122726 6.22444153 0.00672913 C7.35629379 0.0065831 8.48814606 0.00643707 9.65429688 0.00628662 C13.40401613 0.00698456 17.15368601 0.01477147 20.90339661 0.02259827 C23.49985731 0.02446287 26.09631836 0.02588657 28.69277954 0.02688599 C34.83381775 0.030317 40.97483551 0.03820246 47.11586601 0.04823548 C54.10733575 0.05941014 61.09880634 0.06491048 68.0902828 0.06993091 C82.47200737 0.08038542 96.85371698 0.09797644 111.23542786 0.12025452 C108.02797417 2.25855698 107.22831382 2.36886373 103.54678345 2.36076355 C102.58344589 2.36351288 101.62010834 2.36626221 100.62757874 2.36909485 C99.04478119 2.35830902 99.04478119 2.35830902 97.43000793 2.3473053 C96.31766281 2.34759735 95.20531769 2.3478894 94.05926514 2.34819031 C90.37441772 2.3467945 86.6897713 2.33122127 83.00495911 2.31556702 C80.45333975 2.31183779 77.90171896 2.30899039 75.35009766 2.30699158 C69.31527631 2.30012974 63.28054153 2.28435915 57.2457549 2.2642926 C50.37520957 2.24194263 43.50466079 2.23094244 36.63408816 2.22090173 C22.50116129 2.19999314 8.36829853 2.16481153 -5.76457214 2.12025452 C-6.09457214 2.78025452 -6.42457214 3.44025452 -6.76457214 4.12025452 C-7.42457214 4.12025452 -8.08457214 4.12025452 -8.76457214 4.12025452 C-8.79157644 5.57848663 -8.81097001 7.03686127 -8.82707214 8.49525452 C-8.83867371 9.30736389 -8.85027527 10.11947327 -8.86222839 10.95619202 C-8.90923549 13.16962594 -8.90923549 13.16962594 -7.76457214 15.12025452 C-8.75457214 14.79025452 -9.74457214 14.46025452 -10.76457214 14.12025452 C-12.3104409 11.028517 -12.05816736 8.52595899 -11.76457214 5.12025452 C-8.44226496 0.76688649 -5.28728878 -0.00571599 0 0 Z " fill="#FBDEAF" transform="translate(356.7645721435547,487.87974548339844)"/>
<path d="M0 0 C0.33 0 0.66 0 1 0 C1.12117187 1.28777344 1.24234375 2.57554687 1.3671875 3.90234375 C1.53596865 5.58077848 1.70526613 7.25916135 1.875 8.9375 C1.95363281 9.78763672 2.03226563 10.63777344 2.11328125 11.51367188 C2.19707031 12.32255859 2.28085937 13.13144531 2.3671875 13.96484375 C2.44050293 14.7137085 2.51381836 15.46257324 2.58935547 16.23413086 C2.72486816 16.81686768 2.86038086 17.39960449 3 18 C3.66 18.33 4.32 18.66 5 19 C4.67 20.98 4.34 22.96 4 25 C3.34 25 2.68 25 2 25 C2 24.34 2 23.68 2 23 C-45.52 23 -93.04 23 -142 23 C-142 22.67 -142 22.34 -142 22 C-94.48 22 -46.96 22 2 22 C1.01 17.05 1.01 17.05 0 12 C-0.1953125 8.3984375 -0.1953125 8.3984375 -0.125 5.375 C-0.10695313 4.35148438 -0.08890625 3.32796875 -0.0703125 2.2734375 C-0.04710937 1.52320313 -0.02390625 0.77296875 0 0 Z " fill="#F3C278" transform="translate(507,554)"/>
<path d="M0 0 C1.21782417 -0.002062 1.21782417 -0.002062 2.46025085 -0.00416565 C3.34713593 -0.00057037 4.234021 0.0030249 5.14778137 0.00672913 C6.08456223 0.0065831 7.02134308 0.00643707 7.98651123 0.00628662 C11.08692225 0.00698401 14.18727341 0.01476834 17.28767395 0.02259827 C19.43572965 0.02446306 21.58378577 0.02588667 23.73184204 0.02688599 C29.38879061 0.03070632 35.04571355 0.0405325 40.70265198 0.05158997 C46.47382765 0.06181447 52.24500746 0.06638584 58.01618958 0.07142639 C69.34237272 0.08215518 80.66853683 0.09922582 91.9947052 0.12025452 C91.9947052 0.45025452 91.9947052 0.78025452 91.9947052 1.12025452 C60.9747052 1.12025452 29.9547052 1.12025452 -2.0052948 1.12025452 C-2.0052948 1.78025452 -2.0052948 2.44025452 -2.0052948 3.12025452 C-3.9852948 3.12025452 -5.9652948 3.12025452 -8.0052948 3.12025452 C-6.3100201 -0.27029488 -3.41557122 -0.0044648 0 0 Z " fill="#FBEFDC" transform="translate(293.0052947998047,445.87974548339844)"/>
<path d="M0 0 C0.33 0 0.66 0 1 0 C1.12117188 1.28777344 1.24234375 2.57554687 1.3671875 3.90234375 C1.53596865 5.58077848 1.70526613 7.25916135 1.875 8.9375 C1.95363281 9.78763672 2.03226562 10.63777344 2.11328125 11.51367188 C2.19707031 12.32255859 2.28085937 13.13144531 2.3671875 13.96484375 C2.44050293 14.7137085 2.51381836 15.46257324 2.58935547 16.23413086 C2.79262451 17.10823608 2.79262451 17.10823608 3 18 C3.66 18.33 4.32 18.66 5 19 C4.67 20.98 4.34 22.96 4 25 C3.34 25 2.68 25 2 25 C2 24.34 2 23.68 2 23 C-12.85 23 -27.7 23 -43 23 C-43 22.67 -43 22.34 -43 22 C-28.15 22 -13.3 22 2 22 C1.34 18.7 0.68 15.4 0 12 C-0.1953125 8.3984375 -0.1953125 8.3984375 -0.125 5.375 C-0.10695313 4.35148438 -0.08890625 3.32796875 -0.0703125 2.2734375 C-0.04710937 1.52320313 -0.02390625 0.77296875 0 0 Z " fill="#F8D194" transform="translate(507,554)"/>
<path d="M0 0 C1.74700195 -0.00386719 1.74700195 -0.00386719 3.52929688 -0.0078125 C4.74294922 -0.00007813 5.95660156 0.00765625 7.20703125 0.015625 C8.40134766 0.00789063 9.59566406 0.00015625 10.82617188 -0.0078125 C17.54432072 0.00697704 23.53056081 0.50921195 30.01953125 2.265625 C26.9999828 3.85339494 24.68123998 4.58959188 21.26953125 4.890625 C20.4703125 4.96539062 19.67109375 5.04015625 18.84765625 5.1171875 C17.94273437 5.19066406 17.94273437 5.19066406 17.01953125 5.265625 C16.68953125 4.275625 16.35953125 3.285625 16.01953125 2.265625 C7.43953125 2.265625 -1.14046875 2.265625 -9.98046875 2.265625 C-5.9574228 0.25410203 -4.34688279 0.00931309 0 0 Z M21.01953125 2.265625 C21.01953125 2.595625 21.01953125 2.925625 21.01953125 3.265625 C22.66953125 3.265625 24.31953125 3.265625 26.01953125 3.265625 C26.01953125 2.935625 26.01953125 2.605625 26.01953125 2.265625 C24.36953125 2.265625 22.71953125 2.265625 21.01953125 2.265625 Z " fill="#FCDCAA" transform="translate(581.98046875,464.734375)"/>
<path d="M0 0 C0.66 0.33 1.32 0.66 2 1 C0.02 1.99 0.02 1.99 -2 3 C-1.67 3.99 -1.34 4.98 -1 6 C-10.22551253 15.77904328 -10.22551253 15.77904328 -16 18 C-14.43602788 14.20429237 -12.04601893 11.84300952 -9.125 9 C-8.26132812 8.154375 -7.39765625 7.30875 -6.5078125 6.4375 C-5.68023437 5.633125 -4.85265625 4.82875 -4 4 C-2.66442011 2.66891701 -1.33023617 1.33642332 0 0 Z " fill="#F9E7CA" transform="translate(442,317)"/>
<path d="M0 0 C5.85275379 8.77913068 4.77957349 21.98989911 3 32 C2.67 32 2.34 32 2 32 C2 24.41 2 16.82 2 9 C1.34 9 0.68 9 0 9 C-1.10844919 5.67465243 -0.84454356 3.37817425 0 0 Z " fill="#F8D9A9" transform="translate(648,517)"/>
<path d="M0 0 C0.66 0.66 1.32 1.32 2 2 C0.24970238 1.68917128 -1.50022694 1.37626821 -3.25 1.0625 C-4.22453125 0.88847656 -5.1990625 0.71445312 -6.203125 0.53515625 C-9 0 -9 0 -11.0078125 -0.55859375 C-13.57757355 -1.12797218 -15.9952173 -1.13208836 -18.625 -1.125 C-19.58664062 -1.12757813 -20.54828125 -1.13015625 -21.5390625 -1.1328125 C-24.00474769 -1.16361083 -24.00474769 -1.16361083 -26 0 C-27.71233688 -0.0870204 -29.42175406 -0.24097162 -31.125 -0.4375 C-32.03507813 -0.53933594 -32.94515625 -0.64117187 -33.8828125 -0.74609375 C-34.58148437 -0.82988281 -35.28015625 -0.91367187 -36 -1 C-36 -1.33 -36 -1.66 -36 -2 C-24.90924274 -4.77829071 -10.58732963 -4.18881644 0 0 Z " fill="#FADCAE" transform="translate(611,480)"/>
<path d="M0 0 C1.29210136 0.00212242 1.29210136 0.00212242 2.61030579 0.00428772 C5.36133294 0.00988485 8.11227869 0.02243679 10.86328125 0.03515625 C12.72851445 0.04017162 14.59374892 0.04473446 16.45898438 0.04882812 C21.03128136 0.05985333 25.6035175 0.07711598 30.17578125 0.09765625 C30.17578125 0.42765625 30.17578125 0.75765625 30.17578125 1.09765625 C17.96578125 1.09765625 5.75578125 1.09765625 -6.82421875 1.09765625 C-6.82421875 1.75765625 -6.82421875 2.41765625 -6.82421875 3.09765625 C-8.80421875 3.09765625 -10.78421875 3.09765625 -12.82421875 3.09765625 C-10.5591687 -1.43244385 -4.41381619 -0.02719811 0 0 Z " fill="#FAEAD2" transform="translate(297.82421875,445.90234375)"/>
<path d="M0 0 C0.66 0 1.32 0 2 0 C5.25302316 6.04132873 6.40643799 11.53476855 6.4375 18.3125 C6.44716797 18.99376953 6.45683594 19.67503906 6.46679688 20.37695312 C6.39444536 24.70527636 5.70073972 27.58610651 3 31 C2.34 31 1.68 31 1 31 C1.2165625 30.39414062 1.433125 29.78828125 1.65625 29.1640625 C5.28399827 18.24722744 4.49318834 10.55096905 0 0 Z " fill="#F7D7A6" transform="translate(606,525)"/>
<path d="M0 0 C0.66 0.33 1.32 0.66 2 1 C1.34 2.98 0.68 4.96 0 7 C-0.66 7 -1.32 7 -2 7 C-1.42598587 11.23867082 -1.42598587 11.23867082 0.125 15.1875 C1 17 1 17 0 20 C-3.16900895 16.83099105 -3.76319872 13.63709209 -4.1484375 9.328125 C-3.90136927 5.45305483 -2.20462283 3.13991736 0 0 Z " fill="#F4D8AE" transform="translate(283,449)"/>
<path d="M0 0 C0 5.12479493 -1.08779375 7.45941136 -4.5625 11.25 C-5.20316406 11.95640625 -5.84382813 12.6628125 -6.50390625 13.390625 C-7.24447266 14.18726563 -7.24447266 14.18726563 -8 15 C-8.99 14.67 -9.98 14.34 -11 14 C-9.42219077 10.28954753 -7.09296752 7.70093616 -4.375 4.75 C-3.55773437 3.85796875 -2.74046875 2.9659375 -1.8984375 2.046875 C-1.27195312 1.37140625 -0.64546875 0.6959375 0 0 Z " fill="#F7E5C8" transform="translate(390,320)"/>
<path d="M0 0 C2.39663985 2.39663985 2.37322023 3.1359435 2.5 6.4375 C2.42431225 12.91826325 -0.58839595 17.65921509 -4 23 C-4.33 21.68 -4.66 20.36 -5 19 C-4.34 19 -3.68 19 -3 19 C-2.67 16.69 -2.34 14.38 -2 12 C-1.01 11.67 -0.02 11.34 1 11 C0.67 7.37 0.34 3.74 0 0 Z " fill="#F3D3A2" transform="translate(741,450)"/>
<path d="M0 0 C2.96175123 0.61277612 4.38058783 1.25372522 7 3 C7 3.66 7 4.32 7 5 C7.99 5.33 8.98 5.66 10 6 C11.6875 8.5625 11.6875 8.5625 13 11 C11.0625 10.6875 11.0625 10.6875 9 10 C8.67 9.01 8.34 8.02 8 7 C7.401875 6.71125 6.80375 6.4225 6.1875 6.125 C3.30899659 4.64462682 1.89900001 2.57721429 0 0 Z " fill="#F7E7CE" transform="translate(626,314)"/>
<path d="M0 0 C1.32 0 2.64 0 4 0 C3.1875 1.9375 3.1875 1.9375 2 4 C1.01 4.33 0.02 4.66 -1 5 C-1 7.64 -1 10.28 -1 13 C-3 10 -3 10 -2.75 6.5 C-2 3 -2 3 0 0 Z " fill="#F8E0BA" transform="translate(360,558)"/>
<path d="M0 0 C4.01349645 0.28001138 5.72035142 0.75763789 8.8125 3.4375 C11 6 11 6 12 8 C9.64138511 6.82069255 7.28650742 5.63597317 4.9375 4.4375 C2.04368894 2.94069887 2.04368894 2.94069887 -1 2 C-0.67 1.34 -0.34 0.68 0 0 Z " fill="#FAE6C4" transform="translate(625,473)"/>
<path d="M0 0 C5.03985731 0.44469329 7.37634988 2.71343362 11 6 C10.67 6.99 10.34 7.98 10 9 C8.33043913 7.69118353 6.66441696 6.37785174 5 5.0625 C4.071875 4.33160156 3.14375 3.60070312 2.1875 2.84765625 C1.465625 2.23792969 0.74375 1.62820313 0 1 C0 0.67 0 0.34 0 0 Z " fill="#F6E4C7" transform="translate(614,304)"/>
<path d="M0 0 C-3.3 2.31 -6.6 4.62 -10 7 C-10.66 6.67 -11.32 6.34 -12 6 C-4.43243243 -2.21621622 -4.43243243 -2.21621622 0 0 Z " fill="#F6DEB8" transform="translate(722,490)"/>
<path d="M0 0 C4.67105792 1.55701931 8.08705685 4.08447373 12 7 C10.1953125 7.60546875 10.1953125 7.60546875 8 8 C4.14555814 5.91860139 1.50346399 4.20969919 0 0 Z " fill="#F7E2C0" transform="translate(597,291)"/>
<path d="M0 0 C1.32 0.33 2.64 0.66 4 1 C1.69 3.31 -0.62 5.62 -3 8 C-3.33 6.68 -3.66 5.36 -4 4 C-2.3125 1.6875 -2.3125 1.6875 0 0 Z " fill="#F8EAD3" transform="translate(541,496)"/>
<path d="M0 0 C2.82858266 3.36736031 4.4998253 6.87451958 6 11 C5.67 11.99 5.34 12.98 5 14 C4.896875 13.360625 4.79375 12.72125 4.6875 12.0625 C4.460625 11.381875 4.23375 10.70125 4 10 C3.01 9.67 2.02 9.34 1 9 C1.33 7.68 1.66 6.36 2 5 C1.01 4.67 0.02 4.34 -1 4 C-0.67 2.68 -0.34 1.36 0 0 Z " fill="#F7D9AD" transform="translate(668,367)"/>
<path d="M0 0 C0.33 0 0.66 0 1 0 C1.82200425 6.24723226 -1.07448606 10.71317837 -4 16 C-5.25541557 12.23375329 -4.37061958 10.62811066 -3 7 C-2.34 7 -1.68 7 -1 7 C-0.67 4.69 -0.34 2.38 0 0 Z " fill="#F9E5C4" transform="translate(384,361)"/>
<path d="M0 0 C2.36049251 2.14590229 3.61903604 4.14600782 5 7 C5.66 7.66 6.32 8.32 7 9 C6.01 9.495 6.01 9.495 5 10 C3.0625 8.9375 3.0625 8.9375 1 7 C0.25 3.3125 0.25 3.3125 0 0 Z " fill="#F6E1BE" transform="translate(660,353)"/>
<path d="M0 0 C0.66 0 1.32 0 2 0 C4.09350689 3.4019487 4.17942163 6.05272412 4 10 C2 9 2 9 0.875 6.6875 C0 4 0 4 0 0 Z " fill="#F9E8CB" transform="translate(524,572)"/>
<path d="M0 0 C2.74501997 3.61186839 5.37012014 7.30395263 8 11 C4.63408134 9.55746343 2.48952921 7.66735273 0 5 C0.33 4.34 0.66 3.68 1 3 C0.34 3 -0.32 3 -1 3 C-0.67 2.01 -0.34 1.02 0 0 Z " fill="#FAE1B9" transform="translate(560,554)"/>
<path d="M0 0 C1.63001953 0.01353516 1.63001953 0.01353516 3.29296875 0.02734375 C4.12441406 0.03894531 4.95585937 0.05054688 5.8125 0.0625 C5.8125 0.3925 5.8125 0.7225 5.8125 1.0625 C2.5125 1.0625 -0.7875 1.0625 -4.1875 1.0625 C-4.1875 1.7225 -4.1875 2.3825 -4.1875 3.0625 C-6.1675 3.0625 -8.1475 3.0625 -10.1875 3.0625 C-8.19010785 -0.9322843 -3.93646808 -0.04232761 0 0 Z " fill="#F6DDB6" transform="translate(295.1875,445.9375)"/>
<path d="M0 0 C-0.33 0.99 -0.66 1.98 -1 3 C-5.01804691 3.84098656 -8.01803543 4.05404945 -12 3 C-7.80491562 0.75263337 -4.79167039 0 0 0 Z " fill="#F8E1BC" transform="translate(479,272)"/>
<path d="M0 0 C0.66 0 1.32 0 2 0 C2.3636198 4.24223102 1.5393228 6.58168085 -1 10 C-1.66 10 -2.32 10 -3 10 C-2.01 6.7 -1.02 3.4 0 0 Z " fill="#F9E5C3" transform="translate(610,546)"/>
<path d="M0 0 C0.99 0.33 1.98 0.66 3 1 C0.06171403 3.50298434 -2.17902761 4.46930939 -6 5 C-5.67 4.01 -5.34 3.02 -5 2 C-4.01 1.67 -3.02 1.34 -2 1 C-1.34 1.33 -0.68 1.66 0 2 C0 1.34 0 0.68 0 0 Z " fill="#F6DFB8" transform="translate(707,496)"/>
<path d="M0 0 C4.21912747 0.4794463 6.79663178 1.16625119 10 4 C3.47692308 3.38461538 3.47692308 3.38461538 1.0625 1.4375 C0.711875 0.963125 0.36125 0.48875 0 0 Z " fill="#F7E5C9" transform="translate(587,287)"/>
<path d="M0 0 C-1.3125 1.5 -1.3125 1.5 -3 3 C-3.99 3 -4.98 3 -6 3 C-6.99 3.495 -6.99 3.495 -8 4 C-8.66 3.34 -9.32 2.68 -10 2 C-3.375 -1.125 -3.375 -1.125 0 0 Z " fill="#F7DEB4" transform="translate(453,281)"/>
<path d="M0 0 C0.99 0.99 1.98 1.98 3 3 C2.01 3.33 1.02 3.66 0 4 C0.33 4.99 0.66 5.98 1 7 C0.01 7.33 -0.98 7.66 -2 8 C-1.125 2.25 -1.125 2.25 0 0 Z " fill="#FAE8CD" transform="translate(396,382)"/>
<path d="M0 0 C0.99 0.33 1.98 0.66 3 1 C0.03 3.475 0.03 3.475 -3 6 C-3.33 5.01 -3.66 4.02 -4 3 C-2.1875 1.4375 -2.1875 1.4375 0 0 Z " fill="#FAEAD2" transform="translate(467,551)"/>
<path d="M0 0 C1 2 1 2 0.25 5.5625 C-0.1625 6.696875 -0.575 7.83125 -1 9 C-1.99 9.33 -2.98 9.66 -4 10 C-3.52449439 8.51965236 -3.04448784 7.04074979 -2.5625 5.5625 C-2.29566406 4.73878906 -2.02882813 3.91507812 -1.75390625 3.06640625 C-1 1 -1 1 0 0 Z " fill="#FAE2BA" transform="translate(402,369)"/>
<path d="M0 0 C0 3.25811062 -0.5522078 5.10441559 -2 8 C-2.99 8.33 -3.98 8.66 -5 9 C-3.7508258 5.54074837 -2.32472205 2.85306797 0 0 Z " fill="#F9E2BE" transform="translate(416,346)"/>
<path d="M0 0 C0.66 0.33 1.32 0.66 2 1 C0.6875 3.5 0.6875 3.5 -1 6 C-1.99 6 -2.98 6 -4 6 C-2.84826645 3.53199953 -1.95216435 1.95216435 0 0 Z " fill="#F7DEB7" transform="translate(502,245)"/>
<path d="M0 0 C1.5625 1.8125 1.5625 1.8125 3 4 C2.67 4.99 2.34 5.98 2 7 C0.5393715 4.35261084 0 3.10551666 0 0 Z " fill="#FEE4B6" transform="translate(520,569)"/>
<path d="M0 0 C1.65 0.33 3.3 0.66 5 1 C5 1.33 5 1.66 5 2 C3.02 2 1.04 2 -1 2 C-0.67 1.34 -0.34 0.68 0 0 Z " fill="#FFE7BE" transform="translate(548,478)"/>
<path d="M0 0 C0.33 0 0.66 0 1 0 C1 1.98 1 3.96 1 6 C0.34 5.67 -0.32 5.34 -1 5 C-0.67 3.35 -0.34 1.7 0 0 Z " fill="#FFE7C0" transform="translate(609,538)"/>
<path d="M0 0 C2.31 0 4.62 0 7 0 C7 0.33 7 0.66 7 1 C4.69 1 2.38 1 0 1 C0 0.67 0 0.34 0 0 Z " fill="#FFE6BD" transform="translate(584,518)"/>
<path d="M0 0 C2.31 0 4.62 0 7 0 C7 0.33 7 0.66 7 1 C4.69 1 2.38 1 0 1 C0 0.67 0 0.34 0 0 Z " fill="#FFE6BD" transform="translate(588,475)"/>
<path d="M0 0 C1.98 0 3.96 0 6 0 C6 0.33 6 0.66 6 1 C4.02 1 2.04 1 0 1 C0 0.67 0 0.34 0 0 Z " fill="#FDD699" transform="translate(340,535)"/>
<path d="M0 0 C1.98 0 3.96 0 6 0 C6 0.33 6 0.66 6 1 C4.02 1 2.04 1 0 1 C0 0.67 0 0.34 0 0 Z " fill="#FDD698" transform="translate(332,535)"/>
<path d="M0 0 C2.475 0.495 2.475 0.495 5 1 C5 1.33 5 1.66 5 2 C3.35 2 1.7 2 0 2 C0 1.34 0 0.68 0 0 Z " fill="#FEE7BD" transform="translate(592,518)"/>
<path d="M0 0 C1.32 0.33 2.64 0.66 4 1 C2.68 1 1.36 1 0 1 C0 0.67 0 0.34 0 0 Z " fill="#FFE6BD" transform="translate(611,470)"/>
<path d="M0 0 C1.32 0.33 2.64 0.66 4 1 C3.01 1.33 2.02 1.66 1 2 C0.67 1.34 0.34 0.68 0 0 Z " fill="#FEE6BA" transform="translate(421,326)"/>
<path d="M0 0 C1.65 0 3.3 0 5 0 C4.34 0.66 3.68 1.32 3 2 C2.01 1.34 1.02 0.68 0 0 Z " fill="#FEE7BF" transform="translate(433,318)"/>
<path d="M0 0 C1.65 0 3.3 0 5 0 C5 0.33 5 0.66 5 1 C3.35 1 1.7 1 0 1 C0 0.67 0 0.34 0 0 Z " fill="#FACC87" transform="translate(292,535)"/>
<path d="M0 0 C1.32 0.33 2.64 0.66 4 1 C3.01 1.495 3.01 1.495 2 2 C1.34 1.34 0.68 0.68 0 0 Z " fill="#FFE6BD" transform="translate(520,520)"/>
<path d="M0 0 C0.99 0.495 0.99 0.495 2 1 C1.01 2.485 1.01 2.485 0 4 C0 2.68 0 1.36 0 0 Z " fill="#F2C174" transform="translate(280,448)"/>
<path d="M0 0 C1.485 0.99 1.485 0.99 3 2 C1.68 1.67 0.36 1.34 -1 1 C-0.67 0.67 -0.34 0.34 0 0 Z " fill="#FDE3B7" transform="translate(397,350)"/>
<path d="M0 0 C0.66 0.33 1.32 0.66 2 1 C1.01 1 0.02 1 -1 1 C-0.67 0.67 -0.34 0.34 0 0 Z " fill="#FFE3B6" transform="translate(600,560)"/>
<path d="M0 0 C4 1 4 1 4 1 Z " fill="#FDDDA5" transform="translate(373,535)"/>
<path d="M0 0 C4 1 4 1 4 1 Z " fill="#FFEABF" transform="translate(466,508)"/>
<path d="M0 0 C4 1 4 1 4 1 Z " fill="#FFE9BE" transform="translate(450,508)"/>
<path d="M0 0 C4 1 4 1 4 1 Z " fill="#FFE8BC" transform="translate(375,508)"/>
<path d="M0 0 C4 1 4 1 4 1 Z " fill="#FFEABD" transform="translate(498,505)"/>
<path d="M0 0 C0.99 0.33 1.98 0.66 3 1 C2.01 1 1.02 1 0 1 C0 0.67 0 0.34 0 0 Z " fill="#FEE6BB" transform="translate(537,496)"/>
<path d="M0 0 C1.485 0.99 1.485 0.99 3 2 C2.01 2 1.02 2 0 2 C0 1.34 0 0.68 0 0 Z " fill="#FEE6BC" transform="translate(630,478)"/>
<path d="M0 0 C0.66 0 1.32 0 2 0 C2 0.66 2 1.32 2 2 C1.34 2 0.68 2 0 2 C0 1.34 0 0.68 0 0 Z " fill="#FEE5BB" transform="translate(599,475)"/>
<path d="M0 0 C0.66 0.66 1.32 1.32 2 2 C1.01 1.67 0.02 1.34 -1 1 C-0.67 0.67 -0.34 0.34 0 0 Z " fill="#FFE6BE" transform="translate(565,470)"/>
<path d="M0 0 C0.99 0.33 1.98 0.66 3 1 C2.01 1.33 1.02 1.66 0 2 C0 1.34 0 0.68 0 0 Z " fill="#FEE6BE" transform="translate(608,469)"/>
<path d="M0 0 C4 1 4 1 4 1 Z " fill="#FEE7BE" transform="translate(580,467)"/>
<path d="M0 0 C0.99 0.495 0.99 0.495 2 1 C1.67 1.66 1.34 2.32 1 3 C0.67 2.01 0.34 1.02 0 0 Z " fill="#F8CF91" transform="translate(646,329)"/>
<path d="M0 0 C0.99 0.33 1.98 0.66 3 1 C2.01 1.33 1.02 1.66 0 2 C0 1.34 0 0.68 0 0 Z " fill="#F8CF91" transform="translate(424,290)"/>
<path d="M0 0 C0.33 0.66 0.66 1.32 1 2 C0.34 1.67 -0.32 1.34 -1 1 C-0.67 0.67 -0.34 0.34 0 0 Z " fill="#F8CD86" transform="translate(620,597)"/>
<path d="M0 0 C0.99 0.495 0.99 0.495 2 1 C1.01 1.495 1.01 1.495 0 2 C0 1.34 0 0.68 0 0 Z " fill="#F9CD8B" transform="translate(646,566)"/>
<path d="M0 0 C3 1 3 1 3 1 Z " fill="#FBD495" transform="translate(360,555)"/>
<path d="M0 0 C3 1 3 1 3 1 Z " fill="#FEDEAB" transform="translate(380,535)"/>
<path d="M0 0 C3 1 3 1 3 1 Z " fill="#FED9A0" transform="translate(364,535)"/>
<path d="M0 0 C3 1 3 1 3 1 Z " fill="#FCD396" transform="translate(324,535)"/>
<path d="" fill="#FEE5BC" transform="translate(0,0)"/>
<path d="M0 0 C0.66 0 1.32 0 2 0 C1.67 0.66 1.34 1.32 1 2 C0.67 1.34 0.34 0.68 0 0 Z " fill="#FEE3B7" transform="translate(604,526)"/>
<path d="M0 0 C3 1 3 1 3 1 Z " fill="#FEE4BB" transform="translate(579,519)"/>
<path d="M0 0 C0.99 0.495 0.99 0.495 2 1 C1.01 1.495 1.01 1.495 0 2 C0 1.34 0 0.68 0 0 Z " fill="#EDBE75" transform="translate(256,512)"/>
<path d="M0 0 C3 1 3 1 3 1 Z " fill="#FFEABE" transform="translate(475,508)"/>
<path d="M0 0 C0.66 0.66 1.32 1.32 2 2 C1.34 2 0.68 2 0 2 C0 1.34 0 0.68 0 0 Z " fill="#FFE9C0" transform="translate(463,507)"/>
<path d="M0 0 C3 1 3 1 3 1 Z " fill="#FFE9BF" transform="translate(419,508)"/>
<path d="M0 0 C3 1 3 1 3 1 Z " fill="#FFEBC0" transform="translate(403,508)"/>
<path d="M0 0 C3 1 3 1 3 1 Z " fill="#FEDEA8" transform="translate(322,508)"/>
<path d="M0 0 C3 1 3 1 3 1 Z " fill="#FFE8BE" transform="translate(453,505)"/>
<path d="M0 0 C0.33 0.66 0.66 1.32 1 2 C0.34 1.67 -0.32 1.34 -1 1 C-0.67 0.67 -0.34 0.34 0 0 Z " fill="#FCD191" transform="translate(701,502)"/>
<path d="M0 0 C0.66 0.66 1.32 1.32 2 2 C1.34 2 0.68 2 0 2 C0 1.34 0 0.68 0 0 Z " fill="#FEE3B8" transform="translate(640,486)"/>
<path d="" fill="#FFE4BA" transform="translate(0,0)"/>
<path d="M0 0 C0.99 0.495 0.99 0.495 2 1 C1.01 1.495 1.01 1.495 0 2 C0 1.34 0 0.68 0 0 Z " fill="#FEE5BC" transform="translate(468,484)"/>
<path d="M0 0 C0.66 0 1.32 0 2 0 C1.67 0.66 1.34 1.32 1 2 C0.67 1.34 0.34 0.68 0 0 Z " fill="#FEE7BD" transform="translate(553,482)"/>
<path d="M0 0 C3 1 3 1 3 1 Z " fill="#FEE8BC" transform="translate(613,480)"/>
<path d="M0 0 C0.33 0.66 0.66 1.32 1 2 C0.34 1.67 -0.32 1.34 -1 1 C-0.67 0.67 -0.34 0.34 0 0 Z " fill="#F5C988" transform="translate(734,478)"/>
<path d="M0 0 C0.66 0.66 1.32 1.32 2 2 C1.34 2 0.68 2 0 2 C0 1.34 0 0.68 0 0 Z " fill="#FFE6BB" transform="translate(604,476)"/>
<path d="M0 0 C0.66 0.66 1.32 1.32 2 2 C1.34 2 0.68 2 0 2 C0 1.34 0 0.68 0 0 Z " fill="#FFE6BA" transform="translate(466,475)"/>
<path d="M0 0 C3 1 3 1 3 1 Z " fill="#FFE6BF" transform="translate(584,475)"/>
<path d="" fill="#FEE3B5" transform="translate(0,0)"/>
<path d="M0 0 C0.99 0.495 0.99 0.495 2 1 C1.01 1.495 1.01 1.495 0 2 C0 1.34 0 0.68 0 0 Z " fill="#FEE5B9" transform="translate(418,339)"/>
<path d="M0 0 C0.99 0.495 0.99 0.495 2 1 C1.01 1.495 1.01 1.495 0 2 C0 1.34 0 0.68 0 0 Z " fill="#FDE5BC" transform="translate(416,337)"/>
<path d="M0 0 C0.66 0 1.32 0 2 0 C1.67 0.66 1.34 1.32 1 2 C0.67 1.34 0.34 0.68 0 0 Z " fill="#FEE6BC" transform="translate(431,319)"/>
<path d="M0 0 C0.99 0.495 0.99 0.495 2 1 C1.01 1.495 1.01 1.495 0 2 C0 1.34 0 0.68 0 0 Z " fill="#FAD191" transform="translate(392,314)"/>
<path d="M0 0 C0.66 0 1.32 0 2 0 C1.67 0.66 1.34 1.32 1 2 C0.67 1.34 0.34 0.68 0 0 Z " fill="#F9D091" transform="translate(622,306)"/>
<path d="M0 0 C0.33 0.66 0.66 1.32 1 2 C0.34 1.67 -0.32 1.34 -1 1 C-0.67 0.67 -0.34 0.34 0 0 Z " fill="#FAD396" transform="translate(465,272)"/>
<path d="M0 0 C2 1 2 1 2 1 Z " fill="#F9D18C" transform="translate(502,611)"/>
<path d="M0 0 C2 1 2 1 2 1 Z " fill="#F8CF89" transform="translate(486,611)"/>
<path d="M0 0 C2 1 2 1 2 1 Z " fill="#F9CE86" transform="translate(470,611)"/>
<path d="M0 0 C2 1 2 1 2 1 Z " fill="#F9CD89" transform="translate(462,611)"/>
<path d="M0 0 C2 1 2 1 2 1 Z " fill="#F9CB81" transform="translate(438,611)"/>
<path d="M0 0 C2 1 2 1 2 1 Z " fill="#F8C87E" transform="translate(430,611)"/>
<path d="" fill="#F7C370" transform="translate(0,0)"/>
<path d="M0 0 C2 1 2 1 2 1 Z " fill="#F8CD85" transform="translate(604,606)"/>
<path d="" fill="#F7C578" transform="translate(0,0)"/>
<path d="M0 0 C2 1 2 1 2 1 Z " fill="#FFE4B6" transform="translate(510,571)"/>
<path d="" fill="#F8CD8D" transform="translate(0,0)"/>
<path d="M0 0 C2 1 2 1 2 1 Z " fill="#FFE2B7" transform="translate(509,562)"/>
<path d="" fill="#FFE4BB" transform="translate(0,0)"/>
<path d="" fill="#FEE4BA" transform="translate(0,0)"/>
<path d="M0 0 C2 1 2 1 2 1 Z " fill="#FFE4B6" transform="translate(444,535)"/>
<path d="M0 0 C2 1 2 1 2 1 Z " fill="#FFE4B6" transform="translate(436,535)"/>
<path d="M0 0 C2 1 2 1 2 1 Z " fill="#FFE3B5" transform="translate(420,535)"/>
<path d="M0 0 C2 1 2 1 2 1 Z " fill="#FFE3B4" transform="translate(412,535)"/>
<path d="M0 0 C2 1 2 1 2 1 Z " fill="#FEE2B3" transform="translate(400,535)"/>
<path d="M0 0 C2 1 2 1 2 1 Z " fill="#FED99E" transform="translate(357,535)"/>
<path d="M0 0 C2 1 2 1 2 1 Z " fill="#FDD89C" transform="translate(348,535)"/>
<path d="M0 0 C2 1 2 1 2 1 Z " fill="#FCD293" transform="translate(316,535)"/>
<path d="M0 0 C2 1 2 1 2 1 Z " fill="#FBD392" transform="translate(312,535)"/>
<path d="M0 0 C2 1 2 1 2 1 Z " fill="#FBD08E" transform="translate(308,535)"/>
<path d="M0 0 C2 1 2 1 2 1 Z " fill="#F9CC85" transform="translate(288,535)"/>
<path d="M0 0 C2 1 2 1 2 1 Z " fill="#FBCC84" transform="translate(284,535)"/>
<path d="M0 0 C2 1 2 1 2 1 Z " fill="#F8C981" transform="translate(279,535)"/>
<path d="M0 0 C2 1 2 1 2 1 Z " fill="#F6C77E" transform="translate(271,535)"/>
<path d="M0 0 C2 1 2 1 2 1 Z " fill="#F7C67B" transform="translate(268,535)"/>
<path d="M0 0 C2 1 2 1 2 1 Z " fill="#F1BD6E" transform="translate(263,535)"/>
<path d="M0 0 C2 1 2 1 2 1 Z " fill="#F1B964" transform="translate(260,534)"/>
<path d="" fill="#FEE2B8" transform="translate(0,0)"/>
<path d="" fill="#FAD69C" transform="translate(0,0)"/>
<path d="" fill="#FEE5BC" transform="translate(0,0)"/>
<path d="M0 0 C2 1 2 1 2 1 Z " fill="#FFE5B7" transform="translate(600,523)"/>
<path d="" fill="#FDE2B2" transform="translate(0,0)"/>
<path d="M0 0 C2 1 2 1 2 1 Z " fill="#FFE8BB" transform="translate(511,508)"/>
<path d="M0 0 C2 1 2 1 2 1 Z " fill="#FFE9BC" transform="translate(500,508)"/>
<path d="M0 0 C2 1 2 1 2 1 Z " fill="#FFEABE" transform="translate(495,508)"/>
<path d="M0 0 C2 1 2 1 2 1 Z " fill="#FFEABE" transform="translate(492,508)"/>
<path d="M0 0 C2 1 2 1 2 1 Z " fill="#FFEABF" transform="translate(487,508)"/>
<path d="M0 0 C2 1 2 1 2 1 Z " fill="#FFEAC0" transform="translate(479,508)"/>
<path d="M0 0 C2 1 2 1 2 1 Z " fill="#FFEBC1" transform="translate(471,508)"/>
<path d="M0 0 C2 1 2 1 2 1 Z " fill="#FFEAC0" transform="translate(460,508)"/>
<path d="M0 0 C2 1 2 1 2 1 Z " fill="#FFEAC1" transform="translate(455,508)"/>
<path d="M0 0 C2 1 2 1 2 1 Z " fill="#FFEBC1" transform="translate(447,508)"/>
<path d="M0 0 C2 1 2 1 2 1 Z " fill="#FFEAC0" transform="translate(444,508)"/>
<path d="M0 0 C2 1 2 1 2 1 Z " fill="#FFEBC0" transform="translate(436,508)"/>
<path d="M0 0 C2 1 2 1 2 1 Z " fill="#FFEBC1" transform="translate(431,508)"/>
<path d="M0 0 C2 1 2 1 2 1 Z " fill="#FFEBC1" transform="translate(423,508)"/>
<path d="M0 0 C2 1 2 1 2 1 Z " fill="#FFEAC3" transform="translate(407,508)"/>
<path d="M0 0 C2 1 2 1 2 1 Z " fill="#FFE9C0" transform="translate(399,508)"/>
<path d="M0 0 C2 1 2 1 2 1 Z " fill="#FFEABE" transform="translate(396,508)"/>
<path d="M0 0 C2 1 2 1 2 1 Z " fill="#FFEABE" transform="translate(391,508)"/>
<path d="M0 0 C2 1 2 1 2 1 Z " fill="#FFEABE" transform="translate(383,508)"/>
<path d="M0 0 C2 1 2 1 2 1 Z " fill="#FFE8BC" transform="translate(372,508)"/>
<path d="M0 0 C2 1 2 1 2 1 Z " fill="#FFE7BB" transform="translate(367,508)"/>
<path d="M0 0 C2 1 2 1 2 1 Z " fill="#FFE4B1" transform="translate(348,508)"/>
<path d="M0 0 C2 1 2 1 2 1 Z " fill="#FFE1AC" transform="translate(340,508)"/>
<path d="M0 0 C2 1 2 1 2 1 Z " fill="#FEE0AC" transform="translate(332,508)"/>
<path d="M0 0 C2 1 2 1 2 1 Z " fill="#FCDAA3" transform="translate(308,508)"/>
<path d="M0 0 C2 1 2 1 2 1 Z " fill="#FCD99F" transform="translate(300,508)"/>
<path d="M0 0 C2 1 2 1 2 1 Z " fill="#FBD59A" transform="translate(292,508)"/>
<path d="M0 0 C2 1 2 1 2 1 Z " fill="#FBD496" transform="translate(287,508)"/>
<path d="M0 0 C2 1 2 1 2 1 Z " fill="#FACD88" transform="translate(276,508)"/>
<path d="M0 0 C2 1 2 1 2 1 Z " fill="#F6C97F" transform="translate(268,508)"/>
<path d="M0 0 C2 1 2 1 2 1 Z " fill="#FFE4B2" transform="translate(517,506)"/>
<path d="M0 0 C2 1 2 1 2 1 Z " fill="#FFE5BB" transform="translate(529,504)"/>
<path d="M0 0 C2 1 2 1 2 1 Z " fill="#FACF8F" transform="translate(703,502)"/>
<path d="M0 0 C2 1 2 1 2 1 Z " fill="#FFE5B8" transform="translate(535,499)"/>
<path d="" fill="#FFE5BC" transform="translate(0,0)"/>
<path d="M0 0 C2 1 2 1 2 1 Z " fill="#FCE4BD" transform="translate(628,488)"/>
<path d="M0 0 C2 1 2 1 2 1 Z " fill="#FEE7BD" transform="translate(544,488)"/>
<path d="" fill="#F4C786" transform="translate(0,0)"/>
<path d="" fill="#FFE5B8" transform="translate(0,0)"/>
<path d="" fill="#FDE5BD" transform="translate(0,0)"/>
<path d="M0 0 C2 1 2 1 2 1 Z " fill="#FFE8BC" transform="translate(562,480)"/>
<path d="" fill="#FFE6BB" transform="translate(0,0)"/>
<path d="M0 0 C2 1 2 1 2 1 Z " fill="#FFE3B3" transform="translate(397,474)"/>
<path d="M0 0 C2 1 2 1 2 1 Z " fill="#F5C77B" transform="translate(739,470)"/>
<path d="M0 0 C2 1 2 1 2 1 Z " fill="#FEE6BE" transform="translate(603,470)"/>
<path d="M0 0 C2 1 2 1 2 1 Z " fill="#FEE6BD" transform="translate(580,470)"/>
<path d="M0 0 C2 1 2 1 2 1 Z " fill="#FEE7BF" transform="translate(567,470)"/>
<path d="" fill="#FFE6BB" transform="translate(0,0)"/>
<path d="" fill="#F5C57E" transform="translate(0,0)"/>
<path d="M0 0 C2 1 2 1 2 1 Z " fill="#FFE5BC" transform="translate(590,467)"/>
<path d="" fill="#F3C57C" transform="translate(0,0)"/>
<path d="M0 0 C2 1 2 1 2 1 Z " fill="#FFE8BD" transform="translate(503,443)"/>
<path d="M0 0 C2 1 2 1 2 1 Z " fill="#FFE8BD" transform="translate(479,443)"/>
<path d="M0 0 C2 1 2 1 2 1 Z " fill="#FFE8BD" transform="translate(399,443)"/>
<path d="" fill="#FBD597" transform="translate(0,0)"/>
<path d="M0 0 C2 1 2 1 2 1 Z " fill="#FBD494" transform="translate(683,406)"/>
<path d="" fill="#FFEBC7" transform="translate(0,0)"/>
<path d="M0 0 C2 1 2 1 2 1 Z " fill="#FFEAC3" transform="translate(380,404)"/>
<path d="M0 0 C2 1 2 1 2 1 Z " fill="#FFE9C4" transform="translate(372,404)"/>
<path d="" fill="#FFEAC3" transform="translate(0,0)"/>
<path d="" fill="#FFE6BC" transform="translate(0,0)"/>
<path d="" fill="#FFE3B8" transform="translate(0,0)"/>
<path d="" fill="#F9D193" transform="translate(0,0)"/>
<path d="" fill="#FDE1B8" transform="translate(0,0)"/>
<path d="" fill="#F9D296" transform="translate(0,0)"/>
<path d="" fill="#FEE3B5" transform="translate(0,0)"/>
<path d="" fill="#FFE5BB" transform="translate(0,0)"/>
<path d="M0 0 C2 1 2 1 2 1 Z " fill="#FCD290" transform="translate(360,355)"/>
<path d="" fill="#F9CF8B" transform="translate(0,0)"/>
<path d="" fill="#FAD190" transform="translate(0,0)"/>
<path d="" fill="#F8CD92" transform="translate(0,0)"/>
<path d="" fill="#FFE6BA" transform="translate(0,0)"/>
<path d="" fill="#F7D28D" transform="translate(0,0)"/>
<path d="M0 0 C2 1 2 1 2 1 Z " fill="#F9D093" transform="translate(416,296)"/>
<path d="M0 0 C2 1 2 1 2 1 Z " fill="#F8D091" transform="translate(436,284)"/>
<path d="M0 0 C2 1 2 1 2 1 Z " fill="#FAD293" transform="translate(566,275)"/>
<path d="M0 0 C2 1 2 1 2 1 Z " fill="#F9D197" transform="translate(558,272)"/>
<path d="M0 0 C2 1 2 1 2 1 Z " fill="#FFDFA9" transform="translate(528,267)"/>
<path d="M0 0 C2 1 2 1 2 1 Z " fill="#F2C376" transform="translate(513,241)"/>
<path d="" fill="#6F4000" transform="translate(0,0)"/>
<path d="" fill="#7E4C00" transform="translate(0,0)"/>
<path d="" fill="#8A5400" transform="translate(0,0)"/>
<path d="" fill="#855100" transform="translate(0,0)"/>
<path d="" fill="#855000" transform="translate(0,0)"/>
<path d="" fill="#804D00" transform="translate(0,0)"/>
<path d="" fill="#794800" transform="translate(0,0)"/>
<path d="" fill="#7E4B00" transform="translate(0,0)"/>
<path d="" fill="#814C00" transform="translate(0,0)"/>
<path d="" fill="#895300" transform="translate(0,0)"/>
<path d="" fill="#7E4B00" transform="translate(0,0)"/>
<path d="" fill="#895300" transform="translate(0,0)"/>
<path d="" fill="#814C00" transform="translate(0,0)"/>
<path d="" fill="#6B3E00" transform="translate(0,0)"/>
<path d="" fill="#855100" transform="translate(0,0)"/>
<path d="" fill="#8A5400" transform="translate(0,0)"/>
<path d="" fill="#8A5400" transform="translate(0,0)"/>
<path d="" fill="#895400" transform="translate(0,0)"/>
<path d="" fill="#6B3F00" transform="translate(0,0)"/>
<path d="" fill="#6C3E00" transform="translate(0,0)"/>
<path d="" fill="#704100" transform="translate(0,0)"/>
<path d="" fill="#744300" transform="translate(0,0)"/>
<path d="" fill="#7A4800" transform="translate(0,0)"/>
<path d="" fill="#885400" transform="translate(0,0)"/>
<path d="" fill="#8C5500" transform="translate(0,0)"/>
<path d="" fill="#8A5400" transform="translate(0,0)"/>
<path d="" fill="#7D4D00" transform="translate(0,0)"/>
<path d="" fill="#774700" transform="translate(0,0)"/>
<path d="" fill="#744500" transform="translate(0,0)"/>
<path d="" fill="#764600" transform="translate(0,0)"/>
<path d="" fill="#835000" transform="translate(0,0)"/>
<path d="" fill="#875200" transform="translate(0,0)"/>
<path d="" fill="#8B5700" transform="translate(0,0)"/>
<path d="" fill="#6F4100" transform="translate(0,0)"/>
<path d="" fill="#855100" transform="translate(0,0)"/>
<path d="" fill="#6F4100" transform="translate(0,0)"/>
<path d="" fill="#734400" transform="translate(0,0)"/>
<path d="" fill="#7B4900" transform="translate(0,0)"/>
<path d="" fill="#845000" transform="translate(0,0)"/>
<path d="" fill="#895400" transform="translate(0,0)"/>
<path d="" fill="#774600" transform="translate(0,0)"/>
<path d="" fill="#714100" transform="translate(0,0)"/>
<path d="" fill="#744300" transform="translate(0,0)"/>
<path d="" fill="#784700" transform="translate(0,0)"/>
<path d="" fill="#704100" transform="translate(0,0)"/>
<path d="" fill="#744400" transform="translate(0,0)"/>
<path d="" fill="#7C4900" transform="translate(0,0)"/>
<path d="" fill="#865100" transform="translate(0,0)"/>
<path d="" fill="#8D5700" transform="translate(0,0)"/>
<path d="" fill="#8D5800" transform="translate(0,0)"/>
<path d="" fill="#8D5600" transform="translate(0,0)"/>
<path d="" fill="#764500" transform="translate(0,0)"/>
<path d="" fill="#7D4B00" transform="translate(0,0)"/>
<path d="" fill="#875200" transform="translate(0,0)"/>
<path d="" fill="#8E5900" transform="translate(0,0)"/>
<path d="" fill="#734100" transform="translate(0,0)"/>
<path d="" fill="#724100" transform="translate(0,0)"/>
<path d="" fill="#814C00" transform="translate(0,0)"/>
<path d="" fill="#8C5700" transform="translate(0,0)"/>
<path d="" fill="#6F3E00" transform="translate(0,0)"/>
<path d="" fill="#6C3E00" transform="translate(0,0)"/>
<path d="" fill="#724200" transform="translate(0,0)"/>
<path d="" fill="#734300" transform="translate(0,0)"/>
<path d="" fill="#754300" transform="translate(0,0)"/>
<path d="" fill="#7C4800" transform="translate(0,0)"/>
<path d="" fill="#7C4B00" transform="translate(0,0)"/>
<path d="" fill="#885300" transform="translate(0,0)"/>
<path d="" fill="#885300" transform="translate(0,0)"/>
<path d="" fill="#8F5800" transform="translate(0,0)"/>
<path d="" fill="#8F5A00" transform="translate(0,0)"/>
<path d="" fill="#895500" transform="translate(0,0)"/>
<path d="" fill="#734200" transform="translate(0,0)"/>
<path d="" fill="#744300" transform="translate(0,0)"/>
<path d="" fill="#774500" transform="translate(0,0)"/>
<path d="" fill="#784700" transform="translate(0,0)"/>
<path d="" fill="#794800" transform="translate(0,0)"/>
<path d="" fill="#7E4900" transform="translate(0,0)"/>
<path d="" fill="#854F00" transform="translate(0,0)"/>
<path d="" fill="#885100" transform="translate(0,0)"/>
<path d="" fill="#8B5600" transform="translate(0,0)"/>
<path d="" fill="#935900" transform="translate(0,0)"/>
<path d="" fill="#915C00" transform="translate(0,0)"/>
<path d="" fill="#8C5600" transform="translate(0,0)"/>
<path d="" fill="#7F4D00" transform="translate(0,0)"/>
<path d="" fill="#7A4800" transform="translate(0,0)"/>
<path d="" fill="#6E3F00" transform="translate(0,0)"/>
<path d="" fill="#744400" transform="translate(0,0)"/>
<path d="" fill="#814C00" transform="translate(0,0)"/>
<path d="" fill="#7E4900" transform="translate(0,0)"/>
<path d="" fill="#824F00" transform="translate(0,0)"/>
<path d="" fill="#8B5500" transform="translate(0,0)"/>
<path d="" fill="#905800" transform="translate(0,0)"/>
<path d="" fill="#8E5800" transform="translate(0,0)"/>
<path d="" fill="#774600" transform="translate(0,0)"/>
<path d="" fill="#965D00" transform="translate(0,0)"/>
<path d="" fill="#8C5500" transform="translate(0,0)"/>
<path d="" fill="#774500" transform="translate(0,0)"/>
<path d="" fill="#784500" transform="translate(0,0)"/>
<path d="" fill="#784600" transform="translate(0,0)"/>
<path d="" fill="#935D00" transform="translate(0,0)"/>
<path d="" fill="#835000" transform="translate(0,0)"/>
<path d="" fill="#814C00" transform="translate(0,0)"/>
<path d="" fill="#724200" transform="translate(0,0)"/>
<path d="" fill="#734200" transform="translate(0,0)"/>
<path d="" fill="#9D6200" transform="translate(0,0)"/>
<path d="" fill="#965D00" transform="translate(0,0)"/>
<path d="" fill="#794700" transform="translate(0,0)"/>
<path d="" fill="#834F00" transform="translate(0,0)"/>
<path d="" fill="#985D00" transform="translate(0,0)"/>
<path d="" fill="#7C4800" transform="translate(0,0)"/>
<path d="" fill="#A86A00" transform="translate(0,0)"/>
<path d="" fill="#A86B00" transform="translate(0,0)"/>
<path d="" fill="#A26800" transform="translate(0,0)"/>
<path d="" fill="#7D4800" transform="translate(0,0)"/>
<path d="" fill="#A16600" transform="translate(0,0)"/>
<path d="" fill="#AA6D00" transform="translate(0,0)"/>
<path d="" fill="#7A4700" transform="translate(0,0)"/>
<path d="" fill="#7E4B00" transform="translate(0,0)"/>
<path d="" fill="#A56900" transform="translate(0,0)"/>
<path d="" fill="#965C00" transform="translate(0,0)"/>
<path d="" fill="#8D5500" transform="translate(0,0)"/>
<path d="" fill="#905800" transform="translate(0,0)"/>
<path d="" fill="#895100" transform="translate(0,0)"/>
<path d="" fill="#935B00" transform="translate(0,0)"/>
<path d="" fill="#A06400" transform="translate(0,0)"/>
<path d="" fill="#AF7002" transform="translate(0,0)"/>
<path d="" fill="#A56800" transform="translate(0,0)"/>
<path d="" fill="#C4820D" transform="translate(0,0)"/>
<path d="" fill="#925900" transform="translate(0,0)"/>
<path d="" fill="#8E5600" transform="translate(0,0)"/>
<path d="" fill="#F9CD84" transform="translate(0,0)"/>
<path d="" fill="#F9CB81" transform="translate(0,0)"/>
<path d="" fill="#FAD08C" transform="translate(0,0)"/>
<path d="" fill="#FBD08C" transform="translate(0,0)"/>
<path d="" fill="#FBD088" transform="translate(0,0)"/>
<path d="" fill="#F7CC85" transform="translate(0,0)"/>
<path d="" fill="#F8C67B" transform="translate(0,0)"/>
<path d="" fill="#F7CC7D" transform="translate(0,0)"/>
<path d="" fill="#F6C67A" transform="translate(0,0)"/>
<path d="" fill="#F8CC81" transform="translate(0,0)"/>
<path d="" fill="#FACB88" transform="translate(0,0)"/>
<path d="" fill="#F8C987" transform="translate(0,0)"/>
<path d="" fill="#F8CE8B" transform="translate(0,0)"/>
<path d="" fill="#F8CF8E" transform="translate(0,0)"/>
<path d="" fill="#FBD798" transform="translate(0,0)"/>
<path d="" fill="#FBD495" transform="translate(0,0)"/>
<path d="" fill="#FFDCA2" transform="translate(0,0)"/>
<path d="" fill="#FFDE9F" transform="translate(0,0)"/>
<path d="" fill="#FFDA9D" transform="translate(0,0)"/>
<path d="" fill="#9A6000" transform="translate(0,0)"/>
<path d="" fill="#FFE4B3" transform="translate(0,0)"/>
<path d="" fill="#FFE5B4" transform="translate(0,0)"/>
<path d="" fill="#FFE2B0" transform="translate(0,0)"/>
<path d="" fill="#F9CF88" transform="translate(0,0)"/>
<path d="" fill="#FFE3B3" transform="translate(0,0)"/>
<path d="" fill="#FFE1AE" transform="translate(0,0)"/>
<path d="" fill="#FEDCA3" transform="translate(0,0)"/>
<path d="" fill="#FCDAA1" transform="translate(0,0)"/>
<path d="" fill="#FDE4B7" transform="translate(0,0)"/>
<path d="" fill="#FACF89" transform="translate(0,0)"/>
<path d="" fill="#F8C87C" transform="translate(0,0)"/>
<path d="" fill="#FACC87" transform="translate(0,0)"/>
<path d="" fill="#F9CF89" transform="translate(0,0)"/>
<path d="" fill="#FACD89" transform="translate(0,0)"/>
<path d="" fill="#FFE4B6" transform="translate(0,0)"/>
<path d="" fill="#FEE5B7" transform="translate(0,0)"/>
<path d="" fill="#FFE3B6" transform="translate(0,0)"/>
<path d="" fill="#FFE6B8" transform="translate(0,0)"/>
<path d="" fill="#FFE4B8" transform="translate(0,0)"/>
<path d="" fill="#FFE5B8" transform="translate(0,0)"/>
<path d="" fill="#FFE6B5" transform="translate(0,0)"/>
<path d="" fill="#FFE3B8" transform="translate(0,0)"/>
<path d="" fill="#FFE8B9" transform="translate(0,0)"/>
<path d="" fill="#FFE4B7" transform="translate(0,0)"/>
<path d="" fill="#FEE4B8" transform="translate(0,0)"/>
<path d="" fill="#FFE7BF" transform="translate(0,0)"/>
<path d="" fill="#FFE5B9" transform="translate(0,0)"/>
<path d="" fill="#FFE6B7" transform="translate(0,0)"/>
<path d="" fill="#FEE6BD" transform="translate(0,0)"/>
<path d="" fill="#FFE4B7" transform="translate(0,0)"/>
<path d="" fill="#FFE4B9" transform="translate(0,0)"/>
<path d="" fill="#FFE7B9" transform="translate(0,0)"/>
<path d="" fill="#FBD59A" transform="translate(0,0)"/>
<path d="" fill="#FFE8C4" transform="translate(0,0)"/>
<path d="" fill="#FFE6BF" transform="translate(0,0)"/>
<path d="" fill="#FFE5B5" transform="translate(0,0)"/>
<path d="" fill="#FFE1B5" transform="translate(0,0)"/>
<path d="" fill="#FEE4B6" transform="translate(0,0)"/>
<path d="" fill="#FFE4B5" transform="translate(0,0)"/>
<path d="" fill="#FEE4B6" transform="translate(0,0)"/>
<path d="" fill="#FFE4B2" transform="translate(0,0)"/>
<path d="" fill="#FEE1AF" transform="translate(0,0)"/>
<path d="" fill="#FFE2AD" transform="translate(0,0)"/>
<path d="" fill="#FEDDAA" transform="translate(0,0)"/>
<path d="" fill="#FEDCA6" transform="translate(0,0)"/>
<path d="" fill="#FFDA9F" transform="translate(0,0)"/>
<path d="" fill="#FFDA9D" transform="translate(0,0)"/>
<path d="" fill="#FED697" transform="translate(0,0)"/>
<path d="" fill="#FCD696" transform="translate(0,0)"/>
<path d="" fill="#FBD08C" transform="translate(0,0)"/>
<path d="" fill="#FBD18E" transform="translate(0,0)"/>
<path d="" fill="#F9C87F" transform="translate(0,0)"/>
<path d="" fill="#B77607" transform="translate(0,0)"/>
<path d="" fill="#F3B75E" transform="translate(0,0)"/>
<path d="" fill="#FFE3B8" transform="translate(0,0)"/>
<path d="" fill="#FEE4B9" transform="translate(0,0)"/>
<path d="" fill="#FFE2B2" transform="translate(0,0)"/>
<path d="" fill="#FEDAA1" transform="translate(0,0)"/>
<path d="" fill="#FFE4B6" transform="translate(0,0)"/>
<path d="" fill="#F0BA65" transform="translate(0,0)"/>
<path d="" fill="#FEDBA1" transform="translate(0,0)"/>
<path d="" fill="#FFE8BE" transform="translate(0,0)"/>
<path d="" fill="#FFE6BB" transform="translate(0,0)"/>
<path d="" fill="#FEE2B2" transform="translate(0,0)"/>
<path d="" fill="#FFE5B8" transform="translate(0,0)"/>
<path d="" fill="#FFE4B2" transform="translate(0,0)"/>
<path d="" fill="#FFE4BB" transform="translate(0,0)"/>
<path d="" fill="#FFE6B5" transform="translate(0,0)"/>
<path d="" fill="#FFE9BD" transform="translate(0,0)"/>
<path d="" fill="#FFEBC0" transform="translate(0,0)"/>
<path d="" fill="#FFEAC0" transform="translate(0,0)"/>
<path d="" fill="#FFEAC1" transform="translate(0,0)"/>
<path d="" fill="#FFEAC2" transform="translate(0,0)"/>
<path d="" fill="#FFEABD" transform="translate(0,0)"/>
<path d="" fill="#FFE9BD" transform="translate(0,0)"/>
<path d="" fill="#FFE8B9" transform="translate(0,0)"/>
<path d="" fill="#FFE6B8" transform="translate(0,0)"/>
<path d="" fill="#FFE4B3" transform="translate(0,0)"/>
<path d="" fill="#FFE3AE" transform="translate(0,0)"/>
<path d="" fill="#FFDFAC" transform="translate(0,0)"/>
<path d="" fill="#FFDEAB" transform="translate(0,0)"/>
<path d="" fill="#FDDEA8" transform="translate(0,0)"/>
<path d="" fill="#FFDEA5" transform="translate(0,0)"/>
<path d="" fill="#FFDBA4" transform="translate(0,0)"/>
<path d="" fill="#FFD99F" transform="translate(0,0)"/>
<path d="" fill="#FDD89D" transform="translate(0,0)"/>
<path d="" fill="#FAD294" transform="translate(0,0)"/>
<path d="" fill="#FBCF8B" transform="translate(0,0)"/>
<path d="" fill="#F7CA84" transform="translate(0,0)"/>
<path d="" fill="#FFE6BD" transform="translate(0,0)"/>
<path d="" fill="#FFE2B0" transform="translate(0,0)"/>
<path d="" fill="#FFE3B4" transform="translate(0,0)"/>
<path d="" fill="#FFEBBD" transform="translate(0,0)"/>
<path d="" fill="#FFEABF" transform="translate(0,0)"/>
<path d="" fill="#FFECBF" transform="translate(0,0)"/>
<path d="" fill="#FFEBBE" transform="translate(0,0)"/>
<path d="" fill="#FFEBBD" transform="translate(0,0)"/>
<path d="" fill="#FFE8BE" transform="translate(0,0)"/>
<path d="" fill="#FFE8BD" transform="translate(0,0)"/>
<path d="" fill="#FFEBC0" transform="translate(0,0)"/>
<path d="" fill="#FFEABC" transform="translate(0,0)"/>
<path d="" fill="#FFE9BB" transform="translate(0,0)"/>
<path d="" fill="#FFE7B7" transform="translate(0,0)"/>
<path d="" fill="#FDD99F" transform="translate(0,0)"/>
<path d="" fill="#FEE2B0" transform="translate(0,0)"/>
<path d="" fill="#FDE0B0" transform="translate(0,0)"/>
<path d="" fill="#FEE3B5" transform="translate(0,0)"/>
<path d="" fill="#FAD08B" transform="translate(0,0)"/>
<path d="" fill="#F9CF8F" transform="translate(0,0)"/>
<path d="" fill="#FDD8A0" transform="translate(0,0)"/>
<path d="" fill="#F7D18F" transform="translate(0,0)"/>
<path d="" fill="#FEE1B4" transform="translate(0,0)"/>
<path d="" fill="#FFE3B7" transform="translate(0,0)"/>
<path d="" fill="#F9D08E" transform="translate(0,0)"/>
<path d="" fill="#FFE4BE" transform="translate(0,0)"/>
<path d="" fill="#FFE3BB" transform="translate(0,0)"/>
<path d="" fill="#F7CE8C" transform="translate(0,0)"/>
<path d="" fill="#FEE7BC" transform="translate(0,0)"/>
<path d="" fill="#FFE4B6" transform="translate(0,0)"/>
<path d="" fill="#FFE3B7" transform="translate(0,0)"/>
<path d="" fill="#FFE7BD" transform="translate(0,0)"/>
<path d="" fill="#FDD898" transform="translate(0,0)"/>
<path d="" fill="#FFE6B6" transform="translate(0,0)"/>
<path d="" fill="#FDE5C0" transform="translate(0,0)"/>
<path d="" fill="#FFE7BC" transform="translate(0,0)"/>
<path d="" fill="#FEE9C2" transform="translate(0,0)"/>
<path d="" fill="#FFE7BD" transform="translate(0,0)"/>
<path d="" fill="#FFE5B9" transform="translate(0,0)"/>
<path d="" fill="#FEE6BB" transform="translate(0,0)"/>
<path d="" fill="#FFE6BB" transform="translate(0,0)"/>
<path d="" fill="#FFE7BC" transform="translate(0,0)"/>
<path d="" fill="#FFE9BF" transform="translate(0,0)"/>
<path d="" fill="#FFE7BE" transform="translate(0,0)"/>
<path d="" fill="#FFE7BA" transform="translate(0,0)"/>
<path d="" fill="#FFE7BD" transform="translate(0,0)"/>
<path d="" fill="#FFE5B7" transform="translate(0,0)"/>
<path d="" fill="#FFE6B8" transform="translate(0,0)"/>
<path d="" fill="#FFE7BD" transform="translate(0,0)"/>
<path d="" fill="#FFE8BB" transform="translate(0,0)"/>
<path d="" fill="#FFE8B9" transform="translate(0,0)"/>
<path d="" fill="#FFE8BE" transform="translate(0,0)"/>
<path d="" fill="#FFE7BE" transform="translate(0,0)"/>
<path d="" fill="#FFE6BC" transform="translate(0,0)"/>
<path d="" fill="#FFE7BF" transform="translate(0,0)"/>
<path d="" fill="#FFE7BC" transform="translate(0,0)"/>
<path d="" fill="#FFE6BA" transform="translate(0,0)"/>
<path d="" fill="#FFE6BD" transform="translate(0,0)"/>
<path d="" fill="#FFE7BF" transform="translate(0,0)"/>
<path d="" fill="#FFE7BB" transform="translate(0,0)"/>
<path d="" fill="#FFE5B8" transform="translate(0,0)"/>
<path d="" fill="#FFE7BE" transform="translate(0,0)"/>
<path d="" fill="#FFE4B9" transform="translate(0,0)"/>
<path d="" fill="#FFE6BC" transform="translate(0,0)"/>
<path d="" fill="#F4C578" transform="translate(0,0)"/>
<path d="" fill="#BC7B0A" transform="translate(0,0)"/>
<path d="" fill="#FFE7BC" transform="translate(0,0)"/>
<path d="" fill="#FFE6BB" transform="translate(0,0)"/>
<path d="" fill="#FEE6C3" transform="translate(0,0)"/>
<path d="" fill="#FFE6BB" transform="translate(0,0)"/>
<path d="" fill="#FEE6C0" transform="translate(0,0)"/>
<path d="" fill="#F3C479" transform="translate(0,0)"/>
<path d="" fill="#F2C479" transform="translate(0,0)"/>
<path d="" fill="#A56900" transform="translate(0,0)"/>
<path d="" fill="#F7C883" transform="translate(0,0)"/>
<path d="" fill="#F5C77E" transform="translate(0,0)"/>
<path d="" fill="#F7CC87" transform="translate(0,0)"/>
<path d="" fill="#F9D18E" transform="translate(0,0)"/>
<path d="" fill="#F9D290" transform="translate(0,0)"/>
<path d="" fill="#FAD597" transform="translate(0,0)"/>
<path d="" fill="#FCD699" transform="translate(0,0)"/>
<path d="" fill="#FDDBA1" transform="translate(0,0)"/>
<path d="" fill="#FFE2AE" transform="translate(0,0)"/>
<path d="" fill="#FFE4B1" transform="translate(0,0)"/>
<path d="" fill="#FFE5B6" transform="translate(0,0)"/>
<path d="" fill="#FFE8BA" transform="translate(0,0)"/>
<path d="" fill="#FFE8BC" transform="translate(0,0)"/>
<path d="" fill="#FFE9BE" transform="translate(0,0)"/>
<path d="" fill="#FFEABC" transform="translate(0,0)"/>
<path d="" fill="#FFE9BB" transform="translate(0,0)"/>
<path d="" fill="#FFE8BD" transform="translate(0,0)"/>
<path d="" fill="#FFE9BE" transform="translate(0,0)"/>
<path d="" fill="#FFE9BD" transform="translate(0,0)"/>
<path d="" fill="#FFE7BC" transform="translate(0,0)"/>
<path d="" fill="#FFE7BC" transform="translate(0,0)"/>
<path d="" fill="#FFE8BF" transform="translate(0,0)"/>
<path d="" fill="#FFE9BD" transform="translate(0,0)"/>
<path d="" fill="#FFE9BD" transform="translate(0,0)"/>
<path d="" fill="#FFE8BD" transform="translate(0,0)"/>
<path d="" fill="#FFE9BE" transform="translate(0,0)"/>
<path d="" fill="#FFE8BD" transform="translate(0,0)"/>
<path d="" fill="#FFE9BD" transform="translate(0,0)"/>
<path d="" fill="#FFEABD" transform="translate(0,0)"/>
<path d="" fill="#FFE8BB" transform="translate(0,0)"/>
<path d="" fill="#FFE9BD" transform="translate(0,0)"/>
<path d="" fill="#FFE8BC" transform="translate(0,0)"/>
<path d="" fill="#FFE9BC" transform="translate(0,0)"/>
<path d="" fill="#FFEABD" transform="translate(0,0)"/>
<path d="" fill="#FFEABD" transform="translate(0,0)"/>
<path d="" fill="#FFEABD" transform="translate(0,0)"/>
<path d="" fill="#FFEABD" transform="translate(0,0)"/>
<path d="" fill="#FFE9BC" transform="translate(0,0)"/>
<path d="" fill="#FFE7BC" transform="translate(0,0)"/>
<path d="" fill="#FFEABC" transform="translate(0,0)"/>
<path d="" fill="#FFEABF" transform="translate(0,0)"/>
<path d="" fill="#FFE8BE" transform="translate(0,0)"/>
<path d="" fill="#FFE8BB" transform="translate(0,0)"/>
<path d="" fill="#FFE8BA" transform="translate(0,0)"/>
<path d="" fill="#FFE6B3" transform="translate(0,0)"/>
<path d="" fill="#FFE3AF" transform="translate(0,0)"/>
<path d="" fill="#FFE0AB" transform="translate(0,0)"/>
<path d="" fill="#FFE0AB" transform="translate(0,0)"/>
<path d="" fill="#FFE2B0" transform="translate(0,0)"/>
<path d="" fill="#FFE6B8" transform="translate(0,0)"/>
<path d="" fill="#FFE6B8" transform="translate(0,0)"/>
<path d="" fill="#FFE7BA" transform="translate(0,0)"/>
<path d="" fill="#FEDAA0" transform="translate(0,0)"/>
<path d="" fill="#FFE4B5" transform="translate(0,0)"/>
<path d="" fill="#FFDCA5" transform="translate(0,0)"/>
<path d="" fill="#FFE4B7" transform="translate(0,0)"/>
<path d="" fill="#FFE4B6" transform="translate(0,0)"/>
<path d="" fill="#FCD79D" transform="translate(0,0)"/>
<path d="" fill="#FDD99C" transform="translate(0,0)"/>
<path d="" fill="#FBD799" transform="translate(0,0)"/>
<path d="" fill="#FCD595" transform="translate(0,0)"/>
<path d="" fill="#965D00" transform="translate(0,0)"/>
<path d="" fill="#FCD69B" transform="translate(0,0)"/>
<path d="" fill="#FAD397" transform="translate(0,0)"/>
<path d="" fill="#FCD594" transform="translate(0,0)"/>
<path d="" fill="#FCD99D" transform="translate(0,0)"/>
<path d="" fill="#FDD797" transform="translate(0,0)"/>
<path d="" fill="#FFE8C4" transform="translate(0,0)"/>
<path d="" fill="#FFE9C3" transform="translate(0,0)"/>
<path d="" fill="#FFE9C3" transform="translate(0,0)"/>
<path d="" fill="#FBD594" transform="translate(0,0)"/>
<path d="" fill="#FFE8C2" transform="translate(0,0)"/>
<path d="" fill="#FCD496" transform="translate(0,0)"/>
<path d="" fill="#FBD394" transform="translate(0,0)"/>
<path d="" fill="#F9D08F" transform="translate(0,0)"/>
<path d="" fill="#FBD495" transform="translate(0,0)"/>
<path d="" fill="#FFE6B9" transform="translate(0,0)"/>
<path d="" fill="#FAD08D" transform="translate(0,0)"/>
<path d="" fill="#FFE5B8" transform="translate(0,0)"/>
<path d="" fill="#FFE4B7" transform="translate(0,0)"/>
<path d="" fill="#FAD491" transform="translate(0,0)"/>
<path d="" fill="#FBD293" transform="translate(0,0)"/>
<path d="" fill="#FEE4B7" transform="translate(0,0)"/>
<path d="" fill="#FFE2B5" transform="translate(0,0)"/>
<path d="" fill="#FCD18E" transform="translate(0,0)"/>
<path d="" fill="#FDE1B7" transform="translate(0,0)"/>
<path d="" fill="#FDE6BE" transform="translate(0,0)"/>
<path d="" fill="#C38412" transform="translate(0,0)"/>
<path d="" fill="#FFE1B9" transform="translate(0,0)"/>
<path d="" fill="#FCD395" transform="translate(0,0)"/>
<path d="" fill="#FFD593" transform="translate(0,0)"/>
<path d="" fill="#FDD696" transform="translate(0,0)"/>
<path d="" fill="#FFE4BA" transform="translate(0,0)"/>
<path d="" fill="#F8D293" transform="translate(0,0)"/>
<path d="" fill="#FFE3B8" transform="translate(0,0)"/>
<path d="" fill="#FCE4BB" transform="translate(0,0)"/>
<path d="" fill="#FEE2B6" transform="translate(0,0)"/>
<path d="" fill="#FFE3B7" transform="translate(0,0)"/>
<path d="" fill="#FAD296" transform="translate(0,0)"/>
<path d="" fill="#FEE5BA" transform="translate(0,0)"/>
<path d="" fill="#FFE2B6" transform="translate(0,0)"/>
<path d="" fill="#FEE3B9" transform="translate(0,0)"/>
<path d="" fill="#FEE6BF" transform="translate(0,0)"/>
<path d="" fill="#FAD190" transform="translate(0,0)"/>
<path d="" fill="#FAD294" transform="translate(0,0)"/>
<path d="" fill="#FEE3B7" transform="translate(0,0)"/>
<path d="" fill="#FEE3B7" transform="translate(0,0)"/>
<path d="" fill="#FFE7BA" transform="translate(0,0)"/>
<path d="" fill="#915B00" transform="translate(0,0)"/>
<path d="" fill="#AA6D02" transform="translate(0,0)"/>
<path d="" fill="#F7D08D" transform="translate(0,0)"/>
<path d="" fill="#FEE5BE" transform="translate(0,0)"/>
<path d="" fill="#FBD18C" transform="translate(0,0)"/>
<path d="" fill="#FACF88" transform="translate(0,0)"/>
<path d="" fill="#FCE2B7" transform="translate(0,0)"/>
<path d="" fill="#FEE4B9" transform="translate(0,0)"/>
<path d="" fill="#FEE5BB" transform="translate(0,0)"/>
<path d="" fill="#F7CE8D" transform="translate(0,0)"/>
<path d="" fill="#F7CF8A" transform="translate(0,0)"/>
<path d="" fill="#F8CE8E" transform="translate(0,0)"/>
<path d="" fill="#FEE5B7" transform="translate(0,0)"/>
<path d="" fill="#FACF8E" transform="translate(0,0)"/>
<path d="" fill="#F6CC86" transform="translate(0,0)"/>
<path d="" fill="#FFE7BB" transform="translate(0,0)"/>
<path d="" fill="#F9CE8E" transform="translate(0,0)"/>
<path d="" fill="#965F00" transform="translate(0,0)"/>
<path d="" fill="#FEEAC0" transform="translate(0,0)"/>
<path d="" fill="#CF8F20" transform="translate(0,0)"/>
<path d="" fill="#FCEAC1" transform="translate(0,0)"/>
<path d="" fill="#FFE4BA" transform="translate(0,0)"/>
<path d="" fill="#FFE6BB" transform="translate(0,0)"/>
<path d="" fill="#FFE9BD" transform="translate(0,0)"/>
<path d="" fill="#F8D38F" transform="translate(0,0)"/>
<path d="" fill="#FFE7BF" transform="translate(0,0)"/>
<path d="" fill="#FFE5BD" transform="translate(0,0)"/>
<path d="" fill="#FAD290" transform="translate(0,0)"/>
<path d="" fill="#FFE7C2" transform="translate(0,0)"/>
<path d="" fill="#F9CF95" transform="translate(0,0)"/>
<path d="" fill="#935B00" transform="translate(0,0)"/>
<path d="" fill="#FFE6BB" transform="translate(0,0)"/>
<path d="" fill="#FFE4BC" transform="translate(0,0)"/>
<path d="" fill="#F9D191" transform="translate(0,0)"/>
<path d="" fill="#FFE8BF" transform="translate(0,0)"/>
<path d="" fill="#F9CE8F" transform="translate(0,0)"/>
<path d="" fill="#FFE9C2" transform="translate(0,0)"/>
<path d="" fill="#985F00" transform="translate(0,0)"/>
<path d="" fill="#FEE8C2" transform="translate(0,0)"/>
<path d="" fill="#FFEAC3" transform="translate(0,0)"/>
<path d="" fill="#FFE5BC" transform="translate(0,0)"/>
<path d="" fill="#FFE6BF" transform="translate(0,0)"/>
<path d="" fill="#FFE6BD" transform="translate(0,0)"/>
<path d="" fill="#F7CF93" transform="translate(0,0)"/>
<path d="" fill="#F6CF91" transform="translate(0,0)"/>
<path d="" fill="#F8CF8F" transform="translate(0,0)"/>
<path d="" fill="#905B00" transform="translate(0,0)"/>
<path d="" fill="#FFE7C1" transform="translate(0,0)"/>
<path d="" fill="#FCD393" transform="translate(0,0)"/>
<path d="" fill="#FBD594" transform="translate(0,0)"/>
<path d="" fill="#FBD08F" transform="translate(0,0)"/>
<path d="" fill="#FDD28E" transform="translate(0,0)"/>
<path d="" fill="#F9D394" transform="translate(0,0)"/>
<path d="" fill="#F8D18C" transform="translate(0,0)"/>
<path d="" fill="#F8D192" transform="translate(0,0)"/>
<path d="" fill="#F9D391" transform="translate(0,0)"/>
<path d="" fill="#F9CD89" transform="translate(0,0)"/>
<path d="" fill="#F7D59A" transform="translate(0,0)"/>
<path d="" fill="#F7D299" transform="translate(0,0)"/>
<path d="" fill="#F7CD8D" transform="translate(0,0)"/>
<path d="" fill="#F7CE8C" transform="translate(0,0)"/>
<path d="" fill="#F9D190" transform="translate(0,0)"/>
<path d="" fill="#925A00" transform="translate(0,0)"/>
<path d="" fill="#FAD090" transform="translate(0,0)"/>
<path d="" fill="#F4D196" transform="translate(0,0)"/>
<path d="" fill="#F5CF96" transform="translate(0,0)"/>
<path d="" fill="#F7CD8D" transform="translate(0,0)"/>
<path d="" fill="#B87A0B" transform="translate(0,0)"/>
<path d="" fill="#FBD394" transform="translate(0,0)"/>
<path d="" fill="#FAD292" transform="translate(0,0)"/>
<path d="" fill="#FBD497" transform="translate(0,0)"/>
<path d="" fill="#FCD699" transform="translate(0,0)"/>
<path d="" fill="#FCD79C" transform="translate(0,0)"/>
<path d="" fill="#FDDAA2" transform="translate(0,0)"/>
<path d="" fill="#FCD9A2" transform="translate(0,0)"/>
<path d="" fill="#FED99E" transform="translate(0,0)"/>
<path d="" fill="#F5C886" transform="translate(0,0)"/>
<path d="" fill="#F5C985" transform="translate(0,0)"/>
<path d="" fill="#F4C882" transform="translate(0,0)"/>
<path d="" fill="#975F00" transform="translate(0,0)"/>
<path d="" fill="#F5C579" transform="translate(0,0)"/>
<path d="" fill="#834E00" transform="translate(0,0)"/>
<path d="" fill="#F4C478" transform="translate(0,0)"/>
<path d="" fill="#885400" transform="translate(0,0)"/>
<path d="" fill="#A86D04" transform="translate(0,0)"/>
<path d="" fill="#824F00" transform="translate(0,0)"/>
<path d="" fill="#895200" transform="translate(0,0)"/>
<path d="" fill="#7B4700" transform="translate(0,0)"/>
<path d="" fill="#8C5600" transform="translate(0,0)"/>
<path d="" fill="#B57709" transform="translate(0,0)"/>
<path d="" fill="#AC7103" transform="translate(0,0)"/>
<path d="" fill="#834E00" transform="translate(0,0)"/>
<path d="" fill="#9A6100" transform="translate(0,0)"/>
<path d="" fill="#835000" transform="translate(0,0)"/>
<path d="" fill="#764500" transform="translate(0,0)"/>
<path d="" fill="#754400" transform="translate(0,0)"/>
<path d="" fill="#754500" transform="translate(0,0)"/>
<path d="" fill="#845000" transform="translate(0,0)"/>
<path d="" fill="#714100" transform="translate(0,0)"/>
<path d="" fill="#854F00" transform="translate(0,0)"/>
<path d="" fill="#734300" transform="translate(0,0)"/>
<path d="" fill="#724100" transform="translate(0,0)"/>
<path d="" fill="#734300" transform="translate(0,0)"/>
<path d="" fill="#7B4800" transform="translate(0,0)"/>
<path d="" fill="#7D4900" transform="translate(0,0)"/>
<path d="" fill="#895200" transform="translate(0,0)"/>
<path d="" fill="#975F00" transform="translate(0,0)"/>
<path d="" fill="#A16400" transform="translate(0,0)"/>
<path d="" fill="#A46700" transform="translate(0,0)"/>
<path d="" fill="#975E00" transform="translate(0,0)"/>
<path d="" fill="#905800" transform="translate(0,0)"/>
<path d="" fill="#754400" transform="translate(0,0)"/>
<path d="" fill="#724000" transform="translate(0,0)"/>
<path d="" fill="#895500" transform="translate(0,0)"/>
<path d="" fill="#9D6300" transform="translate(0,0)"/>
<path d="" fill="#A06700" transform="translate(0,0)"/>
<path d="" fill="#774400" transform="translate(0,0)"/>
<path d="" fill="#945D00" transform="translate(0,0)"/>
<path d="" fill="#8D5600" transform="translate(0,0)"/>
<path d="" fill="#784600" transform="translate(0,0)"/>
<path d="" fill="#794600" transform="translate(0,0)"/>
<path d="" fill="#7F4B00" transform="translate(0,0)"/>
<path d="" fill="#7C4C00" transform="translate(0,0)"/>
<path d="" fill="#915900" transform="translate(0,0)"/>
<path d="" fill="#7F4B00" transform="translate(0,0)"/>
<path d="" fill="#7A4700" transform="translate(0,0)"/>
<path d="" fill="#A16600" transform="translate(0,0)"/>
<path d="" fill="#7B4A00" transform="translate(0,0)"/>
<path d="" fill="#8F5800" transform="translate(0,0)"/>
<path d="" fill="#A16600" transform="translate(0,0)"/>
<path d="" fill="#704100" transform="translate(0,0)"/>
<path d="" fill="#714100" transform="translate(0,0)"/>
<path d="" fill="#9D6300" transform="translate(0,0)"/>
<path d="" fill="#714200" transform="translate(0,0)"/>
<path d="" fill="#824C00" transform="translate(0,0)"/>
<path d="" fill="#875100" transform="translate(0,0)"/>
<path d="" fill="#8E5800" transform="translate(0,0)"/>
<path d="" fill="#975E00" transform="translate(0,0)"/>
<path d="" fill="#996000" transform="translate(0,0)"/>
<path d="" fill="#8E5700" transform="translate(0,0)"/>
<path d="" fill="#8A5500" transform="translate(0,0)"/>
<path d="" fill="#804D00" transform="translate(0,0)"/>
<path d="" fill="#6F3E00" transform="translate(0,0)"/>
<path d="" fill="#754400" transform="translate(0,0)"/>
<path d="" fill="#945C00" transform="translate(0,0)"/>
<path d="" fill="#9E6300" transform="translate(0,0)"/>
<path d="" fill="#8F5900" transform="translate(0,0)"/>
<path d="" fill="#794600" transform="translate(0,0)"/>
</svg>
