<?xml version="1.0" encoding="UTF-8"?>
<svg version="1.1" xmlns="http://www.w3.org/2000/svg" width="1024" height="1024">
<path d="M0 0 C7.05226622 6.70825323 7.1602151 12.9423263 7.484375 22.18359375 C7.52304687 23.79427734 7.52304687 23.79427734 7.5625 25.4375 C8.11897217 25.49695801 8.67544434 25.55641602 9.2487793 25.61767578 C42.74915855 29.33727622 74.34136247 40.76232945 100.5625 62.4375 C101.10922363 62.88029297 101.65594727 63.32308594 102.21923828 63.77929688 C136.75861562 91.82631005 159.47364643 132.15164631 166.375 176.0625 C166.51131836 176.91642334 166.64763672 177.77034668 166.78808594 178.65014648 C166.90571289 179.45911377 167.02333984 180.26808105 167.14453125 181.1015625 C167.30272339 182.17591553 167.30272339 182.17591553 167.46411133 183.27197266 C167.5625 185.4375 167.5625 185.4375 166.5625 190.4375 C51.0625 190.4375 -64.4375 190.4375 -183.4375 190.4375 C-184.72145305 187.86959391 -184.31283849 186.69371216 -183.8359375 183.87890625 C-183.67834961 182.9453833 -183.52076172 182.01186035 -183.35839844 181.05004883 C-183.17825195 180.04353271 -182.99810547 179.0370166 -182.8125 178 C-182.62719727 176.96319092 -182.44189453 175.92638184 -182.25097656 174.8581543 C-175.00128878 135.50055225 -157.88541229 101.75006688 -129.4375 73.4375 C-128.94072754 72.93814941 -128.44395508 72.43879883 -127.93212891 71.92431641 C-102.84163661 46.96958599 -63.11450522 25.81879528 -27.08984375 25.3984375 C-26.21457031 25.41132813 -25.33929688 25.42421875 -24.4375 25.4375 C-24.52451172 23.84421875 -24.52451172 23.84421875 -24.61328125 22.21875 C-25.14933447 8.26322303 -25.14933447 8.26322303 -20.83984375 2.85546875 C-15.11433025 -2.93383877 -7.31485396 -3.32493362 0 0 Z M-57.4375 56.4375 C-60.06659086 57.33205802 -62.57247066 58.29443856 -65.125 59.375 C-66.26316162 59.85271851 -66.26316162 59.85271851 -67.42431641 60.34008789 C-82.78774258 66.91504573 -95.84528071 75.40163553 -108.5625 86.25 C-109.22701172 86.81356201 -109.89152344 87.37712402 -110.57617188 87.95776367 C-111.19298828 88.49377197 -111.80980469 89.02978027 -112.4453125 89.58203125 C-112.99848145 90.06003174 -113.55165039 90.53803223 -114.12158203 91.03051758 C-115.69597966 92.51782688 -115.69597966 92.51782688 -116.4375 95.4375 C-117.0975 95.4375 -117.7575 95.4375 -118.4375 95.4375 C-120.21774171 97.43989154 -121.86765028 99.4436995 -123.5 101.5625 C-123.99024658 102.19559082 -124.48049316 102.82868164 -124.9855957 103.48095703 C-136.69386387 118.80738553 -153.4375 142.48360456 -153.4375 162.4375 C-145.8475 162.4375 -138.2575 162.4375 -130.4375 162.4375 C-129.9528125 160.890625 -129.468125 159.34375 -128.96875 157.75 C-125.02122661 145.38812356 -120.73463635 133.78408114 -114.4375 122.4375 C-113.78206519 121.21640705 -113.12711644 119.99505308 -112.47265625 118.7734375 C-105.39788558 105.78107508 -96.16983053 94.50162313 -86.4375 83.4375 C-85.81746094 82.73109375 -85.19742188 82.0246875 -84.55859375 81.296875 C-77.02736122 73.27703902 -67.57434589 66.52873059 -58.4375 60.4375 C-57.41881338 59.45654252 -56.41398017 58.46047922 -55.4375 57.4375 C-56.4275 56.9425 -56.4275 56.9425 -57.4375 56.4375 Z " fill="#FE861E" transform="translate(520.4375,243.5625)"/>
<path d="M0 0 C2.04813875 0.00112837 4.09627777 0.00181699 6.14441681 0.00211334 C11.76251209 0.00426908 17.38058126 0.01284263 22.99866772 0.02265263 C29.14203253 0.03239327 35.28540186 0.03661523 41.42877197 0.04168701 C52.35706219 0.05154792 63.28534064 0.06560483 74.21362305 0.08178711 C86.51456487 0.09995908 98.81550384 0.11341768 111.11645508 0.12329102 C148.10470427 0.15339841 185.09284316 0.2010217 222.08101454 0.28438839 C226.51397035 0.29437781 230.94692647 0.30421637 235.37988281 0.31396484 C236.25997267 0.31590577 237.14006253 0.3178467 238.04682177 0.31984645 C252.59860212 0.35152266 267.15036601 0.36805745 281.70217463 0.37963954 C296.87849728 0.39202696 312.05473793 0.41938382 327.23100877 0.46105838 C336.48591922 0.48602126 345.7406941 0.49957551 354.99563876 0.49787489 C361.25957673 0.49784525 367.52337294 0.51236992 373.78725561 0.53860959 C377.38967316 0.55327512 380.9917997 0.56143805 384.5942421 0.552248 C388.49056903 0.5424728 392.38638076 0.56340722 396.28265381 0.58746338 C397.9894977 0.57582275 397.9894977 0.57582275 399.73082328 0.56394696 C407.36813325 0.64793063 407.36813325 0.64793063 411.27402115 3.02950668 C414.34739093 6.48718185 415.12011719 7.9200468 415.12011719 12.66894531 C412.88631486 26.37636866 400.71728751 38.96581024 390.12011719 47.10644531 C386.88820698 49.32411378 383.57372328 51.25611146 380.12011719 53.10644531 C378.92708984 53.78707031 378.92708984 53.78707031 377.70996094 54.48144531 C366.31504238 60.39905371 352.89769787 61.33941853 340.24511719 61.41894531 C339.50253662 61.42450439 338.75995605 61.43006348 337.99487305 61.43579102 C333.95507949 61.38128106 330.61288993 61.20695162 327.12011719 59.10644531 C325.01464844 56.41894531 325.01464844 56.41894531 322.93261719 53.10644531 C312.89318796 37.89346471 298.6280334 27.45635405 280.87011719 22.91894531 C258.42587317 18.56350635 236.43299845 22.82984945 217.12011719 35.10644531 C205.6976287 43.22300835 205.6976287 43.22300835 197.12983608 54.04025173 C195.68492789 56.58225911 194.39369939 58.2490872 192.12011719 60.10644531 C187.29234241 61.29922923 182.48042723 61.12935849 177.5402832 61.03051758 C176.04651138 61.02989754 174.55273458 61.0327918 173.05897522 61.03892517 C169.00811507 61.04548605 164.95912165 61.00257666 160.90864682 60.95052838 C156.65564313 60.90408771 152.40261709 60.90246064 148.1493988 60.89573669 C140.99778978 60.87826759 133.84686636 60.8319203 126.69555664 60.76489258 C116.65570156 60.67081518 106.61611184 60.62700308 96.57589447 60.59426033 C83.08145573 60.54757847 69.58679929 60.4855835 56.09279442 60.36590004 C54.64296259 60.35355322 53.19311782 60.34261713 51.74326324 60.3333168 C44.47010976 60.28513257 37.21006872 60.13113657 29.94859314 59.71641541 C28.75648192 59.64897597 27.56437071 59.58153654 26.33613491 59.51205349 C22.48442204 59.02627065 19.21713883 58.50265468 16.74511719 55.35644531 C15.86697324 52.19512709 16.12416998 50.2270799 17.12011719 47.10644531 C21.78511645 42.93232903 27.47470351 43.69504933 33.36450195 43.73754883 C35.06771103 43.73189911 35.06771103 43.73189911 36.80532837 43.72613525 C39.26835365 43.71970378 41.73140375 43.72003186 44.1944294 43.72632027 C48.09007021 43.73541823 51.9852285 43.72522159 55.88084412 43.70970154 C65.55392695 43.67355167 75.22700222 43.66727924 84.90014648 43.6697998 C93.07691271 43.67165937 101.25331512 43.65785185 109.43000603 43.62132072 C113.27239951 43.61046213 117.11430233 43.62264508 120.9566803 43.63514709 C123.30616752 43.62624636 125.6556507 43.61617326 128.00512695 43.60473633 C129.07692703 43.61447983 130.14872711 43.62422333 131.25300598 43.63426208 C136.87011372 43.66627617 136.87011372 43.66627617 141.77964783 41.25889587 C143.65556887 38.24664702 143.76048142 36.59287279 143.12011719 33.10644531 C141.13986059 30.39620203 139.5543038 28.42022256 136.16339111 27.67834473 C133.6575547 27.53940971 131.19905766 27.57327206 128.69042969 27.65332031 C127.68862167 27.66326523 126.68681366 27.67321014 125.65464783 27.68345642 C123.40009195 27.70760288 121.14563664 27.74283845 118.89138794 27.78720093 C113.06492779 27.89784813 107.23791183 27.93083979 101.41062355 27.96980858 C99.12266342 27.98579784 96.83473644 28.00460705 94.54679871 28.02351379 C72.19742447 28.19480994 49.84713931 28.03691254 27.49808121 27.87714577 C19.96498054 27.82352675 12.43197703 27.78013042 4.89874047 27.7510075 C-0.9859999 27.72742167 -6.87056889 27.68808329 -12.75518608 27.64300728 C-15.21694545 27.62654279 -17.67874402 27.61511289 -20.14055061 27.60890007 C-23.5408192 27.59931973 -26.94046088 27.57135984 -30.34057617 27.53881836 C-31.34119017 27.54025219 -32.34180416 27.54168602 -33.37273979 27.5431633 C-39.46469832 27.46026796 -43.11531901 26.7722747 -47.62988281 22.41894531 C-49.45068901 19.05045385 -50.105694 15.89049333 -49.87988281 12.10644531 C-48.67613358 8.11056769 -47.18638462 5.11809283 -43.85544968 2.53889084 C-39.82525785 0.59874615 -36.295728 0.54293152 -31.87237549 0.42559814 C-30.99009254 0.39245805 -30.10780959 0.35931796 -29.19879079 0.32517362 C-19.46763883 -0.00766776 -9.73559439 -0.02349413 0 0 Z " fill="#FE861E" transform="translate(328.8798828125,443.8935546875)"/>
<path d="M0 0 C0 0.66 0 1.32 0 2 C0.87011719 2.35964844 0.87011719 2.35964844 1.7578125 2.7265625 C10.0115137 7.41420464 16.01762215 19.19628344 18.59326172 28.03613281 C23.38957225 47.60644895 19.07333198 66.89434193 9 84 C6.82781122 87.15870522 4.4976224 90.09527615 2 93 C1.2265625 93.97066406 0.453125 94.94132813 -0.34375 95.94140625 C-11.21974724 108.95908802 -27.6183232 116.20319747 -44 119 C-49.47180077 119.40461019 -54.92140016 119.41184865 -60.40356445 119.38818359 C-62.00824844 119.39225879 -63.61292962 119.39760595 -65.21760559 119.40411377 C-69.53548836 119.41767506 -73.85315373 119.41253698 -78.17103982 119.40297651 C-82.70763457 119.39532799 -87.24421194 119.40243923 -91.7808075 119.40713501 C-99.39044506 119.41257476 -106.99999492 119.405445 -114.60961914 119.39111328 C-123.39336215 119.37476081 -132.1768965 119.38010126 -140.96063453 119.3965925 C-148.52530838 119.41022324 -156.08991959 119.41212015 -163.65460175 119.40427649 C-168.16289484 119.39961247 -172.67108991 119.39894062 -177.1793766 119.40888596 C-181.41405544 119.41757758 -185.64846581 119.41149384 -189.88311577 119.39420319 C-191.43265462 119.39025131 -192.98221625 119.39135005 -194.53174591 119.39799118 C-209.25464893 119.45525649 -209.25464893 119.45525649 -216 116 C-218.75319062 113.07473497 -219.23799558 110.45981579 -219.5 106.5625 C-219.37883833 103.25809069 -218.88337118 101.20577562 -216.875 98.5625 C-211.12980681 93.44178433 -204.99613213 93.69761028 -197.68017578 93.68115234 C-196.65517471 93.67110672 -195.63017365 93.6610611 -194.57411194 93.65071106 C-191.19785098 93.61990596 -187.82166923 93.60285114 -184.4453125 93.5859375 C-182.09975504 93.56722373 -179.7542043 93.54765016 -177.40866089 93.5272522 C-171.24381471 93.47594725 -165.07894672 93.4363126 -158.91400146 93.39910889 C-152.61969613 93.3590591 -146.32548146 93.30797116 -140.03125 93.2578125 C-127.6875637 93.16107251 -115.34382619 93.07666143 -103 93 C-104.77175579 87.62371853 -106.79077561 82.38169586 -108.87890625 77.12109375 C-113.25194654 64.94667147 -112.76035401 47.93927498 -108 36 C-107.6596875 35.03320312 -107.319375 34.06640625 -106.96875 33.0703125 C-104.09905599 25.45011151 -100.07578591 19.33003417 -95 13 C-94.45601562 12.29101562 -93.91203125 11.58203125 -93.3515625 10.8515625 C-69.99578744 -17.97288185 -29.132118 -21.39870508 0 0 Z M-64 33 C-70.91085581 40.54582761 -72.57857307 47.1630801 -72.31640625 57.32421875 C-71.77876185 63.57018646 -69.63791413 67.05221022 -65.6875 71.75 C-59.00438605 77.34516517 -53.7056523 79.10064338 -45 79 C-37.29368384 78.23483386 -30.84502397 74.29190906 -25.6875 68.625 C-20.51436448 62.10235087 -18.5348094 54.93623656 -19.1796875 46.70703125 C-20.39732453 39.48818312 -24.25506233 34.82118594 -29.25 29.6875 C-40.99460665 22.48058228 -53.74607714 24.23019756 -64 33 Z " fill="#FE851E" transform="translate(631,491)"/>
<path d="M0 0 C1.3443451 -0.00597315 1.3443451 -0.00597315 2.71584868 -0.01206696 C3.69638913 -0.00624128 4.67692958 -0.00041559 5.68718338 0.00558662 C6.73190693 0.00387777 7.77663048 0.00216892 8.85301232 0.00040829 C12.36463859 -0.00289415 15.87607511 0.00812965 19.38768387 0.01904488 C21.90055715 0.01960883 24.41343077 0.01929275 26.92630386 0.01815987 C32.34198051 0.01770397 37.75759572 0.02338827 43.17325974 0.03463554 C51.00339642 0.05088663 58.83350979 0.05609815 66.66366151 0.05861153 C79.36741785 0.06298925 92.07114851 0.07630043 104.7748909 0.09521675 C117.1157099 0.11357356 129.45652194 0.12773104 141.79735184 0.13623238 C142.55798482 0.13675782 143.31861779 0.13728327 144.10230026 0.13782464 C147.91815584 0.14043471 151.73401148 0.14296212 155.54986715 0.14544845 C187.20839 0.16618334 218.8668806 0.20155959 250.52537918 0.24609566 C249.90050362 1.6822271 249.90050362 1.6822271 249.2630043 3.14737129 C248.71337732 4.41801945 248.16387953 5.6887235 247.61449051 6.95947456 C247.34026512 7.5887838 247.06603973 8.21809303 246.78350449 8.86647224 C244.81599059 13.4273368 243.34294601 17.79217573 242.21287918 22.62109566 C241.90737137 23.88695503 241.60186356 25.15281441 241.28709793 26.45703316 C238.63583387 39.64537235 239.27379759 51.96501778 242.71287918 64.99609566 C242.98100418 66.06859566 243.24912918 67.14109566 243.52537918 68.24609566 C241.81026615 69.96120869 239.56178619 69.37220193 237.219944 69.3730793 C236.06897736 69.37589912 234.91801071 69.37871895 233.73216629 69.38162422 C231.82080887 69.37858788 231.82080887 69.37858788 229.87083817 69.37549019 C228.5240817 69.37684431 227.17732561 69.3786243 225.83057022 69.38080025 C222.16077867 69.38537636 218.49101509 69.38358349 214.82122302 69.38042116 C210.98123901 69.37789484 207.14125745 69.3802362 203.30127335 69.38180733 C196.84398849 69.38362976 190.38671504 69.3812224 183.92943192 69.37646675 C176.47520827 69.37104009 169.02101205 69.37277484 161.56678909 69.37829316 C155.16584522 69.38284146 148.76490958 69.38346595 142.36396462 69.38085449 C138.54186909 69.37929908 134.71978641 69.37907741 130.89769173 69.38239098 C127.29689705 69.38529406 123.69613738 69.38324943 120.09534645 69.37749672 C118.15266212 69.37555706 116.20997481 69.37850341 114.26729202 69.38162422 C98.39484873 69.343393 98.39484873 69.343393 93.65037918 66.55859566 C91.08715387 63.76920341 90.18462843 61.98184142 89.52537918 58.24609566 C90.22950945 53.22916749 91.67992689 50.43184484 95.67702293 47.27359581 C99.18811369 45.32178252 102.80013044 45.62087921 106.72435379 45.72607613 C108.0840554 45.73220924 108.0840554 45.73220924 109.47122574 45.73846626 C112.45740828 45.75719029 115.44196234 45.81068681 118.42772293 45.86328316 C120.50986162 45.88024 122.59202356 45.89453351 124.67419815 45.90628242 C130.15121402 45.94233619 135.62752435 46.00578621 141.10417557 46.07763863 C149.86584431 46.19100264 158.62757192 46.27607173 167.38976097 46.33603477 C170.44498418 46.36288558 173.49946637 46.4094999 176.55441666 46.45773506 C178.43527423 46.47503181 180.31613868 46.49160067 182.19701004 46.50732613 C183.04138626 46.52596718 183.88576248 46.54460823 184.75572586 46.56381416 C190.10171787 46.58475444 193.81047047 45.83632851 198.52537918 43.24609566 C200.66287843 40.03984679 200.82112917 39.02151463 200.83787918 35.30859566 C200.8630159 34.026623 200.8630159 34.026623 200.88866043 32.71875191 C200.45145186 29.74291291 199.5901001 28.40752482 197.52537918 26.24609566 C193.86566821 25.026192 190.50492496 25.10598276 186.69487381 25.11479378 C185.88870613 25.11267806 185.08253845 25.11056235 184.25194144 25.10838252 C181.54131602 25.10237467 178.83073704 25.10338324 176.12010574 25.10424995 C174.18030595 25.10121896 172.24050686 25.09769767 170.30070877 25.09372139 C166.11825608 25.08582711 161.93581194 25.08068547 157.75335312 25.07743073 C151.13939167 25.0715253 144.52548417 25.05498917 137.91154861 25.03608894 C135.64801792 25.02975139 133.38448718 25.02342577 131.12095642 25.01711178 C129.4204549 25.01236306 129.4204549 25.01236306 127.6855998 25.00751841 C112.28487179 24.96542807 96.88416869 24.93246619 81.48338699 24.92016792 C71.09902892 24.91179024 60.71480415 24.88930978 50.33051276 24.85081226 C44.83448352 24.83104082 39.3386536 24.81865065 33.84258652 24.82364655 C28.6714859 24.82828971 23.50076308 24.81450547 18.32973862 24.78663445 C16.43309647 24.77971698 14.5364153 24.77960207 12.63977432 24.78683472 C10.04734011 24.79572128 7.45615224 24.780033 4.86381912 24.75834846 C4.11584761 24.766791 3.3678761 24.77523354 2.59723878 24.78393191 C-2.93300978 24.69858344 -6.01580065 23.28617776 -10.47462082 20.24609566 C-13.26666746 16.35111346 -13.15023885 11.86007247 -12.47462082 7.24609566 C-9.40849732 2.09938836 -5.93713152 -0.00583215 0 0 Z " fill="#FE861E" transform="translate(267.4746208190918,508.75390434265137)"/>
<path d="M0 0 C2.04813875 0.00112837 4.09627777 0.00181699 6.14441681 0.00211334 C11.76251209 0.00426908 17.38058126 0.01284263 22.99866772 0.02265263 C29.14203253 0.03239327 35.28540186 0.03661523 41.42877197 0.04168701 C52.35706219 0.05154792 63.28534064 0.06560483 74.21362305 0.08178711 C86.51456487 0.09995908 98.81550384 0.11341768 111.11645508 0.12329102 C148.10470427 0.15339841 185.09284316 0.2010217 222.08101454 0.28438839 C226.51397035 0.29437781 230.94692647 0.30421637 235.37988281 0.31396484 C236.25997267 0.31590577 237.14006253 0.3178467 238.04682177 0.31984645 C252.59860212 0.35152266 267.15036601 0.36805745 281.70217463 0.37963954 C296.87849728 0.39202696 312.05473793 0.41938382 327.23100877 0.46105838 C336.48591922 0.48602126 345.7406941 0.49957551 354.99563876 0.49787489 C361.25957673 0.49784525 367.52337294 0.51236992 373.78725561 0.53860959 C377.38967316 0.55327512 380.9917997 0.56143805 384.5942421 0.552248 C388.49056903 0.5424728 392.38638076 0.56340722 396.28265381 0.58746338 C397.9894977 0.57582275 397.9894977 0.57582275 399.73082328 0.56394696 C407.36813325 0.64793063 407.36813325 0.64793063 411.27402115 3.02950668 C414.34739093 6.48718185 415.12011719 7.9200468 415.12011719 12.66894531 C412.85753248 26.55298781 400.63054098 38.68544312 390.12011719 47.10644531 C389.13011719 47.76644531 388.14011719 48.42644531 387.12011719 49.10644531 C386.13011719 48.77644531 385.14011719 48.44644531 384.12011719 48.10644531 C384.76078125 47.61015625 385.40144531 47.11386719 386.06152344 46.60253906 C388.77634916 44.4703287 391.4550618 42.30050417 394.12011719 40.10644531 C394.73757813 39.60242188 395.35503906 39.09839844 395.99121094 38.57910156 C402.80937422 32.41495874 409.6830883 22.94121587 411.89746094 13.95019531 C411.99277346 11.35769466 412.05632421 9.52580136 411.12011719 7.10644531 C408.23328821 4.18957964 405.83960981 3.75478488 401.79598588 3.70956567 C400.73774943 3.72052969 400.73774943 3.72052969 399.65813446 3.7317152 C398.90001443 3.72765448 398.1418944 3.72359375 397.36080104 3.71940997 C394.80573794 3.70941841 392.25121827 3.72091732 389.69616699 3.73222351 C387.85177744 3.7294845 386.00738945 3.72543378 384.16300535 3.72017986 C379.08320083 3.70956096 374.00357145 3.71774273 368.92377448 3.72893035 C363.44995327 3.73775042 357.97615553 3.72933521 352.50233459 3.72306824 C341.77455728 3.71356537 331.04684709 3.7201931 320.31907475 3.73233118 C307.83513446 3.74593171 295.35121027 3.74431504 282.86726445 3.74219785 C259.9245841 3.73890928 236.98193286 3.75183318 214.03926354 3.77204289 C193.08655083 3.79041291 172.13387224 3.79622532 151.18115234 3.79077148 C149.83582455 3.79042505 148.49049675 3.79007895 147.14516896 3.78973319 C146.48007076 3.7895622 145.81497255 3.7893912 145.12971986 3.78921503 C123.61698245 3.78373051 102.10425676 3.78585758 80.59152079 3.79625732 C78.08409023 3.79746465 75.57665968 3.79867064 73.06922913 3.79987526 C71.83541464 3.8004788 70.60160015 3.80108234 69.33039734 3.80170416 C60.62138096 3.80558894 51.91237071 3.80518753 43.20335388 3.80328941 C32.59494629 3.80117066 21.98657156 3.80636724 11.37817323 3.82090297 C5.96207261 3.82816313 0.54601993 3.8322102 -4.87008476 3.82765961 C-9.82313786 3.8235992 -14.77609173 3.82870285 -19.72912973 3.84128568 C-21.52583699 3.84422653 -23.32255352 3.84376197 -25.11925846 3.83964261 C-27.55225898 3.83456869 -29.98492326 3.84167941 -32.41790009 3.85196972 C-33.12339105 3.84757323 -33.82888202 3.84317675 -34.5557515 3.83864704 C-38.1468712 3.8677837 -40.90009464 4.00162748 -43.87988281 6.10644531 C-45.98051037 9.25738664 -46.22301567 10.32888191 -46.31738281 13.98144531 C-46.35734375 14.82449219 -46.39730469 15.66753906 -46.43847656 16.53613281 C-45.6181541 20.31076346 -43.84689497 21.69182555 -40.87988281 24.10644531 C-37.43123757 24.84838937 -37.43123757 24.84838937 -33.56814575 24.72549438 C-32.47883753 24.73485285 -32.47883753 24.73485285 -31.36752307 24.74440038 C-28.93895607 24.75929861 -26.51200346 24.73868909 -24.08349609 24.71826172 C-22.34043814 24.72180335 -20.5973835 24.72758144 -18.8543396 24.73542786 C-15.10284207 24.74760615 -11.35179928 24.74414047 -7.60031509 24.72859573 C-1.6665896 24.70428507 4.26673748 24.71577189 10.20046997 24.73226929 C20.65685561 24.75676865 31.11306025 24.75096264 41.56945801 24.73846436 C57.30531983 24.71988737 73.04114693 24.72474343 88.77698338 24.75849855 C94.67348764 24.77000528 100.56970204 24.76558304 106.4661901 24.74847817 C110.13761321 24.74057149 113.80895224 24.74483747 117.48037338 24.75218773 C119.18030356 24.75299689 120.88024534 24.74866164 122.58014679 24.73874474 C124.90514468 24.72583977 127.22941634 24.73142056 129.55441284 24.74136353 C130.85409941 24.7394784 132.15378597 24.73759327 133.49285698 24.73565102 C137.71765511 25.16752824 140.35679912 26.17805537 144.12011719 28.10644531 C146.59927932 31.45777806 146.58799315 34.92748327 146.51464844 38.98144531 C146.12011719 41.10644531 146.12011719 41.10644531 143.74511719 43.60644531 C140.26123837 45.59723321 138.49019189 46.23308705 134.50271606 46.25120544 C133.52970551 46.25810394 132.55669495 46.26500244 131.55419922 46.27210999 C130.48298828 46.27472336 129.41177734 46.27733673 128.30810547 46.2800293 C127.1828244 46.28671631 126.05754333 46.29340332 124.89816284 46.30029297 C122.44818338 46.31436888 119.99819061 46.32625478 117.54819107 46.33624077 C113.6739138 46.35260884 109.79973523 46.37584472 105.92550659 46.40113831 C94.90790682 46.47203203 83.89026738 46.53211874 72.87255859 46.58325195 C66.13992084 46.61458149 59.40740985 46.65627188 52.67486191 46.70344734 C50.10480655 46.71949039 47.53472514 46.73180126 44.96463394 46.74035454 C41.37327834 46.75247866 37.78218928 46.77661677 34.19091797 46.8034668 C33.12375549 46.80405594 32.05659302 46.80464508 30.95709229 46.80525208 C29.48911697 46.81982956 29.48911697 46.81982956 27.9914856 46.83470154 C26.71777698 46.84104945 26.71777698 46.84104945 25.41833687 46.8475256 C22.92271483 47.12868486 21.27938451 47.85457569 19.12011719 49.10644531 C19.12011719 51.08644531 19.12011719 53.06644531 19.12011719 55.10644531 C41.55509321 55.44734779 63.99020475 55.73643442 86.42662907 55.96390629 C96.84438858 56.07073397 107.26143241 56.19448787 117.6784668 56.3581543 C126.75838475 56.50076971 135.83803922 56.61156112 144.91879648 56.68420881 C149.72693316 56.72378459 154.53369806 56.77924186 159.34111214 56.8728199 C163.86796174 56.96043368 168.39325304 57.00542232 172.9209137 57.018013 C174.58071171 57.03009085 176.24048178 57.05762417 177.89973259 57.10191917 C186.82972213 57.61320779 186.82972213 57.61320779 194.6303997 54.03973198 C196.56935784 51.61884519 196.56935784 51.61884519 197.97980404 49.0425024 C198.54425905 48.08415414 198.54425905 48.08415414 199.12011719 47.10644531 C199.78011719 47.10644531 200.44011719 47.10644531 201.12011719 47.10644531 C201.3225 46.55988281 201.52488281 46.01332031 201.73339844 45.45019531 C203.67329618 42.1714949 206.40943108 40.00471882 209.30761719 37.60644531 C209.85998047 37.13335937 210.41234375 36.66027344 210.98144531 36.17285156 C220.60080235 28.10644531 220.60080235 28.10644531 225.12011719 28.10644531 C223.857714 31.89365488 222.71157341 32.15854475 219.30761719 34.10644531 C211.8981212 38.68092014 204.19221904 44.40215479 199.37150002 51.78409195 C196.39719716 56.13467781 194.04597755 59.50830842 188.884655 61.1113205 C184.96576562 61.46548692 181.12541975 61.48161839 177.19970703 61.37109375 C175.7054924 61.36962552 174.2112664 61.37300472 172.71707153 61.38082886 C168.67808777 61.38822656 164.6426859 61.32786295 160.60446501 61.2547102 C156.35957116 61.18928943 152.11461386 61.18610927 147.86929321 61.17584229 C140.73531253 61.15014052 133.60263638 61.08503816 126.46923828 60.99121094 C116.45455479 60.85948672 106.44030893 60.79452325 96.42492366 60.74523115 C82.96234804 60.67607587 69.49970856 60.58358339 56.03791428 60.42078018 C54.59292135 60.40370266 53.14791212 60.38793648 51.70288849 60.37369156 C44.44495827 60.30040308 37.19811901 60.12636449 29.9515686 59.71343994 C28.16275741 59.61292517 28.16275741 59.61292517 26.33780861 59.51037979 C22.48474984 59.02668416 19.21786437 58.50357809 16.74511719 55.35644531 C15.86697324 52.19512709 16.12416998 50.2270799 17.12011719 47.10644531 C21.78511645 42.93232903 27.47470351 43.69504933 33.36450195 43.73754883 C35.06771103 43.73189911 35.06771103 43.73189911 36.80532837 43.72613525 C39.26835365 43.71970378 41.73140375 43.72003186 44.1944294 43.72632027 C48.09007021 43.73541823 51.9852285 43.72522159 55.88084412 43.70970154 C65.55392695 43.67355167 75.22700222 43.66727924 84.90014648 43.6697998 C93.07691271 43.67165937 101.25331512 43.65785185 109.43000603 43.62132072 C113.27239951 43.61046213 117.11430233 43.62264508 120.9566803 43.63514709 C123.30616752 43.62624636 125.6556507 43.61617326 128.00512695 43.60473633 C129.07692703 43.61447983 130.14872711 43.62422333 131.25300598 43.63426208 C136.87011372 43.66627617 136.87011372 43.66627617 141.77964783 41.25889587 C143.65556887 38.24664702 143.76048142 36.59287279 143.12011719 33.10644531 C141.13986059 30.39620203 139.5543038 28.42022256 136.16339111 27.67834473 C133.6575547 27.53940971 131.19905766 27.57327206 128.69042969 27.65332031 C127.68862167 27.66326523 126.68681366 27.67321014 125.65464783 27.68345642 C123.40009195 27.70760288 121.14563664 27.74283845 118.89138794 27.78720093 C113.06492779 27.89784813 107.23791183 27.93083979 101.41062355 27.96980858 C99.12266342 27.98579784 96.83473644 28.00460705 94.54679871 28.02351379 C72.19742447 28.19480994 49.84713931 28.03691254 27.49808121 27.87714577 C19.96498054 27.82352675 12.43197703 27.78013042 4.89874047 27.7510075 C-0.9859999 27.72742167 -6.87056889 27.68808329 -12.75518608 27.64300728 C-15.21694545 27.62654279 -17.67874402 27.61511289 -20.14055061 27.60890007 C-23.5408192 27.59931973 -26.94046088 27.57135984 -30.34057617 27.53881836 C-31.34119017 27.54025219 -32.34180416 27.54168602 -33.37273979 27.5431633 C-39.46469832 27.46026796 -43.11531901 26.7722747 -47.62988281 22.41894531 C-49.45068901 19.05045385 -50.105694 15.89049333 -49.87988281 12.10644531 C-48.67613358 8.11056769 -47.18638462 5.11809283 -43.85544968 2.53889084 C-39.82525785 0.59874615 -36.295728 0.54293152 -31.87237549 0.42559814 C-30.99009254 0.39245805 -30.10780959 0.35931796 -29.19879079 0.32517362 C-19.46763883 -0.00766776 -9.73559439 -0.02349413 0 0 Z " fill="#FE6D07" transform="translate(328.8798828125,443.8935546875)"/>
<path d="M0 0 C1.3443451 -0.00597315 1.3443451 -0.00597315 2.71584868 -0.01206696 C3.69638913 -0.00624128 4.67692958 -0.00041559 5.68718338 0.00558662 C6.73190693 0.00387777 7.77663048 0.00216892 8.85301232 0.00040829 C12.36463859 -0.00289415 15.87607511 0.00812965 19.38768387 0.01904488 C21.90055715 0.01960883 24.41343077 0.01929275 26.92630386 0.01815987 C32.34198051 0.01770397 37.75759572 0.02338827 43.17325974 0.03463554 C51.00339642 0.05088663 58.83350979 0.05609815 66.66366151 0.05861153 C79.36741785 0.06298925 92.07114851 0.07630043 104.7748909 0.09521675 C117.1157099 0.11357356 129.45652194 0.12773104 141.79735184 0.13623238 C142.55798482 0.13675782 143.31861779 0.13728327 144.10230026 0.13782464 C147.91815584 0.14043471 151.73401148 0.14296212 155.54986715 0.14544845 C187.20839 0.16618334 218.8668806 0.20155959 250.52537918 0.24609566 C249.89989182 1.67794449 249.89989182 1.67794449 249.26176834 3.13871956 C248.71178886 4.40711065 248.16197244 5.67557245 247.61229324 6.9440937 C247.33777328 7.57134094 247.06325333 8.19858818 246.78041458 8.84484291 C244.75920429 13.52216515 243.29601091 18.08051443 242.27537918 23.05859566 C241.75916236 25.48798448 241.18868145 27.84916246 240.52537918 30.24609566 C239.86537918 30.57609566 239.20537918 30.90609566 238.52537918 31.24609566 C238.24160778 25.67253421 239.16053242 21.37421652 240.96287918 16.12109566 C242.38614063 11.85529803 243.69416202 7.67257741 244.52537918 3.24609566 C212.88939265 3.1320638 181.25346451 3.04356347 149.61732053 2.99076901 C145.88346669 2.98451538 142.14961327 2.97804378 138.41576004 2.97143745 C137.67240851 2.9701259 136.92905699 2.96881435 136.16317966 2.96746305 C124.12258864 2.94569895 112.08211684 2.90627194 100.04159657 2.86033168 C87.68941431 2.8135949 75.33729454 2.78580617 62.98502749 2.77565318 C55.36127037 2.7687882 47.73785017 2.74709642 40.11419674 2.70651332 C34.27105795 2.67699054 28.42809264 2.6738145 22.58487701 2.68055725 C20.18585826 2.67917865 17.78682706 2.66919254 15.38788414 2.65006828 C12.1180004 2.6252737 8.84957049 2.63114194 5.57965469 2.64482307 C4.62537278 2.63025887 3.67109086 2.61569466 2.6878913 2.60068911 C-1.84123188 2.65208254 -3.85005575 2.77985973 -7.57566929 5.56101894 C-10.04307276 9.0498745 -10.00814712 11.05410333 -9.47462082 15.24609566 C-8.65779869 17.76463056 -8.06662646 18.83737017 -5.89621162 20.33584213 C-2.44996014 21.6312561 0.89010602 21.51997194 4.52083206 21.49765205 C5.33264329 21.50062219 6.14445451 21.50359233 6.98086607 21.50665247 C9.7045969 21.51429886 12.4281125 21.50779584 15.15184402 21.50146675 C17.10326662 21.50421634 19.05468809 21.50789604 21.00610733 21.51243782 C25.21038576 21.52055425 29.41461098 21.52271716 33.61889648 21.52049065 C40.26628602 21.5176605 46.91356901 21.53199832 53.56093216 21.5494709 C72.46410395 21.59652666 91.36726862 21.62044105 110.27049637 21.62695503 C120.7090454 21.63070399 131.14747404 21.64872028 141.58597147 21.68204939 C148.19443029 21.70228471 154.80257906 21.70462315 161.41105628 21.69376922 C165.52278655 21.6911639 169.63433594 21.70515746 173.74601936 21.72385025 C175.65276366 21.72917711 177.55954117 21.72766703 179.46627235 21.71881485 C182.06993452 21.70770211 184.67237171 21.72111492 187.27595901 21.74057198 C188.40709879 21.72688499 188.40709879 21.72688499 189.56108987 21.7129215 C194.67963571 21.78732545 197.59567154 22.99935734 201.52537918 26.24609566 C204.6425903 30.92191233 204.11046893 35.77291429 203.52537918 41.24609566 C201.4107687 45.39073219 198.84228541 46.8672174 194.59272575 48.62077522 C190.73218139 49.78849297 186.86155997 49.65887261 182.85814285 49.63086128 C181.44228394 49.63892044 181.44228394 49.63892044 179.99782181 49.64714241 C177.9593669 49.65688776 175.92087066 49.65987442 173.88239479 49.65678596 C170.65921 49.65229812 167.43657127 49.66633296 164.21344376 49.68518257 C156.21572443 49.72814544 148.21801797 49.73924631 140.2202034 49.75140572 C133.44808982 49.7629084 126.67622733 49.78637782 119.90421867 49.82609749 C116.7232425 49.83971766 113.54260073 49.8354894 110.3616066 49.83069038 C108.42294758 49.84002455 106.48429234 49.85019173 104.54564285 49.86133003 C103.65680908 49.85518181 102.76797531 49.84903358 101.85220718 49.84269905 C99.15883043 49.83442969 99.15883043 49.83442969 95.52537918 50.24609566 C93.47633735 53.3196584 93.20911275 54.22208141 93.15037918 57.74609566 C93.12201981 58.51953316 93.09366043 59.29297066 93.06444168 60.08984566 C93.3420383 62.3674957 93.3420383 62.3674957 95.18719482 63.85594082 C98.11911602 65.59909868 99.99534224 65.62979691 103.39726639 65.64482307 C105.19772919 65.66363029 105.19772919 65.66363029 107.03456497 65.68281746 C108.34798874 65.68138237 109.66141251 65.67994728 111.01463699 65.6784687 C112.4142328 65.68748657 113.81382069 65.69781385 115.21339798 65.70935249 C119.0105815 65.73694606 122.80761526 65.74621015 126.60488605 65.75220656 C130.57411072 65.76158414 134.54322324 65.78778701 138.51237869 65.81221199 C146.02749153 65.8558977 153.54258262 65.88443191 161.05778384 65.90753537 C169.61400556 65.93457597 178.1701146 65.97848816 186.72625589 66.0238241 C204.32590419 66.11670002 221.92558228 66.18836724 239.52537918 66.24609566 C239.36166824 65.49972847 239.19795731 64.75336128 239.02928543 63.98437691 C238.42530473 60.70228024 238.46008704 57.57599497 238.52537918 54.24609566 C241.08013792 56.80085439 241.35992216 58.81771303 242.21287918 62.30859566 C242.48487137 63.39269722 242.75686356 64.47679878 243.03709793 65.59375191 C243.19823074 66.46902534 243.35936356 67.34429878 243.52537918 68.24609566 C241.81026615 69.96120869 239.56178619 69.37220193 237.219944 69.3730793 C236.06897736 69.37589912 234.91801071 69.37871895 233.73216629 69.38162422 C231.82080887 69.37858788 231.82080887 69.37858788 229.87083817 69.37549019 C228.5240817 69.37684431 227.17732561 69.3786243 225.83057022 69.38080025 C222.16077867 69.38537636 218.49101509 69.38358349 214.82122302 69.38042116 C210.98123901 69.37789484 207.14125745 69.3802362 203.30127335 69.38180733 C196.84398849 69.38362976 190.38671504 69.3812224 183.92943192 69.37646675 C176.47520827 69.37104009 169.02101205 69.37277484 161.56678909 69.37829316 C155.16584522 69.38284146 148.76490958 69.38346595 142.36396462 69.38085449 C138.54186909 69.37929908 134.71978641 69.37907741 130.89769173 69.38239098 C127.29689705 69.38529406 123.69613738 69.38324943 120.09534645 69.37749672 C118.15266212 69.37555706 116.20997481 69.37850341 114.26729202 69.38162422 C98.39484873 69.343393 98.39484873 69.343393 93.65037918 66.55859566 C91.08715387 63.76920341 90.18462843 61.98184142 89.52537918 58.24609566 C90.22950945 53.22916749 91.67992689 50.43184484 95.67702293 47.27359581 C99.18811369 45.32178252 102.80013044 45.62087921 106.72435379 45.72607613 C108.0840554 45.73220924 108.0840554 45.73220924 109.47122574 45.73846626 C112.45740828 45.75719029 115.44196234 45.81068681 118.42772293 45.86328316 C120.50986162 45.88024 122.59202356 45.89453351 124.67419815 45.90628242 C130.15121402 45.94233619 135.62752435 46.00578621 141.10417557 46.07763863 C149.86584431 46.19100264 158.62757192 46.27607173 167.38976097 46.33603477 C170.44498418 46.36288558 173.49946637 46.4094999 176.55441666 46.45773506 C178.43527423 46.47503181 180.31613868 46.49160067 182.19701004 46.50732613 C183.04138626 46.52596718 183.88576248 46.54460823 184.75572586 46.56381416 C190.10171787 46.58475444 193.81047047 45.83632851 198.52537918 43.24609566 C200.66287843 40.03984679 200.82112917 39.02151463 200.83787918 35.30859566 C200.8630159 34.026623 200.8630159 34.026623 200.88866043 32.71875191 C200.45145186 29.74291291 199.5901001 28.40752482 197.52537918 26.24609566 C193.86566821 25.026192 190.50492496 25.10598276 186.69487381 25.11479378 C185.88870613 25.11267806 185.08253845 25.11056235 184.25194144 25.10838252 C181.54131602 25.10237467 178.83073704 25.10338324 176.12010574 25.10424995 C174.18030595 25.10121896 172.24050686 25.09769767 170.30070877 25.09372139 C166.11825608 25.08582711 161.93581194 25.08068547 157.75335312 25.07743073 C151.13939167 25.0715253 144.52548417 25.05498917 137.91154861 25.03608894 C135.64801792 25.02975139 133.38448718 25.02342577 131.12095642 25.01711178 C129.4204549 25.01236306 129.4204549 25.01236306 127.6855998 25.00751841 C112.28487179 24.96542807 96.88416869 24.93246619 81.48338699 24.92016792 C71.09902892 24.91179024 60.71480415 24.88930978 50.33051276 24.85081226 C44.83448352 24.83104082 39.3386536 24.81865065 33.84258652 24.82364655 C28.6714859 24.82828971 23.50076308 24.81450547 18.32973862 24.78663445 C16.43309647 24.77971698 14.5364153 24.77960207 12.63977432 24.78683472 C10.04734011 24.79572128 7.45615224 24.780033 4.86381912 24.75834846 C4.11584761 24.766791 3.3678761 24.77523354 2.59723878 24.78393191 C-2.93300978 24.69858344 -6.01580065 23.28617776 -10.47462082 20.24609566 C-13.26666746 16.35111346 -13.15023885 11.86007247 -12.47462082 7.24609566 C-9.40849732 2.09938836 -5.93713152 -0.00583215 0 0 Z " fill="#FE780E" transform="translate(267.4746208190918,508.75390434265137)"/>
<path d="M0 0 C0 0.66 0 1.32 0 2 C0.87011719 2.35964844 0.87011719 2.35964844 1.7578125 2.7265625 C10.0115137 7.41420464 16.01762215 19.19628344 18.59326172 28.03613281 C23.38957225 47.60644895 19.07333198 66.89434193 9 84 C6.82781122 87.15870522 4.4976224 90.09527615 2 93 C1.2265625 93.97066406 0.453125 94.94132813 -0.34375 95.94140625 C-11.21974724 108.95908802 -27.6183232 116.20319747 -44 119 C-49.47180077 119.40461019 -54.92140016 119.41184865 -60.40356445 119.38818359 C-62.00824844 119.39225879 -63.61292962 119.39760595 -65.21760559 119.40411377 C-69.53548836 119.41767506 -73.85315373 119.41253698 -78.17103982 119.40297651 C-82.70763457 119.39532799 -87.24421194 119.40243923 -91.7808075 119.40713501 C-99.39044506 119.41257476 -106.99999492 119.405445 -114.60961914 119.39111328 C-123.39336215 119.37476081 -132.1768965 119.38010126 -140.96063453 119.3965925 C-148.52530838 119.41022324 -156.08991959 119.41212015 -163.65460175 119.40427649 C-168.16289484 119.39961247 -172.67108991 119.39894062 -177.1793766 119.40888596 C-181.41405544 119.41757758 -185.64846581 119.41149384 -189.88311577 119.39420319 C-191.43265462 119.39025131 -192.98221625 119.39135005 -194.53174591 119.39799118 C-209.25464893 119.45525649 -209.25464893 119.45525649 -216 116 C-218.75319062 113.07473497 -219.23799558 110.45981579 -219.5 106.5625 C-219.37883833 103.25809069 -218.88337118 101.20577562 -216.875 98.5625 C-211.12980681 93.44178433 -204.99613213 93.69761028 -197.68017578 93.68115234 C-196.65517471 93.67110672 -195.63017365 93.6610611 -194.57411194 93.65071106 C-191.19785098 93.61990596 -187.82166923 93.60285114 -184.4453125 93.5859375 C-182.09975504 93.56722373 -179.7542043 93.54765016 -177.40866089 93.5272522 C-171.24381471 93.47594725 -165.07894672 93.4363126 -158.91400146 93.39910889 C-152.61969613 93.3590591 -146.32548146 93.30797116 -140.03125 93.2578125 C-127.6875637 93.16107251 -115.34382619 93.07666143 -103 93 C-104.77175579 87.62371853 -106.79077561 82.38169586 -108.87890625 77.12109375 C-113.25194654 64.94667147 -112.76035401 47.93927498 -108 36 C-107.6596875 35.03320312 -107.319375 34.06640625 -106.96875 33.0703125 C-104.09905599 25.45011151 -100.07578591 19.33003417 -95 13 C-94.45601562 12.29101562 -93.91203125 11.58203125 -93.3515625 10.8515625 C-69.99578744 -17.97288185 -29.132118 -21.39870508 0 0 Z M-90.9765625 10.52734375 C-97.74180732 18.79452516 -102.91158421 26.67408459 -106 37 C-106.29648437 37.75023437 -106.59296875 38.50046875 -106.8984375 39.2734375 C-112.46581325 54.23895212 -109.13994699 72.77652567 -103 87 C-102.27677823 88.34804601 -101.5297424 89.68383908 -100.75 91 C-99 94 -99 94 -99 97 C-99.86664418 96.99170386 -99.86664418 96.99170386 -100.75079632 96.98324013 C-114.81408158 96.85068928 -128.8772731 96.75142447 -142.94105053 96.68912697 C-149.74226004 96.65819878 -156.5430524 96.61603946 -163.34399414 96.54736328 C-169.90566895 96.48113486 -176.4670239 96.44630656 -183.02904701 96.43073654 C-185.53417094 96.41963893 -188.03927079 96.39796799 -190.54421043 96.36561966 C-194.0497731 96.32214454 -197.55353788 96.31606257 -201.05932617 96.31884766 C-202.09798325 96.297276 -203.13664032 96.27570435 -204.20677185 96.253479 C-209.28372067 96.20409355 -209.28372067 96.20409355 -213.76650429 98.25629807 C-216.17985589 100.97884952 -216.99436628 102.95985978 -217.5 106.5625 C-216.97728874 110.15613991 -216.19241377 112.13299738 -214 115 C-211.15044035 116.42477982 -208.71431541 116.15442652 -205.52719116 116.18513489 C-204.85481812 116.19289513 -204.18244508 116.20065537 -203.4896971 116.20865077 C-201.22541232 116.2334709 -198.96112856 116.25114743 -196.69677734 116.26879883 C-195.07713965 116.28492124 -193.45750567 116.3014199 -191.83787537 116.31826782 C-186.50395044 116.37177402 -181.16996039 116.41464103 -175.8359375 116.45703125 C-173.99691341 116.47223155 -172.15788982 116.48749245 -170.31886673 116.50281334 C-161.66804429 116.5742282 -153.01720062 116.64073584 -144.36629617 116.70140249 C-134.40548587 116.77143167 -124.44500865 116.85825267 -114.48446882 116.95958501 C-106.77392422 117.03691054 -99.06335027 117.09827576 -91.35257876 117.14799136 C-86.75430892 117.17802304 -82.15633011 117.21468918 -77.5582695 117.26828957 C-73.21956106 117.31847365 -68.88114303 117.34862167 -64.5421772 117.36432266 C-62.9620825 117.37333884 -61.38200717 117.38917781 -59.8020649 117.41290474 C-37.05338077 117.74284166 -18.60811843 110.67019439 -2 95 C-1.31164062 94.35417969 -0.62328125 93.70835937 0.0859375 93.04296875 C12.21060312 80.45196984 18.40274108 61.28899915 18.5 44.0625 C18.13592038 27.36849135 11.88980534 14.58336705 0 3 C-12.73703485 -8.71492712 -28.38684692 -11.70692043 -45.05859375 -11.36328125 C-62.53289423 -10.57469458 -79.11473282 -2.35705745 -90.9765625 10.52734375 Z " fill="#FE750C" transform="translate(631,491)"/>
<path d="M0 0 C4.62816662 0.62422286 8.45647488 2.51754779 12.5625 4.625 C13.26922852 4.984729 13.97595703 5.34445801 14.70410156 5.71508789 C59.51694851 28.73462245 90.20605523 67.28761272 105.640625 114.97949219 C108.06010459 122.74880081 109.55132413 130.6005873 110.8125 138.625 C110.94881836 139.47892334 111.08513672 140.33284668 111.22558594 141.21264648 C111.34321289 142.02161377 111.46083984 142.83058105 111.58203125 143.6640625 C111.74022339 144.73841553 111.74022339 144.73841553 111.90161133 145.83447266 C112 148 112 148 111 153 C-4.5 153 -120 153 -239 153 C-240.55913346 149.88173308 -239.66585225 147.32926126 -239 144 C-238.34 143.67 -237.68 143.34 -237 143 C-237 145.31 -237 147.62 -237 150 C-122.49 150 -7.98 150 110 150 C105.2760212 125.19911132 100.79060385 104.04330284 89 82 C88.40445312 80.87851562 87.80890625 79.75703125 87.1953125 78.6015625 C68.96127001 45.06079063 36.40926239 14.51568395 0 2 C0 1.34 0 0.68 0 0 Z " fill="#FE770E" transform="translate(576,281)"/>
<path d="M0 0 C2.913802 4.18067244 3.25755049 8.05306115 2.4375 13.0625 C-0.16311776 15.79999238 -2.75342509 17.94486271 -6.6090374 18.19557858 C-7.45742243 18.19943349 -8.30580746 18.2032884 -9.17990112 18.20726013 C-10.15291168 18.21415863 -11.12592224 18.22105713 -12.12841797 18.22816467 C-13.19962891 18.23077805 -14.27083984 18.23339142 -15.37451172 18.23608398 C-16.49979279 18.242771 -17.62507385 18.24945801 -18.78445435 18.25634766 C-21.2344338 18.27042357 -23.68442657 18.28230947 -26.13442612 18.29229546 C-30.00870339 18.30866353 -33.88288196 18.33189941 -37.7571106 18.35719299 C-48.77471037 18.42808672 -59.79234981 18.48817343 -70.81005859 18.53930664 C-77.54269635 18.57063617 -84.27520734 18.61232657 -91.00775528 18.65950203 C-93.57781064 18.67554508 -96.14789205 18.68785594 -98.71798325 18.69640923 C-102.30933885 18.70853335 -105.9004279 18.73267146 -109.49169922 18.75952148 C-111.09244293 18.7604052 -111.09244293 18.7604052 -112.7255249 18.76130676 C-113.70417511 18.77102509 -114.68282532 18.78074341 -115.69113159 18.79075623 C-116.96484021 18.79710413 -116.96484021 18.79710413 -118.26428032 18.80358028 C-120.75990236 19.08473955 -122.40323268 19.81063038 -124.5625 21.0625 C-124.5625 23.0425 -124.5625 25.0225 -124.5625 27.0625 C-102.12752398 27.40340248 -79.69241244 27.69248911 -57.25598812 27.91996098 C-46.8382286 28.02678865 -36.42118477 28.15054255 -26.00415039 28.31420898 C-16.92423244 28.4568244 -7.84457797 28.5676158 1.23617929 28.6402635 C6.04431597 28.67983927 10.85108087 28.73529655 15.65849495 28.82887459 C20.18534456 28.91648836 24.71063585 28.96147701 29.23829651 28.97406769 C30.89809452 28.98614553 32.55786459 29.01367886 34.2171154 29.05797386 C43.14710494 29.56926247 43.14710494 29.56926247 50.94778252 25.99578667 C52.88674065 23.57489988 52.88674065 23.57489988 54.29718685 20.99855709 C54.67349019 20.35965825 55.04979353 19.72075941 55.4375 19.0625 C56.0975 19.0625 56.7575 19.0625 57.4375 19.0625 C57.63988281 18.5159375 57.84226562 17.969375 58.05078125 17.40625 C59.990679 14.12754959 62.72681389 11.96077351 65.625 9.5625 C66.17736328 9.08941406 66.72972656 8.61632812 67.29882812 8.12890625 C76.91818516 0.0625 76.91818516 0.0625 81.4375 0.0625 C80.17509681 3.84970957 79.02895623 4.11459944 75.625 6.0625 C68.21550401 10.63697483 60.50960185 16.35820948 55.68888283 23.74014664 C52.71457997 28.0907325 50.36336036 31.46436311 45.20203781 33.06737518 C41.28314843 33.42154161 37.44280256 33.43767308 33.51708984 33.32714844 C32.02287521 33.32568021 30.52864922 33.32905941 29.03445435 33.33688354 C24.99547058 33.34428125 20.96006871 33.28391763 16.92184782 33.21076488 C12.67695397 33.14534412 8.43199667 33.14216395 4.18667603 33.13189697 C-2.94730466 33.10619521 -10.07998081 33.04109285 -17.21337891 32.94726562 C-27.2280624 32.81554141 -37.24230826 32.75057794 -47.25769353 32.70128584 C-60.72026915 32.63213056 -74.18290863 32.53963808 -87.64470291 32.37683487 C-89.08969584 32.35975734 -90.53470507 32.34399117 -91.9797287 32.32974625 C-99.23765892 32.25645777 -106.48449818 32.08241918 -113.73104858 31.66949463 C-115.51985978 31.56897985 -115.51985978 31.56897985 -117.34480858 31.46643448 C-121.19786734 30.98273885 -124.46475282 30.45963278 -126.9375 27.3125 C-127.81564395 24.15118178 -127.55844721 22.18313459 -126.5625 19.0625 C-121.89750074 14.88838372 -116.20791367 15.65110402 -110.31811523 15.69360352 C-109.18264252 15.68983704 -108.0471698 15.68607056 -106.87728882 15.68218994 C-104.41426354 15.67575847 -101.95121344 15.67608654 -99.48818779 15.68237495 C-95.59254698 15.69147292 -91.69738868 15.68127628 -87.80177307 15.66575623 C-78.12869024 15.62960636 -68.45561497 15.62333393 -58.7824707 15.62585449 C-50.60570448 15.62771406 -42.42930206 15.61390654 -34.25261116 15.57737541 C-30.41021768 15.56651681 -26.56831486 15.57869977 -22.72593689 15.59120178 C-20.37644966 15.58230104 -18.02696648 15.57222795 -15.67749023 15.56079102 C-14.60569016 15.57053452 -13.53389008 15.58027802 -12.42961121 15.59031677 C-6.81250346 15.62233086 -6.81250346 15.62233086 -1.90296936 13.21495056 C-0.02704832 10.2027017 0.07786423 8.54892747 -0.5625 5.0625 C-2.5427566 2.35225672 -4.12831339 0.37627725 -7.51922607 -0.36560059 C-10.02505552 -0.50453522 -12.48356561 -0.47062914 -14.9921875 -0.390625 C-16.49523941 -0.37591156 -16.49523941 -0.37591156 -18.02865601 -0.36090088 C-20.28344102 -0.33697665 -22.53812593 -0.30187426 -24.79260254 -0.25756836 C-30.61268311 -0.14568497 -36.43330646 -0.10563417 -42.25422668 -0.06347656 C-43.75475261 -0.05226715 -45.25527177 -0.04011862 -46.75578308 -0.02709961 C-63.17942813 0.11407572 -79.6001312 -0.00040068 -96.0234375 -0.140625 C-96.69247715 -0.14633294 -97.36151679 -0.15204088 -98.05083036 -0.15792179 C-106.24127669 -0.22823647 -114.43167681 -0.30327764 -122.62206519 -0.38001323 C-129.50263773 -0.4443289 -136.38324082 -0.50501979 -143.2638495 -0.56532621 C-157.03009762 -0.68601033 -170.79631016 -0.81035132 -184.5625 -0.9375 C-184.5625 -1.2675 -184.5625 -1.5975 -184.5625 -1.9375 C-162.30923253 -2.09162288 -140.05593189 -2.23964933 -117.80257607 -2.3804636 C-107.46943682 -2.44599078 -97.13631763 -2.51349568 -86.80322266 -2.58569336 C-77.79452263 -2.64863239 -68.785807 -2.70782303 -59.77705324 -2.76255554 C-55.00917825 -2.79165244 -50.24133173 -2.82259713 -45.4734993 -2.85803413 C-40.98056147 -2.89136866 -36.48761931 -2.91966913 -31.99462509 -2.94420624 C-30.35077973 -2.9540532 -28.70694393 -2.9656966 -27.06312561 -2.97933006 C-4.1876134 -3.16624428 -4.1876134 -3.16624428 0 0 Z " fill="#FE770F" transform="translate(472.5625,471.9375)"/>
<path d="M0 0 C1.3443451 -0.00597315 1.3443451 -0.00597315 2.71584868 -0.01206696 C3.69638913 -0.00624128 4.67692958 -0.00041559 5.68718338 0.00558662 C6.73190693 0.00387777 7.77663048 0.00216892 8.85301232 0.00040829 C12.36463859 -0.00289415 15.87607511 0.00812965 19.38768387 0.01904488 C21.90055715 0.01960883 24.41343077 0.01929275 26.92630386 0.01815987 C32.34198051 0.01770397 37.75759572 0.02338827 43.17325974 0.03463554 C51.00339642 0.05088663 58.83350979 0.05609815 66.66366151 0.05861153 C79.36741785 0.06298925 92.07114851 0.07630043 104.7748909 0.09521675 C117.1157099 0.11357356 129.45652194 0.12773104 141.79735184 0.13623238 C142.55798482 0.13675782 143.31861779 0.13728327 144.10230026 0.13782464 C147.91815584 0.14043471 151.73401148 0.14296212 155.54986715 0.14544845 C187.20839 0.16618334 218.8668806 0.20155959 250.52537918 0.24609566 C249.89989182 1.67794449 249.89989182 1.67794449 249.26176834 3.13871956 C248.71178886 4.40711065 248.16197244 5.67557245 247.61229324 6.9440937 C247.33777328 7.57134094 247.06325333 8.19858818 246.78041458 8.84484291 C244.75920429 13.52216515 243.29601091 18.08051443 242.27537918 23.05859566 C241.75916236 25.48798448 241.18868145 27.84916246 240.52537918 30.24609566 C239.86537918 30.57609566 239.20537918 30.90609566 238.52537918 31.24609566 C238.24160778 25.67253421 239.16053242 21.37421652 240.96287918 16.12109566 C242.38614063 11.85529803 243.69416202 7.67257741 244.52537918 3.24609566 C212.88939265 3.1320638 181.25346451 3.04356347 149.61732053 2.99076901 C145.88346669 2.98451538 142.14961327 2.97804378 138.41576004 2.97143745 C137.67240851 2.9701259 136.92905699 2.96881435 136.16317966 2.96746305 C124.12258864 2.94569895 112.08211684 2.90627194 100.04159657 2.86033168 C87.68941431 2.8135949 75.33729454 2.78580617 62.98502749 2.77565318 C55.36127037 2.7687882 47.73785017 2.74709642 40.11419674 2.70651332 C34.27105795 2.67699054 28.42809264 2.6738145 22.58487701 2.68055725 C20.18585826 2.67917865 17.78682706 2.66919254 15.38788414 2.65006828 C12.1180004 2.6252737 8.84957049 2.63114194 5.57965469 2.64482307 C4.62537278 2.63025887 3.67109086 2.61569466 2.6878913 2.60068911 C-1.84123188 2.65208254 -3.85005575 2.77985973 -7.57566929 5.56101894 C-10.04307276 9.0498745 -10.00814712 11.05410333 -9.47462082 15.24609566 C-8.28694226 18.62641154 -7.57636857 19.17826383 -4.47462082 21.24609566 C-4.47462082 21.90609566 -4.47462082 22.56609566 -4.47462082 23.24609566 C-7.48950506 22.34977872 -9.19264304 21.56696692 -11.28712082 19.18359566 C-12.92724082 15.12645671 -13.18766336 11.56352907 -12.47462082 7.24609566 C-9.40849732 2.09938836 -5.93713152 -0.00583215 0 0 Z " fill="#FD6E08" transform="translate(267.4746208190918,508.75390434265137)"/>
<path d="M0 0 C0 0.66 0 1.32 0 2 C-1.04414063 2.1959375 -2.08828125 2.391875 -3.1640625 2.59375 C-28.45301022 7.61362071 -51.95719198 17.62825283 -72 34 C-72.88300781 34.68191406 -73.76601563 35.36382812 -74.67578125 36.06640625 C-97.73472103 54.18652825 -115.58023911 78.02992641 -127 105 C-127.5053125 106.1859375 -128.010625 107.371875 -128.53125 108.59375 C-129.70664235 111.3885718 -130.86406794 114.18896076 -132 117 C-133.3496879 113.98259429 -132.90623544 112.70526456 -131.8828125 109.48828125 C-131.31188659 108.09012984 -130.72480792 106.69850657 -130.125 105.3125 C-129.6446228 104.18690674 -129.6446228 104.18690674 -129.15454102 103.03857422 C-119.50128052 80.85158883 -106.14852806 62.06694125 -89 45 C-88.25484131 44.25097412 -88.25484131 44.25097412 -87.49462891 43.48681641 C-67.25243283 23.35414861 -41.79579749 10.23193341 -14.6875 2 C-14.01275635 1.79213867 -13.3380127 1.58427734 -12.64282227 1.37011719 C-8.33658327 0.13466312 -4.46673944 -0.1849103 0 0 Z " fill="#FE740A" transform="translate(480,272)"/>
<path d="M0 0 C21.51237666 -0.71707922 38.90027406 7.16135888 54.82421875 21.19921875 C60.39210111 26.49344337 65.7649313 32.54023432 67.515625 40.1640625 C86.94708399 39.9355498 104.50584413 39.30309808 122.515625 31.1640625 C121.515625 34.1640625 121.515625 34.1640625 119.2421875 35.6640625 C106.63816659 41.75970989 93.54156793 43.37648372 79.640625 43.4765625 C78.52651245 43.48502197 78.52651245 43.48502197 77.38989258 43.49365234 C73.35025427 43.43866592 70.00829101 43.26450462 66.515625 41.1640625 C64.41015625 38.4765625 64.41015625 38.4765625 62.328125 35.1640625 C52.28869577 19.95108189 38.02354122 9.51397124 20.265625 4.9765625 C9.40707986 2.86939727 -0.80939299 3.15367643 -11.671875 4.69140625 C-14.99937448 5.10393436 -18.13826423 5.25294357 -21.484375 5.1640625 C-21.154375 4.5040625 -20.824375 3.8440625 -20.484375 3.1640625 C-13.72456961 1.07466811 -7.03024626 0.46426155 0 0 Z " fill="#FE750C" transform="translate(589.484375,461.8359375)"/>
<path d="M0 0 C-5.06513099 2.35790581 -10.06845363 4.37483623 -15.375 6.125 C-34.4022565 12.82473821 -49.95816535 24.08259666 -65.0078125 37.2421875 C-65.83756592 37.96704346 -65.83756592 37.96704346 -66.68408203 38.70654297 C-68.12825041 39.98618264 -68.12825041 39.98618264 -69 42 C-69.66 42 -70.32 42 -71 42 C-71.37511719 42.85078125 -71.37511719 42.85078125 -71.7578125 43.71875 C-73.18213045 46.33447856 -74.89858181 48.27019486 -76.875 50.5 C-87.59232321 63.46450388 -95.19426526 78.29572443 -101 94 C-101.58343823 95.53821504 -102.16809429 97.07596865 -102.75390625 98.61328125 C-104.19491744 102.40010392 -105.59586912 106.1985725 -107 110 C-98.75 110 -90.5 110 -82 110 C-82 110.33 -82 110.66 -82 111 C-90.58 111 -99.16 111 -108 111 C-107.27215396 105.17723171 -106.53001391 100.95313668 -104.6875 95.5625 C-104.27886719 94.34691406 -103.87023437 93.13132812 -103.44921875 91.87890625 C-97.21175745 74.62460127 -87.46295431 59.2167916 -76 45 C-75.32839844 44.16597656 -74.65679687 43.33195312 -73.96484375 42.47265625 C-70.04884152 37.82519119 -65.67809661 33.86633387 -61 30 C-60.14535156 29.28070313 -59.29070312 28.56140625 -58.41015625 27.8203125 C-51.50508823 22.12185695 -51.50508823 22.12185695 -48.765625 21.4609375 C-48.18296875 21.30882812 -47.6003125 21.15671875 -47 21 C-46.505 19.515 -46.505 19.515 -46 18 C-43.60559973 16.40968938 -41.26484368 14.99827678 -38.75 13.625 C-38.02997803 13.22579346 -37.30995605 12.82658691 -36.56811523 12.4152832 C-31.17294559 9.48821169 -25.69581911 7.13170499 -19.9140625 5.05859375 C-16.48648926 3.81345655 -13.2028879 2.34261928 -9.90234375 0.796875 C-6.21207219 -0.74894717 -3.87099852 -1.24424952 0 0 Z " fill="#FE740B" transform="translate(473,297)"/>
<path d="M0 0 C0.99 0.495 0.99 0.495 2 1 C0.7625 1.76570313 0.7625 1.76570313 -0.5 2.546875 C-35.92123386 24.7215236 -60.59651176 53.87959283 -74.88671875 93.4453125 C-76 96 -76 96 -78 97 C-76.07611601 69.42432941 -50.10911856 37.58815034 -30 20 C-24.77683483 15.8528854 -19.39836762 11.91464449 -14 8 C-14.495 7.01 -14.495 7.01 -15 6 C-14.28199219 5.88914062 -13.56398438 5.77828125 -12.82421875 5.6640625 C-8.90766254 4.74315717 -5.72372648 2.86954871 -2.20703125 0.9609375 C-1.11455078 0.48527344 -1.11455078 0.48527344 0 0 Z " fill="#FE760B" transform="translate(472,298)"/>
<path d="M0 0 C7.05226622 6.70825323 7.1602151 12.9423263 7.484375 22.18359375 C7.51015625 23.25738281 7.5359375 24.33117187 7.5625 25.4375 C8.77808594 25.55867188 9.99367188 25.67984375 11.24609375 25.8046875 C12.83078117 25.97347078 14.4154139 26.14276816 16 26.3125 C16.80244141 26.39113281 17.60488281 26.46976562 18.43164062 26.55078125 C20.48420994 26.77595763 22.52543009 27.09972587 24.5625 27.4375 C25.0575 28.4275 25.0575 28.4275 25.5625 29.4375 C18.87120551 29.56563117 12.18438208 29.5210807 5.5625 28.4375 C3.27533483 26.15033483 4.26008884 19.58871852 4.22070312 16.31445312 C4.03051988 10.90528773 3.12272216 7.7514932 -0.4375 3.4375 C-3.94555648 0.68116991 -8.16900925 1.04558269 -12.4375 1.4375 C-16.01122431 2.24971007 -17.16434263 3.11134195 -19.53125 5.9375 C-21.94543894 10.37010919 -22.10042323 13.84912404 -22.1875 18.8125 C-22.23197266 20.05966797 -22.23197266 20.05966797 -22.27734375 21.33203125 C-22.34750399 23.36667827 -22.39482895 25.40209091 -22.4375 27.4375 C-25.99795177 28.62431726 -28.87558337 28.53439832 -32.625 28.5 C-33.89730469 28.49097656 -35.16960937 28.48195313 -36.48046875 28.47265625 C-37.94419922 28.45525391 -37.94419922 28.45525391 -39.4375 28.4375 C-39.1075 27.7775 -38.7775 27.1175 -38.4375 26.4375 C-35.27734375 26.0234375 -35.27734375 26.0234375 -31.375 25.8125 C-30.08464844 25.73773438 -28.79429687 25.66296875 -27.46484375 25.5859375 C-26.46582031 25.53695313 -25.46679688 25.48796875 -24.4375 25.4375 C-24.49550781 24.3753125 -24.55351562 23.313125 -24.61328125 22.21875 C-25.14933447 8.26322303 -25.14933447 8.26322303 -20.83984375 2.85546875 C-15.11433025 -2.93383877 -7.31485396 -3.32493362 0 0 Z " fill="#FE770E" transform="translate(520.4375,243.5625)"/>
<path d="M0 0 C0.66 0 1.32 0 2 0 C0.27197488 3.73020806 -2.01528176 6.69921681 -4.5625 9.90234375 C-9.15922349 16.61006253 -8.70324707 24.19809423 -8 32 C-6.9909079 35.10033276 -5.76581203 37.21750832 -4 40 C-3.67 40.99 -3.34 41.98 -3 43 C-1.25132517 44.08431094 -1.25132517 44.08431094 1 45 C1.87527344 45.49113281 2.75054688 45.98226562 3.65234375 46.48828125 C7.37911726 48.17119998 10.85593615 48.76300585 14.875 49.1875 C15.56335938 49.26935547 16.25171875 49.35121094 16.9609375 49.43554688 C18.63947357 49.63370738 20.31960481 49.81827787 22 50 C17.12623064 52.6837937 12.80103851 52.7320398 7.50390625 51.34765625 C-0.46105912 48.5229425 -5.77639165 44.179398 -9.4375 36.5 C-12.39131672 28.07520101 -12.61794236 18.46529898 -8.8125 10.3125 C-6.72344763 6.72361515 -4.48754498 4.32502999 -1 2 C-0.67 1.34 -0.34 0.68 0 0 Z " fill="#FE760C" transform="translate(568,520)"/>
<path d="M0 0 C5.7980356 0.69024233 10.11532576 1.60958508 13.86328125 6.36328125 C18.94462483 13.96951605 22.45196692 21.59762885 21 31 C18.01043997 40.04573061 13.18264685 47.00539738 5 52 C4.34 52 3.68 52 3 52 C3 51.34 3 50.68 3 50 C3.86625 49.46375 4.7325 48.9275 5.625 48.375 C9.73062317 45.79432258 12.49227618 42.10839859 15 38 C15 37.34 15 36.68 15 36 C15.66 36 16.32 36 17 36 C18.17527024 26.61372013 18.87272793 18.70099413 13.25 10.6875 C9.59326542 6.20131099 5.22541562 3.41173029 0 1 C0 0.67 0 0.34 0 0 Z " fill="#FE750D" transform="translate(593,516)"/>
<path d="M0 0 C0.99 0.495 0.99 0.495 2 1 C2 1.66 2 2.32 2 3 C-33.64 3 -69.28 3 -106 3 C-106 2.67 -106 2.34 -106 2 C-104.68677261 1.98969254 -103.37354523 1.97938507 -102.02052307 1.96876526 C-89.67394014 1.87121507 -77.32740969 1.76849895 -64.98091221 1.66066074 C-58.63271933 1.60538141 -52.2845219 1.55195354 -45.9362793 1.50268555 C-39.8154732 1.45511573 -33.69472514 1.40277588 -27.57398796 1.34705925 C-25.23310723 1.32660213 -22.89221057 1.30789475 -20.55130196 1.29092598 C-17.28487481 1.26695603 -14.01855852 1.23689171 -10.75219727 1.20532227 C-9.773965 1.1995668 -8.79573273 1.19381134 -7.78785706 1.18788147 C-6.90299622 1.17809265 -6.01813538 1.16830383 -5.10646057 1.15821838 C-3.9463841 1.14853956 -3.9463841 1.14853956 -2.76287174 1.1386652 C-0.97342169 1.18991521 -0.97342169 1.18991521 0 0 Z " fill="#FD8E21" transform="translate(529,583)"/>
<path d="M0 0 C-1.26240319 3.78720957 -2.40854377 4.05209944 -5.8125 6 C-10.25901919 8.74519213 -14.26752398 11.73329042 -18.125 15.25 C-18.63434082 15.70987305 -19.14368164 16.16974609 -19.66845703 16.64355469 C-23.1159756 19.87220082 -25.57098448 23.29749872 -28.1875 27.25 C-30.24416836 29.94507657 -31.62177793 31.74722709 -35.04199219 32.37451172 C-40.11556336 32.57430113 -45.01492506 31.88712585 -50 31 C-50 30.67 -50 30.34 -50 30 C-48.40671875 30.06574219 -48.40671875 30.06574219 -46.78125 30.1328125 C-38.4141823 30.37271243 -38.4141823 30.37271243 -31.2265625 26.70703125 C-29.10131423 23.99257519 -29.10131423 23.99257519 -27.3828125 21.15234375 C-26.92648437 20.44207031 -26.47015625 19.73179687 -26 19 C-25.34 19 -24.68 19 -24 19 C-23.79761719 18.4534375 -23.59523438 17.906875 -23.38671875 17.34375 C-21.446821 14.06504959 -18.71068611 11.89827351 -15.8125 9.5 C-15.26013672 9.02691406 -14.70777344 8.55382812 -14.13867188 8.06640625 C-4.51931484 0 -4.51931484 0 0 0 Z " fill="#FE730A" transform="translate(554,472)"/>
<path d="M0 0 C6.30186916 -0.41493789 11.46292691 1.09020126 17.4375 3 C18.82098633 3.42925781 18.82098633 3.42925781 20.23242188 3.8671875 C22.49117822 4.56939155 24.74671247 5.28047889 27 6 C27 6.99 27 7.98 27 9 C25.96101562 8.66226562 24.92203125 8.32453125 23.8515625 7.9765625 C16.85241167 5.73028434 10.01263772 3.56452426 2.72265625 2.45703125 C2.15417969 2.30621094 1.58570313 2.15539062 1 2 C0.67 1.34 0.34 0.68 0 0 Z " fill="#FE740C" transform="translate(547,273)"/>
<path d="M0 0 C0.66 0 1.32 0 2 0 C1.29563752 8.04456097 0.18531495 16.01350895 -1 24 C-4.67418319 17.93759773 -2.38379565 10.38846296 -0.9375 3.8125 C-0.628125 2.554375 -0.31875 1.29625 0 0 Z " fill="#FE770C" transform="translate(341,404)"/>
<path d="M0 0 C3.92862057 1.27414721 5.90532822 2.4091341 8 6 C8.07421875 8.578125 8.07421875 8.578125 7.6875 11.25 C7.56761719 12.14203125 7.44773437 13.0340625 7.32421875 13.953125 C7.21722656 14.62859375 7.11023438 15.3040625 7 16 C6.67 16 6.34 16 6 16 C5.96261719 15.39671875 5.92523438 14.7934375 5.88671875 14.171875 C5.46130737 7.97653657 5.46130737 7.97653657 2 3 C1.01 2.34 0.02 1.68 -1 1 C-0.67 0.67 -0.34 0.34 0 0 Z " fill="#FE7A12" transform="translate(463,532)"/>
<path d="M0 0 C0.99 0 1.98 0 3 0 C2.55170486 1.98146451 2.09107502 3.96014211 1.625 5.9375 C1.36976563 7.03964844 1.11453125 8.14179688 0.8515625 9.27734375 C0.57054687 10.17582031 0.28953125 11.07429688 0 12 C-0.99 12.495 -0.99 12.495 -2 13 C-1.85851011 11.3954444 -1.71164314 9.79136233 -1.5625 8.1875 C-1.48128906 7.29417969 -1.40007812 6.40085937 -1.31640625 5.48046875 C-1 3 -1 3 0 0 Z " fill="#FE780D" transform="translate(345,390)"/>
<path d="M0 0 C0 0.66 0 1.32 0 2 C-1.24420647 2.5345256 -2.49570936 3.05208611 -3.75 3.5625 C-4.44609375 3.85253906 -5.1421875 4.14257812 -5.859375 4.44140625 C-8.30012784 5.07831803 -9.6403655 4.80248831 -12 4 C-10.75539217 3.32332002 -9.50403104 2.65905281 -8.25 2 C-7.55390625 1.62875 -6.8578125 1.2575 -6.140625 0.875 C-4 0 -4 0 0 0 Z " fill="#FE760C" transform="translate(567,467)"/>
<path d="M0 0 C0.66 0.66 1.32 1.32 2 2 C-1.21341369 3.60670684 -4.62958968 2.82510855 -8.125 2.5625 C-9.25615234 2.48418945 -9.25615234 2.48418945 -10.41015625 2.40429688 C-12.2737937 2.27454996 -14.13694996 2.13792512 -16 2 C-16 1.67 -16 1.34 -16 1 C-13.37549914 0.77880061 -10.75129514 0.57253331 -8.125 0.375 C-7.37863281 0.31054688 -6.63226562 0.24609375 -5.86328125 0.1796875 C-3.9129953 0.03912635 -1.95530533 0.01240151 0 0 Z " fill="#FE7B11" transform="translate(520,501)"/>
<path d="M0 0 C-2.40820361 2.40820361 -3.65022937 2.68097423 -7 3 C-9.3125 2.0625 -9.3125 2.0625 -11 1 C-3.375 -1.125 -3.375 -1.125 0 0 Z " fill="#FE7C13" transform="translate(597,568)"/>
<path d="M0 0 C4 1 4 1 4 1 Z " fill="#FE871E" transform="translate(427,534)"/>
<path d="" fill="#FE8921" transform="translate(0,0)"/>
<path d="M0 0 C2 1 2 1 2 1 Z " fill="#FF891E" transform="translate(432,534)"/>
<path d="M0 0 C2 1 2 1 2 1 Z " fill="#FF881F" transform="translate(419,534)"/>
<path d="M0 0 C2 1 2 1 2 1 Z " fill="#FF8A1F" transform="translate(411,534)"/>
<path d="M0 0 C2 1 2 1 2 1 Z " fill="#FF8B1F" transform="translate(384,534)"/>
<path d="M0 0 C2 1 2 1 2 1 Z " fill="#FF8A20" transform="translate(363,534)"/>
<path d="M0 0 C2 1 2 1 2 1 Z " fill="#FF8820" transform="translate(347,534)"/>
<path d="M0 0 C2 1 2 1 2 1 Z " fill="#FF8B1F" transform="translate(336,534)"/>
<path d="M0 0 C2 1 2 1 2 1 Z " fill="#FF8920" transform="translate(323,534)"/>
<path d="M0 0 C2 1 2 1 2 1 Z " fill="#FD8A23" transform="translate(614,480)"/>
<path d="M0 0 C2 1 2 1 2 1 Z " fill="#FF8A23" transform="translate(564,470)"/>
<path d="" fill="#8B5811" transform="translate(0,0)"/>
<path d="" fill="#8F5912" transform="translate(0,0)"/>
<path d="" fill="#8E5912" transform="translate(0,0)"/>
<path d="" fill="#86540F" transform="translate(0,0)"/>
<path d="" fill="#83530F" transform="translate(0,0)"/>
<path d="" fill="#915B12" transform="translate(0,0)"/>
<path d="" fill="#845410" transform="translate(0,0)"/>
<path d="" fill="#8D5A12" transform="translate(0,0)"/>
<path d="" fill="#85540F" transform="translate(0,0)"/>
<path d="" fill="#895510" transform="translate(0,0)"/>
<path d="" fill="#8F5A13" transform="translate(0,0)"/>
<path d="" fill="#8A5912" transform="translate(0,0)"/>
<path d="" fill="#885711" transform="translate(0,0)"/>
<path d="" fill="#A06616" transform="translate(0,0)"/>
<path d="" fill="#A96916" transform="translate(0,0)"/>
<path d="" fill="#A06518" transform="translate(0,0)"/>
<path d="" fill="#FD861F" transform="translate(0,0)"/>
<path d="" fill="#FF8A21" transform="translate(0,0)"/>
<path d="" fill="#FF8A21" transform="translate(0,0)"/>
<path d="" fill="#FF881F" transform="translate(0,0)"/>
<path d="" fill="#FF8920" transform="translate(0,0)"/>
<path d="" fill="#FE8A21" transform="translate(0,0)"/>
<path d="" fill="#FC8922" transform="translate(0,0)"/>
<path d="" fill="#FF8A23" transform="translate(0,0)"/>
<path d="" fill="#FF891F" transform="translate(0,0)"/>
<path d="" fill="#FF8B24" transform="translate(0,0)"/>
<path d="" fill="#FF871F" transform="translate(0,0)"/>
<path d="" fill="#FF8B21" transform="translate(0,0)"/>
<path d="" fill="#FF8C21" transform="translate(0,0)"/>
<path d="" fill="#FF891D" transform="translate(0,0)"/>
<path d="" fill="#FF881E" transform="translate(0,0)"/>
<path d="" fill="#FF8A1F" transform="translate(0,0)"/>
<path d="" fill="#FF891E" transform="translate(0,0)"/>
<path d="" fill="#FF8B1F" transform="translate(0,0)"/>
<path d="" fill="#FF8A1E" transform="translate(0,0)"/>
<path d="" fill="#FF8A1F" transform="translate(0,0)"/>
<path d="" fill="#FF881D" transform="translate(0,0)"/>
<path d="" fill="#FF8B1E" transform="translate(0,0)"/>
<path d="" fill="#FF891F" transform="translate(0,0)"/>
<path d="" fill="#FF8B20" transform="translate(0,0)"/>
<path d="" fill="#FF881E" transform="translate(0,0)"/>
<path d="" fill="#FF8B1F" transform="translate(0,0)"/>
<path d="" fill="#FF8A1E" transform="translate(0,0)"/>
<path d="" fill="#FF8B1F" transform="translate(0,0)"/>
<path d="" fill="#FF8820" transform="translate(0,0)"/>
<path d="" fill="#FF881F" transform="translate(0,0)"/>
<path d="" fill="#FF891F" transform="translate(0,0)"/>
<path d="" fill="#FF8B21" transform="translate(0,0)"/>
<path d="" fill="#FF8A1F" transform="translate(0,0)"/>
<path d="" fill="#FF8A21" transform="translate(0,0)"/>
<path d="" fill="#FF8A20" transform="translate(0,0)"/>
<path d="" fill="#FF8A21" transform="translate(0,0)"/>
<path d="" fill="#FF8922" transform="translate(0,0)"/>
<path d="" fill="#FF8B23" transform="translate(0,0)"/>
<path d="" fill="#F78925" transform="translate(0,0)"/>
<path d="" fill="#FE8822" transform="translate(0,0)"/>
<path d="" fill="#FF8920" transform="translate(0,0)"/>
<path d="" fill="#FE8720" transform="translate(0,0)"/>
<path d="" fill="#FF8921" transform="translate(0,0)"/>
<path d="" fill="#FF8721" transform="translate(0,0)"/>
<path d="" fill="#FE8821" transform="translate(0,0)"/>
<path d="" fill="#FF8B25" transform="translate(0,0)"/>
<path d="" fill="#FD8920" transform="translate(0,0)"/>
<path d="" fill="#FF8922" transform="translate(0,0)"/>
<path d="" fill="#FF891E" transform="translate(0,0)"/>
<path d="" fill="#FF8920" transform="translate(0,0)"/>
<path d="" fill="#FF881F" transform="translate(0,0)"/>
<path d="" fill="#FF8920" transform="translate(0,0)"/>
<path d="" fill="#FF8922" transform="translate(0,0)"/>
<path d="" fill="#FF8B23" transform="translate(0,0)"/>
<path d="" fill="#FF881E" transform="translate(0,0)"/>
<path d="" fill="#FF8A1E" transform="translate(0,0)"/>
<path d="" fill="#FD8A22" transform="translate(0,0)"/>
<path d="" fill="#A16717" transform="translate(0,0)"/>
<path d="" fill="#FE8921" transform="translate(0,0)"/>
<path d="" fill="#FF891F" transform="translate(0,0)"/>
<path d="" fill="#FF8C22" transform="translate(0,0)"/>
<path d="" fill="#FE8720" transform="translate(0,0)"/>
<path d="" fill="#FC8B24" transform="translate(0,0)"/>
<path d="" fill="#FE8A21" transform="translate(0,0)"/>
<path d="" fill="#FF8B20" transform="translate(0,0)"/>
<path d="" fill="#FF8C21" transform="translate(0,0)"/>
<path d="" fill="#FC8A23" transform="translate(0,0)"/>
<path d="" fill="#FB8621" transform="translate(0,0)"/>
<path d="" fill="#F88824" transform="translate(0,0)"/>
<path d="" fill="#FA8A23" transform="translate(0,0)"/>
<path d="" fill="#FA8C24" transform="translate(0,0)"/>
<path d="" fill="#9C661B" transform="translate(0,0)"/>
<path d="" fill="#A76B1C" transform="translate(0,0)"/>
<path d="" fill="#8E5C16" transform="translate(0,0)"/>
<path d="" fill="#A56919" transform="translate(0,0)"/>
<path d="" fill="#AF6C19" transform="translate(0,0)"/>
</svg>
